<svg xmlns="http://www.w3.org/2000/svg" xmlns:xlink="http://www.w3.org/1999/xlink" viewBox="0 0 512 384"><defs><linearGradient id="linear-gradient" x1="-309.9096" y1="538.7193" x2="-291.6954" y2="556.9335" gradientTransform="translate(6750.6572 -11572.6275) scale(21.3333)" gradientUnits="userSpaceOnUse"><stop offset="0" stop-opacity="0.2"/><stop offset="1" stop-opacity="0"/></linearGradient></defs><title>mailDark</title><g id="Layer_2" data-name="Layer 2"><g id="Capa_1" data-name="Capa 1"><path d="M469.333,0H42.667A42.7085,42.7085,0,0,0,0,42.667V341.334A42.7083,42.7083,0,0,0,42.667,384H469.334A42.7083,42.7083,0,0,0,512,341.333V42.667A42.7085,42.7085,0,0,0,469.333,0Z" fill="#2f0e47"/><path d="M320.322,191.225C375.74,140.832,461.19,62.655,489.473,36.769a20.6132,20.6132,0,0,1,1.194,5.897V341.333a20.601,20.601,0,0,1-1.126,5.56C461.033,319.706,375.556,238.667,320.322,191.225Z" fill="#f2f2f2"/><path d="M469.333,21.333a19.9236,19.9236,0,0,1,4.432.9163C436.826,56.783,314.342,171.2438,271.479,210.693c-3.354,3.086-8.76,6.7675-15.479,6.7675s-12.125-3.6815-15.49-6.7777C197.652,171.24,75.161,56.7728,38.228,22.2513a20.0149,20.0149,0,0,1,4.439-.9173H469.333Z" fill="#fafafa"/><path d="M22.46,346.893a20.5629,20.5629,0,0,1-1.126-5.56V42.667a20.6064,20.6064,0,0,1,1.194-5.896C50.8,62.647,136.264,140.831,191.68,191.224,136.443,238.671,50.957,319.719,22.46,346.893Z" fill="#f2f2f2"/><path d="M42.667,362.667a20.405,20.405,0,0,1-4.81-.974c29.447-28.072,115.477-109.586,169.742-156.009,7.074,6.417,13.536,12.268,18.63,16.858,8.792,7.938,19.083,12.125,29.771,12.125s20.979-4.188,29.76-12.115c5.096-4.592,11.563-10.448,18.641-16.868,54.268,46.418,140.286,127.926,169.742,156.009a20.3846,20.3846,0,0,1-4.81.974Z" fill="#fafafa"/><path d="M183.807,198.049c2.663-2.318,5.329-4.642,7.872-6.826C136.262,140.83,50.799,62.646,22.527,36.77ZM489.473,36.77C461.19,62.655,375.74,140.832,320.322,191.225c55.234,47.441,140.711,128.48,169.219,155.668a20.5629,20.5629,0,0,0,1.126-5.56V42.667A20.6472,20.6472,0,0,0,489.473,36.77ZM285.76,222.552c-8.781,7.927-19.073,12.115-29.76,12.115s-20.979-4.188-29.771-12.125c-5.094-4.59-11.556-10.441-18.63-16.858-2.793,2.389-5.72,4.926-8.669,7.49L348.425,362.667H469.334a20.3846,20.3846,0,0,0,4.81-.974C444.688,333.61,358.67,252.102,304.402,205.684,297.323,212.104,290.857,217.96,285.76,222.552Z" opacity="0.62" fill="url(#linear-gradient)"/></g></g></svg>