<svg xmlns="http://www.w3.org/2000/svg" viewBox="0 0 1527.9 621.8"><defs><style>.cls-1{fill:#edeaea;}</style></defs><title>eboardbg2</title><g id="Layer_2" data-name="Layer 2"><g id="Layer_1-2" data-name="Layer 1"><polygon class="cls-1" points="643.4 0 626.6 88.8 537.9 88.8 643.4 0"/><polygon class="cls-1" points="553.4 0 536.6 88.8 447.9 88.8 553.4 0"/><polygon class="cls-1" points="732.1 0 715.4 88.8 626.6 88.8 732.1 0"/><polygon class="cls-1" points="820.9 0 804.1 88.8 715.4 88.8 820.9 0"/><polygon class="cls-1" points="611.1 178.1 594.3 266.8 505.6 266.8 611.1 178.1"/><polygon class="cls-1" points="521.1 178.1 504.4 266.8 415.6 266.8 521.1 178.1"/><polygon class="cls-1" points="699.9 178.1 683.1 266.8 594.3 266.8 699.9 178.1"/><polygon class="cls-1" points="788.6 178.1 771.9 266.8 683.1 266.8 788.6 178.1"/><polygon class="cls-1" points="577.6 356 560.8 444.8 472.1 444.8 577.6 356"/><polygon class="cls-1" points="488.8 356 472.1 444.8 383.3 444.8 488.8 356"/><polygon class="cls-1" points="667.6 356 650.8 444.8 562.1 444.8 667.6 356"/><polygon class="cls-1" points="756.3 356 739.6 444.8 650.8 444.8 756.3 356"/><polygon class="cls-1" points="545.3 533 528.6 621.8 439.8 621.8 545.3 533"/><polygon class="cls-1" points="456.5 533 439.8 621.8 351 621.8 456.5 533"/><polygon class="cls-1" points="635.3 533 618.5 621.8 529.8 621.8 635.3 533"/><polygon class="cls-1" points="724.1 533 707.3 621.8 618.5 621.8 724.1 533"/><polygon class="cls-1" points="292.4 0 275.6 88.8 186.9 88.8 292.4 0"/><polygon class="cls-1" points="202.4 0 185.6 88.8 96.9 88.8 202.4 0"/><polygon class="cls-1" points="381.1 0 364.4 88.8 275.6 88.8 381.1 0"/><polygon class="cls-1" points="469.9 0 453.1 88.8 364.4 88.8 469.9 0"/><polygon class="cls-1" points="260.1 178.1 243.3 266.8 154.6 266.8 260.1 178.1"/><polygon class="cls-1" points="170.1 178.1 153.4 266.8 64.6 266.8 170.1 178.1"/><polygon class="cls-1" points="348.9 178.1 332.1 266.8 243.3 266.8 348.9 178.1"/><polygon class="cls-1" points="437.6 178.1 420.9 266.8 332.1 266.8 437.6 178.1"/><polygon class="cls-1" points="226.6 356 209.8 444.8 121.1 444.8 226.6 356"/><polygon class="cls-1" points="137.8 356 121.1 444.8 32.3 444.8 137.8 356"/><polygon class="cls-1" points="316.6 356 299.8 444.8 211.1 444.8 316.6 356"/><polygon class="cls-1" points="405.3 356 388.6 444.8 299.8 444.8 405.3 356"/><polygon class="cls-1" points="194.3 533 177.6 621.8 88.8 621.8 194.3 533"/><polygon class="cls-1" points="105.5 533 88.8 621.8 0 621.8 105.5 533"/><polygon class="cls-1" points="284.3 533 267.5 621.8 178.8 621.8 284.3 533"/><polygon class="cls-1" points="373.1 533 356.3 621.8 267.5 621.8 373.1 533"/><polygon class="cls-1" points="1350.4 0 1333.6 88.8 1244.9 88.8 1350.4 0"/><polygon class="cls-1" points="1260.4 0 1243.6 88.8 1154.9 88.8 1260.4 0"/><polygon class="cls-1" points="1439.1 0 1422.4 88.8 1333.6 88.8 1439.1 0"/><polygon class="cls-1" points="1527.9 0 1511.1 88.8 1422.4 88.8 1527.9 0"/><polygon class="cls-1" points="1318.1 178.1 1301.3 266.8 1212.6 266.8 1318.1 178.1"/><polygon class="cls-1" points="1228.1 178.1 1211.4 266.8 1122.6 266.8 1228.1 178.1"/><polygon class="cls-1" points="1406.9 178.1 1390.1 266.8 1301.3 266.8 1406.9 178.1"/><polygon class="cls-1" points="1495.6 178.1 1478.9 266.8 1390.1 266.8 1495.6 178.1"/><polygon class="cls-1" points="1284.6 356 1267.8 444.8 1179.1 444.8 1284.6 356"/><polygon class="cls-1" points="1195.8 356 1179.1 444.8 1090.3 444.8 1195.8 356"/><polygon class="cls-1" points="1374.6 356 1357.8 444.8 1269.1 444.8 1374.6 356"/><polygon class="cls-1" points="1463.3 356 1446.6 444.8 1357.8 444.8 1463.3 356"/><polygon class="cls-1" points="1252.3 533 1235.6 621.8 1146.8 621.8 1252.3 533"/><polygon class="cls-1" points="1163.5 533 1146.8 621.8 1058 621.8 1163.5 533"/><polygon class="cls-1" points="1342.3 533 1325.5 621.8 1236.8 621.8 1342.3 533"/><polygon class="cls-1" points="1431.1 533 1414.3 621.8 1325.5 621.8 1431.1 533"/><polygon class="cls-1" points="999.4 0 982.6 88.8 893.9 88.8 999.4 0"/><polygon class="cls-1" points="909.4 0 892.6 88.8 803.9 88.8 909.4 0"/><polygon class="cls-1" points="1088.1 0 1071.4 88.8 982.6 88.8 1088.1 0"/><polygon class="cls-1" points="1176.9 0 1160.1 88.8 1071.4 88.8 1176.9 0"/><polygon class="cls-1" points="967.1 178.1 950.3 266.8 861.6 266.8 967.1 178.1"/><polygon class="cls-1" points="877.1 178.1 860.4 266.8 771.6 266.8 877.1 178.1"/><polygon class="cls-1" points="1055.9 178.1 1039.1 266.8 950.3 266.8 1055.9 178.1"/><polygon class="cls-1" points="1144.6 178.1 1127.9 266.8 1039.1 266.8 1144.6 178.1"/><polygon class="cls-1" points="933.6 356 916.8 444.8 828.1 444.8 933.6 356"/><polygon class="cls-1" points="844.8 356 828.1 444.8 739.3 444.8 844.8 356"/><polygon class="cls-1" points="1023.6 356 1006.8 444.8 918.1 444.8 1023.6 356"/><polygon class="cls-1" points="1112.3 356 1095.6 444.8 1006.8 444.8 1112.3 356"/><polygon class="cls-1" points="901.3 533 884.6 621.8 795.8 621.8 901.3 533"/><polygon class="cls-1" points="812.5 533 795.8 621.8 707 621.8 812.5 533"/><polygon class="cls-1" points="991.3 533 974.5 621.8 885.8 621.8 991.3 533"/><polygon class="cls-1" points="1080.1 533 1063.3 621.8 974.5 621.8 1080.1 533"/></g></g></svg>