<svg xmlns="http://www.w3.org/2000/svg" viewBox="0 0 621.8 1527.9"><defs><style>.cls-1{fill:#edeaea;}</style></defs><title>eboardbgsm1</title><g id="Layer_2" data-name="Layer 2"><g id="Layer_1-2" data-name="Layer 1"><g id="Layer_1-2-2" data-name="Layer 1-2"><polygon class="cls-1" points="621.8 643.4 533 626.6 533 537.9 621.8 643.4"/><polygon class="cls-1" points="621.8 553.4 533 536.6 533 447.9 621.8 553.4"/><polygon class="cls-1" points="621.8 732.1 533 715.4 533 626.6 621.8 732.1"/><polygon class="cls-1" points="621.8 820.9 533 804.1 533 715.4 621.8 820.9"/><polygon class="cls-1" points="443.7 611.1 355 594.3 355 505.6 443.7 611.1"/><polygon class="cls-1" points="443.7 521.1 355 504.4 355 415.6 443.7 521.1"/><polygon class="cls-1" points="443.7 699.9 355 683.1 355 594.3 443.7 699.9"/><polygon class="cls-1" points="443.7 788.6 355 771.9 355 683.1 443.7 788.6"/><polygon class="cls-1" points="265.8 577.6 177 560.8 177 472.1 265.8 577.6"/><polygon class="cls-1" points="265.8 488.8 177 472.1 177 383.3 265.8 488.8"/><polygon class="cls-1" points="265.8 667.6 177 650.8 177 562.1 265.8 667.6"/><polygon class="cls-1" points="265.8 756.3 177 739.6 177 650.8 265.8 756.3"/><polygon class="cls-1" points="88.8 545.3 0 528.6 0 439.8 88.8 545.3"/><polygon class="cls-1" points="88.8 456.5 0 439.8 0 351 88.8 456.5"/><polygon class="cls-1" points="88.8 635.3 0 618.5 0 529.8 88.8 635.3"/><polygon class="cls-1" points="88.8 724.1 0 707.3 0 618.5 88.8 724.1"/><polygon class="cls-1" points="621.8 292.4 533 275.6 533 186.9 621.8 292.4"/><polygon class="cls-1" points="621.8 202.4 533 185.6 533 96.9 621.8 202.4"/><polygon class="cls-1" points="621.8 381.1 533 364.4 533 275.6 621.8 381.1"/><polygon class="cls-1" points="621.8 469.9 533 453.1 533 364.4 621.8 469.9"/><polygon class="cls-1" points="443.7 260.1 355 243.3 355 154.6 443.7 260.1"/><polygon class="cls-1" points="443.7 170.1 355 153.4 355 64.6 443.7 170.1"/><polygon class="cls-1" points="443.7 348.9 355 332.1 355 243.3 443.7 348.9"/><polygon class="cls-1" points="443.7 437.6 355 420.9 355 332.1 443.7 437.6"/><polygon class="cls-1" points="265.8 226.6 177 209.8 177 121.1 265.8 226.6"/><polygon class="cls-1" points="265.8 137.8 177 121.1 177 32.3 265.8 137.8"/><polygon class="cls-1" points="265.8 316.6 177 299.8 177 211.1 265.8 316.6"/><polygon class="cls-1" points="265.8 405.3 177 388.6 177 299.8 265.8 405.3"/><polygon class="cls-1" points="88.8 194.3 0 177.6 0 88.8 88.8 194.3"/><polygon class="cls-1" points="88.8 105.5 0 88.8 0 0 88.8 105.5"/><polygon class="cls-1" points="88.8 284.3 0 267.5 0 178.8 88.8 284.3"/><polygon class="cls-1" points="88.8 373.1 0 356.3 0 267.5 88.8 373.1"/><polygon class="cls-1" points="621.8 1350.4 533 1333.6 533 1244.9 621.8 1350.4"/><polygon class="cls-1" points="621.8 1260.4 533 1243.6 533 1154.9 621.8 1260.4"/><polygon class="cls-1" points="621.8 1439.1 533 1422.4 533 1333.6 621.8 1439.1"/><polygon class="cls-1" points="621.8 1527.9 533 1511.1 533 1422.4 621.8 1527.9"/><polygon class="cls-1" points="443.7 1318.1 355 1301.3 355 1212.6 443.7 1318.1"/><polygon class="cls-1" points="443.7 1228.1 355 1211.4 355 1122.6 443.7 1228.1"/><polygon class="cls-1" points="443.7 1406.9 355 1390.1 355 1301.3 443.7 1406.9"/><polygon class="cls-1" points="443.7 1495.6 355 1478.9 355 1390.1 443.7 1495.6"/><polygon class="cls-1" points="265.8 1284.6 177 1267.8 177 1179.1 265.8 1284.6"/><polygon class="cls-1" points="265.8 1195.8 177 1179.1 177 1090.3 265.8 1195.8"/><polygon class="cls-1" points="265.8 1374.6 177 1357.8 177 1269.1 265.8 1374.6"/><polygon class="cls-1" points="265.8 1463.3 177 1446.6 177 1357.8 265.8 1463.3"/><polygon class="cls-1" points="88.8 1252.3 0 1235.6 0 1146.8 88.8 1252.3"/><polygon class="cls-1" points="88.8 1163.5 0 1146.8 0 1058 88.8 1163.5"/><polygon class="cls-1" points="88.8 1342.3 0 1325.5 0 1236.8 88.8 1342.3"/><polygon class="cls-1" points="88.8 1431.1 0 1414.3 0 1325.5 88.8 1431.1"/><polygon class="cls-1" points="621.8 999.4 533 982.6 533 893.9 621.8 999.4"/><polygon class="cls-1" points="621.8 909.4 533 892.6 533 803.9 621.8 909.4"/><polygon class="cls-1" points="621.8 1088.1 533 1071.4 533 982.6 621.8 1088.1"/><polygon class="cls-1" points="621.8 1176.9 533 1160.1 533 1071.4 621.8 1176.9"/><polygon class="cls-1" points="443.7 967.1 355 950.3 355 861.6 443.7 967.1"/><polygon class="cls-1" points="443.7 877.1 355 860.4 355 771.6 443.7 877.1"/><polygon class="cls-1" points="443.7 1055.9 355 1039.1 355 950.3 443.7 1055.9"/><polygon class="cls-1" points="443.7 1144.6 355 1127.9 355 1039.1 443.7 1144.6"/><polygon class="cls-1" points="265.8 933.6 177 916.8 177 828.1 265.8 933.6"/><polygon class="cls-1" points="265.8 844.8 177 828.1 177 739.3 265.8 844.8"/><polygon class="cls-1" points="265.8 1023.6 177 1006.8 177 918.1 265.8 1023.6"/><polygon class="cls-1" points="265.8 1112.3 177 1095.6 177 1006.8 265.8 1112.3"/><polygon class="cls-1" points="88.8 901.3 0 884.6 0 795.8 88.8 901.3"/><polygon class="cls-1" points="88.8 812.5 0 795.8 0 707 88.8 812.5"/><polygon class="cls-1" points="88.8 991.3 0 974.5 0 885.8 88.8 991.3"/><polygon class="cls-1" points="88.8 1080.1 0 1063.3 0 974.5 88.8 1080.1"/></g></g></g></svg>