<svg id="Capa_1" data-name="Capa 1" xmlns="http://www.w3.org/2000/svg" xmlns:xlink="http://www.w3.org/1999/xlink" viewBox="0 0 512 384"><defs><style>.cls-1{fill:#2f0e47;}.cls-2{fill:#f2f2f2;}.cls-3{fill:#fafafa;}.cls-4{opacity:0.62;fill:url(#linear-gradient);}</style><linearGradient id="linear-gradient" x1="-309.9096" y1="541.0179" x2="-291.6954" y2="559.2321" gradientTransform="translate(6750.6572 -11619.3648) scale(21.3333)" gradientUnits="userSpaceOnUse"><stop offset="0" stop-opacity="0.2"/><stop offset="1" stop-opacity="0"/></linearGradient></defs><title>email</title><path class="cls-1" d="M469.333,2.2986H42.667A42.7085,42.7085,0,0,0,0,44.9656V343.6325a42.7083,42.7083,0,0,0,42.667,42.6661H469.334A42.7083,42.7083,0,0,0,512,343.6316V44.9656A42.7085,42.7085,0,0,0,469.333,2.2986Z" transform="translate(0 -2.2986)"/><path class="cls-2" d="M320.322,193.5236c55.418-50.393,140.868-128.57,169.151-154.456a20.6132,20.6132,0,0,1,1.194,5.897v298.667a20.601,20.601,0,0,1-1.126,5.56C461.033,322.0046,375.556,240.9656,320.322,193.5236Z" transform="translate(0 -2.2986)"/><path class="cls-3" d="M469.333,23.6316a19.9291,19.9291,0,0,1,4.432.9162C436.826,59.0816,314.342,173.5424,271.479,212.9916c-3.354,3.0859-8.76,6.7674-15.479,6.7674s-12.125-3.6815-15.49-6.7776C197.652,173.5383,75.161,59.0714,38.228,24.55a20.0092,20.0092,0,0,1,4.439-.9173H469.333Z" transform="translate(0 -2.2986)"/><path class="cls-2" d="M22.46,349.1916a20.5629,20.5629,0,0,1-1.126-5.56V44.9656a20.6064,20.6064,0,0,1,1.194-5.896C50.8,64.9456,136.264,143.13,191.68,193.5226,136.443,240.97,50.957,322.0176,22.46,349.1916Z" transform="translate(0 -2.2986)"/><path class="cls-3" d="M42.667,364.9656a20.405,20.405,0,0,1-4.81-.974c29.447-28.072,115.477-109.586,169.742-156.0091,7.074,6.417,13.536,12.2681,18.63,16.8581,8.792,7.9379,19.083,12.125,29.771,12.125s20.979-4.188,29.76-12.115c5.096-4.592,11.563-10.448,18.641-16.8681,54.268,46.418,140.286,127.926,169.742,156.0091a20.3846,20.3846,0,0,1-4.81.974Z" transform="translate(0 -2.2986)"/><path class="cls-4" d="M183.807,200.3476c2.663-2.318,5.329-4.642,7.872-6.826-55.417-50.393-140.88-128.577-169.152-154.453ZM489.473,39.0686c-28.283,25.885-113.733,104.062-169.151,154.455,55.234,47.441,140.711,128.48,169.219,155.668a20.5629,20.5629,0,0,0,1.126-5.56V44.9656A20.6472,20.6472,0,0,0,489.473,39.0686ZM285.76,224.8506c-8.781,7.927-19.073,12.115-29.76,12.115s-20.979-4.188-29.771-12.125c-5.094-4.59-11.556-10.4411-18.63-16.8581-2.793,2.3891-5.72,4.926-8.669,7.49L348.425,364.9656H469.334a20.3846,20.3846,0,0,0,4.81-.974C444.688,335.9085,358.67,254.4005,304.402,207.9825,297.323,214.4026,290.857,220.2586,285.76,224.8506Z" transform="translate(0 -2.2986)"/></svg>