<svg id="Layer_1" data-name="Layer 1" xmlns="http://www.w3.org/2000/svg" viewBox="0 0 751.54 417.55"><title>fadslogo</title><path d="M427.45,485.06c36.75-6.1,68.26-19.43,93.63-40.11,50.79,63.79,171.59,77.35,225,14.3C788.67,409,781.91,345,730,304.78c-21.24-16.48-45.86-25.36-70.83-34.17-17.18-6.07-34.59-13-49.76-22.85-21-13.6-26.72-36.66-18.16-60.29,9.16-25.26,27.72-39.84,54.16-41.89,25.81-2,45,10.48,58.2,32.55,1.91,3.18,6,7.9,8.34,7.5,16.64-2.85,33.08-6.84,50-10.58-12.83-53-70.54-95.64-133.88-84.71-34.95,6-66.6,29.4-83.75,61.62C518.6,121.21,482.87,98.87,440,88.55,399.71,78.83,312.57,84,253,84.64l-230.5.54V491.53H76.59a6.41,6.41,0,0,0,.89,0c18.58.27,39.42.48,55.23-.11,2.71-.11,6.25-4.24,7.7-7.32,8-17,15.63-34.1,23.06-51.32,2.22-5.14,4.67-7.85,11-7.82,52.46.29,104.92,0,157.38.45,3.5,0,8.55,3.35,10.18,6.53,6.59,12.81,13.18,25.8,17.76,39.4,2,6,4.46,10.73,7.66,14.25M76.59,475.86V314.66h71.54C123.93,368.1,99.89,421.6,76.59,475.86Zm96.64-216.6H77.13v-122h145q1.05,3.87,2.23,7.74Q199.06,202.56,173.23,259.26Zm14.5,120.37c21.64-53.57,43-106.42,65.67-162.57l64.66,162.57Zm345.53-71.07c-3.5,32.06-15.48,60.59-38.4,84.08-26.14,26.79-52.28,45.32-88,48.1-43.47-101.19-87.09-200.42-130.57-301.53,46.51-1.11,150.4-4.52,186.53,15.76C521.3,187.76,540.05,246.36,533.26,308.56Zm185.1,85.26c-4,28.73-31.72,50.68-62.64,55.17-36.7,5.32-78.7-22.31-96.52-48.08a209.94,209.94,0,0,0,21.67-49.83,222.92,222.92,0,0,0,8.59-50.38c15.52,9.07,32.43,15.17,49.82,20.22,20.89,6.06,41.6,12.65,58.66,26.83C711.54,359.05,720.91,375.69,718.36,393.82Z" transform="translate(-22.46 -82.68)"/></svg>