<svg xmlns="http://www.w3.org/2000/svg" xmlns:xlink="http://www.w3.org/1999/xlink" width="1366" height="505.625" viewBox="0 0 1366 505.625"><defs><clipPath id="a"><path d="M0,0H1366V505.625H0Z" transform="translate(0 5347)" fill="none"/></clipPath></defs><g transform="translate(0 -5347)" clip-path="url(#a)"><g transform="translate(-98.944 5346.826)"><rect width="1246" height="506" transform="translate(98.944 0.174)" fill="#ece7f0"/><path d="M0,0,120.157,110.181V512.93L0,504.991Z" transform="translate(1344.944 0.174)" fill="#d0c7d8"/><path d="M50.835,46.482,110.041-4.924-.28,6.365Z" transform="matrix(0.766, -0.643, 0.643, 0.766, 1221.252, 334.352)" fill="#e8e4eb"/><path d="M50.835,46.482,110.041-4.924-.28,6.365Z" transform="matrix(0.766, -0.643, 0.643, 0.766, 1085.271, 333.508)" fill="#e8e4eb"/><path d="M50.835,46.482,110.041-4.924-.28,6.365Z" transform="matrix(0.766, -0.643, 0.643, 0.766, 946.045, 334.47)" fill="#e8e4eb"/><path d="M50.835,46.482,110.041-4.924-.28,6.365Z" transform="matrix(0.766, -0.643, 0.643, 0.766, 810.065, 333.626)" fill="#e8e4eb"/><path d="M50.835,46.482,110.041-4.924-.28,6.365Z" transform="matrix(0.766, -0.643, 0.643, 0.766, 1235.128, 248.228)" fill="#e8e4eb"/><path d="M50.835,46.482,110.041-4.924-.28,6.365Z" transform="matrix(0.766, -0.643, 0.643, 0.766, 1099.147, 247.383)" fill="#e8e4eb"/><path d="M50.835,46.482,110.041-4.924-.28,6.365Z" transform="matrix(0.766, -0.643, 0.643, 0.766, 959.921, 248.346)" fill="#e8e4eb"/><path d="M50.835,46.482,110.041-4.924-.28,6.365Z" transform="matrix(0.766, -0.643, 0.643, 0.766, 823.94, 247.501)" fill="#e8e4eb"/><path d="M50.835,46.482,110.041-4.924-.28,6.365Z" transform="matrix(0.766, -0.643, 0.643, 0.766, 1249.105, 161.474)" fill="#e8e4eb"/><path d="M50.835,46.482,110.041-4.924-.28,6.365Z" transform="matrix(0.766, -0.643, 0.643, 0.766, 1113.124, 160.63)" fill="#e8e4eb"/><path d="M50.835,46.482,110.041-4.924-.28,6.365Z" transform="matrix(0.766, -0.643, 0.643, 0.766, 973.898, 161.592)" fill="#e8e4eb"/><path d="M50.835,46.482,110.041-4.924-.28,6.365Z" transform="matrix(0.766, -0.643, 0.643, 0.766, 837.918, 160.748)" fill="#e8e4eb"/><path d="M50.835,46.482,110.041-4.924-.28,6.365Z" transform="matrix(0.766, -0.643, 0.643, 0.766, 1262.981, 75.35)" fill="#e8e4eb"/><path d="M50.835,46.482,110.041-4.924-.28,6.365Z" transform="matrix(0.766, -0.643, 0.643, 0.766, 1127, 74.505)" fill="#e8e4eb"/><path d="M50.835,46.482,110.041-4.924-.28,6.365Z" transform="matrix(0.766, -0.643, 0.643, 0.766, 987.774, 75.468)" fill="#e8e4eb"/><path d="M50.835,46.482,110.041-4.924-.28,6.365Z" transform="matrix(0.766, -0.643, 0.643, 0.766, 851.793, 74.624)" fill="#e8e4eb"/><path d="M50.835,46.482,110.041-4.924-.28,6.365Z" transform="matrix(0.766, -0.643, 0.643, 0.766, 1151.252, 334.352)" fill="#e8e4eb"/><path d="M50.835,46.482,110.041-4.924-.28,6.365Z" transform="matrix(0.766, -0.643, 0.643, 0.766, 1015.271, 333.508)" fill="#e8e4eb"/><path d="M50.835,46.482,110.041-4.924-.28,6.365Z" transform="matrix(0.766, -0.643, 0.643, 0.766, 876.045, 334.47)" fill="#e8e4eb"/><path d="M50.835,46.482,110.041-4.924-.28,6.365Z" transform="matrix(0.766, -0.643, 0.643, 0.766, 740.064, 333.626)" fill="#e8e4eb"/><path d="M50.835,46.482,110.041-4.924-.28,6.365Z" transform="matrix(0.766, -0.643, 0.643, 0.766, 1165.128, 248.228)" fill="#e8e4eb"/><path d="M50.835,46.482,110.041-4.924-.28,6.365Z" transform="matrix(0.766, -0.643, 0.643, 0.766, 1029.147, 247.383)" fill="#e8e4eb"/><path d="M50.835,46.482,110.041-4.924-.28,6.365Z" transform="matrix(0.766, -0.643, 0.643, 0.766, 889.921, 248.346)" fill="#e8e4eb"/><path d="M50.835,46.482,110.041-4.924-.28,6.365Z" transform="matrix(0.766, -0.643, 0.643, 0.766, 753.94, 247.501)" fill="#e8e4eb"/><path d="M50.835,46.482,110.041-4.924-.28,6.365Z" transform="matrix(0.766, -0.643, 0.643, 0.766, 1179.105, 161.474)" fill="#e8e4eb"/><path d="M50.835,46.482,110.041-4.924-.28,6.365Z" transform="matrix(0.766, -0.643, 0.643, 0.766, 1043.124, 160.63)" fill="#e8e4eb"/><path d="M50.835,46.482,110.041-4.924-.28,6.365Z" transform="matrix(0.766, -0.643, 0.643, 0.766, 903.898, 161.592)" fill="#e8e4eb"/><path d="M50.835,46.482,110.041-4.924-.28,6.365Z" transform="matrix(0.766, -0.643, 0.643, 0.766, 767.917, 160.748)" fill="#e8e4eb"/><path d="M50.835,46.482,110.041-4.924-.28,6.365Z" transform="matrix(0.766, -0.643, 0.643, 0.766, 1192.981, 75.35)" fill="#e8e4eb"/><path d="M50.835,46.482,110.041-4.924-.28,6.365Z" transform="matrix(0.766, -0.643, 0.643, 0.766, 1057, 74.505)" fill="#e8e4eb"/><path d="M50.835,46.482,110.041-4.924-.28,6.365Z" transform="matrix(0.766, -0.643, 0.643, 0.766, 917.774, 75.468)" fill="#e8e4eb"/><path d="M50.835,46.482,110.041-4.924-.28,6.365Z" transform="matrix(0.766, -0.643, 0.643, 0.766, 781.793, 74.624)" fill="#e8e4eb"/><path d="M50.835,46.482,110.041-4.924-.28,6.365Z" transform="matrix(0.766, -0.643, 0.643, 0.766, 681.252, 334.352)" fill="#e8e4eb"/><path d="M50.835,46.482,110.041-4.924-.28,6.365Z" transform="matrix(0.766, -0.643, 0.643, 0.766, 545.271, 333.508)" fill="#e8e4eb"/><path d="M50.835,46.482,110.041-4.924-.28,6.365Z" transform="matrix(0.766, -0.643, 0.643, 0.766, 406.045, 334.47)" fill="#e8e4eb"/><path d="M50.835,46.482,110.041-4.924-.28,6.365Z" transform="matrix(0.766, -0.643, 0.643, 0.766, 270.064, 333.626)" fill="#e8e4eb"/><path d="M50.835,46.482,110.041-4.924-.28,6.365Z" transform="matrix(0.766, -0.643, 0.643, 0.766, 695.128, 248.228)" fill="#e8e4eb"/><path d="M50.835,46.482,110.041-4.924-.28,6.365Z" transform="matrix(0.766, -0.643, 0.643, 0.766, 559.147, 247.383)" fill="#e8e4eb"/><path d="M50.835,46.482,110.041-4.924-.28,6.365Z" transform="matrix(0.766, -0.643, 0.643, 0.766, 419.921, 248.346)" fill="#e8e4eb"/><path d="M50.835,46.482,110.041-4.924-.28,6.365Z" transform="matrix(0.766, -0.643, 0.643, 0.766, 283.94, 247.501)" fill="#e8e4eb"/><path d="M50.835,46.482,110.041-4.924-.28,6.365Z" transform="matrix(0.766, -0.643, 0.643, 0.766, 709.105, 161.474)" fill="#e8e4eb"/><path d="M50.835,46.482,110.041-4.924-.28,6.365Z" transform="matrix(0.766, -0.643, 0.643, 0.766, 573.124, 160.63)" fill="#e8e4eb"/><path d="M50.835,46.482,110.041-4.924-.28,6.365Z" transform="matrix(0.766, -0.643, 0.643, 0.766, 433.898, 161.592)" fill="#e8e4eb"/><path d="M50.835,46.482,110.041-4.924-.28,6.365Z" transform="matrix(0.766, -0.643, 0.643, 0.766, 297.917, 160.748)" fill="#e8e4eb"/><path d="M50.835,46.482,110.041-4.924-.28,6.365Z" transform="matrix(0.766, -0.643, 0.643, 0.766, 722.981, 75.35)" fill="#e8e4eb"/><path d="M50.835,46.482,110.041-4.924-.28,6.365Z" transform="matrix(0.766, -0.643, 0.643, 0.766, 587, 74.505)" fill="#e8e4eb"/><path d="M50.835,46.482,110.041-4.924-.28,6.365Z" transform="matrix(0.766, -0.643, 0.643, 0.766, 447.774, 75.468)" fill="#e8e4eb"/><path d="M50.835,46.482,110.041-4.924-.28,6.365Z" transform="matrix(0.766, -0.643, 0.643, 0.766, 311.793, 74.624)" fill="#e8e4eb"/><path d="M50.835,46.482,110.041-4.924-.28,6.365Z" transform="matrix(0.766, -0.643, 0.643, 0.766, 621.252, 334.352)" fill="#e8e4eb"/><path d="M50.835,46.482,110.041-4.924-.28,6.365Z" transform="matrix(0.766, -0.643, 0.643, 0.766, 485.271, 333.508)" fill="#e8e4eb"/><path d="M50.835,46.482,110.041-4.924-.28,6.365Z" transform="matrix(0.766, -0.643, 0.643, 0.766, 346.045, 334.47)" fill="#e8e4eb"/><path d="M50.835,46.482,110.041-4.924-.28,6.365Z" transform="matrix(0.766, -0.643, 0.643, 0.766, 210.064, 333.626)" fill="#e8e4eb"/><path d="M50.835,46.482,110.041-4.924-.28,6.365Z" transform="matrix(0.766, -0.643, 0.643, 0.766, 635.128, 248.228)" fill="#e8e4eb"/><path d="M50.835,46.482,110.041-4.924-.28,6.365Z" transform="matrix(0.766, -0.643, 0.643, 0.766, 499.147, 247.383)" fill="#e8e4eb"/><path d="M50.835,46.482,110.041-4.924-.28,6.365Z" transform="matrix(0.766, -0.643, 0.643, 0.766, 359.921, 248.346)" fill="#e8e4eb"/><path d="M50.835,46.482,110.041-4.924-.28,6.365Z" transform="matrix(0.766, -0.643, 0.643, 0.766, 223.94, 247.501)" fill="#e8e4eb"/><path d="M50.835,46.482,110.041-4.924-.28,6.365Z" transform="matrix(0.766, -0.643, 0.643, 0.766, 649.105, 161.474)" fill="#e8e4eb"/><path d="M50.835,46.482,110.041-4.924-.28,6.365Z" transform="matrix(0.766, -0.643, 0.643, 0.766, 513.124, 160.63)" fill="#e8e4eb"/><path d="M50.835,46.482,110.041-4.924-.28,6.365Z" transform="matrix(0.766, -0.643, 0.643, 0.766, 373.898, 161.592)" fill="#e8e4eb"/><path d="M50.835,46.482,110.041-4.924-.28,6.365Z" transform="matrix(0.766, -0.643, 0.643, 0.766, 237.917, 160.748)" fill="#e8e4eb"/><path d="M50.835,46.482,110.041-4.924-.28,6.365Z" transform="matrix(0.766, -0.643, 0.643, 0.766, 662.981, 75.35)" fill="#e8e4eb"/><path d="M50.835,46.482,110.041-4.924-.28,6.365Z" transform="matrix(0.766, -0.643, 0.643, 0.766, 527, 74.505)" fill="#e8e4eb"/><path d="M50.835,46.482,110.041-4.924-.28,6.365Z" transform="matrix(0.766, -0.643, 0.643, 0.766, 387.774, 75.468)" fill="#e8e4eb"/><path d="M50.835,46.482,110.041-4.924-.28,6.365Z" transform="matrix(0.766, -0.643, 0.643, 0.766, 251.793, 74.624)" fill="#e8e4eb"/><path d="M50.835,46.482,110.041-4.924-.28,6.365Z" transform="matrix(0.766, -0.643, 0.643, 0.766, 151.252, 334.352)" fill="#e8e4eb"/><path d="M50.835,46.482,110.041-4.924-.28,6.365Z" transform="matrix(0.766, -0.643, 0.643, 0.766, 15.271, 333.508)" fill="#e8e4eb"/><path d="M50.835,46.482,110.041-4.924-.28,6.365Z" transform="matrix(0.766, -0.643, 0.643, 0.766, 165.128, 248.228)" fill="#e8e4eb"/><path d="M50.835,46.482,110.041-4.924-.28,6.365Z" transform="matrix(0.766, -0.643, 0.643, 0.766, 29.147, 247.383)" fill="#e8e4eb"/><path d="M50.835,46.482,110.041-4.924-.28,6.365Z" transform="matrix(0.766, -0.643, 0.643, 0.766, 179.105, 161.474)" fill="#e8e4eb"/><path d="M50.835,46.482,110.041-4.924-.28,6.365Z" transform="matrix(0.766, -0.643, 0.643, 0.766, 43.124, 160.63)" fill="#e8e4eb"/><path d="M50.835,46.482,110.041-4.924-.28,6.365Z" transform="matrix(0.766, -0.643, 0.643, 0.766, 192.981, 75.35)" fill="#e8e4eb"/><path d="M50.835,46.482,110.041-4.924-.28,6.365Z" transform="matrix(0.766, -0.643, 0.643, 0.766, 57, 74.505)" fill="#e8e4eb"/><path d="M50.835,46.482,110.041-4.924-.28,6.365Z" transform="matrix(0.766, -0.643, 0.643, 0.766, 94.252, 334.352)" fill="#e8e4eb"/><path d="M50.835,46.482,110.041-4.924-.28,6.365Z" transform="matrix(0.766, -0.643, 0.643, 0.766, 108.128, 248.228)" fill="#e8e4eb"/><path d="M50.835,46.482,110.041-4.924-.28,6.365Z" transform="matrix(0.766, -0.643, 0.643, 0.766, 122.105, 161.474)" fill="#e8e4eb"/><path d="M50.835,46.482,110.041-4.924-.28,6.365Z" transform="matrix(0.766, -0.643, 0.643, 0.766, 135.981, 75.35)" fill="#e8e4eb"/><path d="M50.835,46.482,110.041-4.924-.28,6.365Z" transform="matrix(0.766, -0.643, 0.643, 0.766, 0, 74.505)" fill="#e8e4eb"/><path d="M50.835,46.482,110.041-4.924-.28,6.365Z" transform="matrix(0.766, -0.643, 0.643, 0.766, 1195.105, 497.463)" fill="#e8e4eb"/><path d="M50.835,46.482,110.041-4.924-.28,6.365Z" transform="matrix(0.766, -0.643, 0.643, 0.766, 1059.124, 496.618)" fill="#e8e4eb"/><path d="M50.835,46.482,110.041-4.924-.28,6.365Z" transform="matrix(0.766, -0.643, 0.643, 0.766, 919.898, 497.581)" fill="#e8e4eb"/><path d="M50.835,46.482,110.041-4.924-.28,6.365Z" transform="matrix(0.766, -0.643, 0.643, 0.766, 783.917, 496.737)" fill="#e8e4eb"/><path d="M50.835,46.482,110.041-4.924-.28,6.365Z" transform="matrix(0.766, -0.643, 0.643, 0.766, 1208.981, 411.338)" fill="#e8e4eb"/><path d="M50.835,46.482,110.041-4.924-.28,6.365Z" transform="matrix(0.766, -0.643, 0.643, 0.766, 1073, 410.494)" fill="#e8e4eb"/><path d="M50.835,46.482,110.041-4.924-.28,6.365Z" transform="matrix(0.766, -0.643, 0.643, 0.766, 933.774, 411.456)" fill="#e8e4eb"/><path d="M50.835,46.482,110.041-4.924-.28,6.365Z" transform="matrix(0.766, -0.643, 0.643, 0.766, 797.793, 410.612)" fill="#e8e4eb"/><path d="M50.835,46.482,110.041-4.924-.28,6.365Z" transform="matrix(0.766, -0.643, 0.643, 0.766, 1125.105, 497.463)" fill="#e8e4eb"/><path d="M50.835,46.482,110.041-4.924-.28,6.365Z" transform="matrix(0.766, -0.643, 0.643, 0.766, 989.124, 496.618)" fill="#e8e4eb"/><path d="M50.835,46.482,110.041-4.924-.28,6.365Z" transform="matrix(0.766, -0.643, 0.643, 0.766, 849.898, 497.581)" fill="#e8e4eb"/><path d="M50.835,46.482,110.041-4.924-.28,6.365Z" transform="matrix(0.766, -0.643, 0.643, 0.766, 713.917, 496.737)" fill="#e8e4eb"/><path d="M50.835,46.482,110.041-4.924-.28,6.365Z" transform="matrix(0.766, -0.643, 0.643, 0.766, 1138.981, 411.338)" fill="#e8e4eb"/><path d="M50.835,46.482,110.041-4.924-.28,6.365Z" transform="matrix(0.766, -0.643, 0.643, 0.766, 1003, 410.494)" fill="#e8e4eb"/><path d="M50.835,46.482,110.041-4.924-.28,6.365Z" transform="matrix(0.766, -0.643, 0.643, 0.766, 863.774, 411.456)" fill="#e8e4eb"/><path d="M50.835,46.482,110.041-4.924-.28,6.365Z" transform="matrix(0.766, -0.643, 0.643, 0.766, 727.793, 410.612)" fill="#e8e4eb"/><path d="M50.835,46.482,110.041-4.924-.28,6.365Z" transform="matrix(0.766, -0.643, 0.643, 0.766, 655.105, 497.463)" fill="#e8e4eb"/><path d="M50.835,46.482,110.041-4.924-.28,6.365Z" transform="matrix(0.766, -0.643, 0.643, 0.766, 519.124, 496.618)" fill="#e8e4eb"/><path d="M50.835,46.482,110.041-4.924-.28,6.365Z" transform="matrix(0.766, -0.643, 0.643, 0.766, 379.898, 497.581)" fill="#e8e4eb"/><path d="M50.835,46.482,110.041-4.924-.28,6.365Z" transform="matrix(0.766, -0.643, 0.643, 0.766, 243.917, 496.737)" fill="#e8e4eb"/><path d="M50.835,46.482,110.041-4.924-.28,6.365Z" transform="matrix(0.766, -0.643, 0.643, 0.766, 668.981, 411.338)" fill="#e8e4eb"/><path d="M50.835,46.482,110.041-4.924-.28,6.365Z" transform="matrix(0.766, -0.643, 0.643, 0.766, 533, 410.494)" fill="#e8e4eb"/><path d="M50.835,46.482,110.041-4.924-.28,6.365Z" transform="matrix(0.766, -0.643, 0.643, 0.766, 393.774, 411.456)" fill="#e8e4eb"/><path d="M50.835,46.482,110.041-4.924-.28,6.365Z" transform="matrix(0.766, -0.643, 0.643, 0.766, 257.793, 410.612)" fill="#e8e4eb"/><path d="M50.835,46.482,110.041-4.924-.28,6.365Z" transform="matrix(0.766, -0.643, 0.643, 0.766, 595.105, 497.463)" fill="#e8e4eb"/><path d="M50.835,46.482,110.041-4.924-.28,6.365Z" transform="matrix(0.766, -0.643, 0.643, 0.766, 459.124, 496.618)" fill="#e8e4eb"/><path d="M50.835,46.482,110.041-4.924-.28,6.365Z" transform="matrix(0.766, -0.643, 0.643, 0.766, 319.898, 497.581)" fill="#e8e4eb"/><path d="M50.835,46.482,110.041-4.924-.28,6.365Z" transform="matrix(0.766, -0.643, 0.643, 0.766, 183.917, 496.737)" fill="#e8e4eb"/><path d="M50.835,46.482,110.041-4.924-.28,6.365Z" transform="matrix(0.766, -0.643, 0.643, 0.766, 608.981, 411.338)" fill="#e8e4eb"/><path d="M50.835,46.482,110.041-4.924-.28,6.365Z" transform="matrix(0.766, -0.643, 0.643, 0.766, 473, 410.494)" fill="#e8e4eb"/><path d="M50.835,46.482,110.041-4.924-.28,6.365Z" transform="matrix(0.766, -0.643, 0.643, 0.766, 333.774, 411.456)" fill="#e8e4eb"/><path d="M50.835,46.482,110.041-4.924-.28,6.365Z" transform="matrix(0.766, -0.643, 0.643, 0.766, 197.793, 410.612)" fill="#e8e4eb"/><path d="M50.835,46.482,110.041-4.924-.28,6.365Z" transform="matrix(0.766, -0.643, 0.643, 0.766, 125.105, 497.463)" fill="#e8e4eb"/><path d="M50.835,46.482,110.041-4.924-.28,6.365Z" transform="matrix(0.766, -0.643, 0.643, 0.766, 138.981, 411.338)" fill="#e8e4eb"/><path d="M50.835,46.482,110.041-4.924-.28,6.365Z" transform="matrix(0.766, -0.643, 0.643, 0.766, 3, 410.494)" fill="#e8e4eb"/><path d="M50.835,46.482,110.041-4.924-.28,6.365Z" transform="matrix(0.766, -0.643, 0.643, 0.766, 68.105, 497.463)" fill="#e8e4eb"/><path d="M50.835,46.482,110.041-4.924-.28,6.365Z" transform="matrix(0.766, -0.643, 0.643, 0.766, 81.981, 411.338)" fill="#e8e4eb"/></g></g></svg>