<svg xmlns="http://www.w3.org/2000/svg" viewBox="0 0 2.2397 2.1337"><defs><style>.cls-1{fill:#625077;}</style></defs><title>instagram</title><g id="Layer_2" data-name="Layer 2"><g id="Layer_1-2" data-name="Layer 1"><path id="Icon_awesome-instagram" data-name="Icon awesome-instagram" class="cls-1" d="M1.12.5312a.5607.5607,0,0,0-.5741.5549.5686.5686,0,0,0,.5659.5392.5615.5615,0,0,0,.5823-.547A.56.56,0,0,0,1.122.5312Zm0,.8913a.3646.3646,0,0,1-.373-.3555A.3646.3646,0,0,1,1.12.7116a.3646.3646,0,0,1,.373.3554h0A.3655.3655,0,0,1,1.12,1.4225Zm.6906-.925a.1341.1341,0,0,1-.2679,0A.131.131,0,0,1,1.6768.37h0a.13.13,0,0,1,.1339.1263Zm.4212.1294A.615.615,0,0,0,2.051.18.6856.6856,0,0,0,1.5818.0075c-.1849-.01-.739-.01-.9236,0A.6844.6844,0,0,0,.1888.1794a.6169.6169,0,0,0-.1809.447c-.01.1762-.01.7042,0,.88a.6147.6147,0,0,0,.1809.4473.6867.6867,0,0,0,.4689.1724c.1849.01.7389.01.9236,0A.6808.6808,0,0,0,2.05,1.9538a.6189.6189,0,0,0,.1809-.4471C2.2424,1.3306,2.2424.8031,2.2319.6269ZM1.993,1.6958a.37.37,0,0,1-.2132.2031,2.5875,2.5875,0,0,1-.66.0428,2.6088,2.6088,0,0,1-.66-.0428.37.37,0,0,1-.2131-.2031,2.2422,2.2422,0,0,1-.045-.6289A2.2629,2.2629,0,0,1,.2467.438.3693.3693,0,0,1,.46.2349,2.5875,2.5875,0,0,1,1.12.1921a2.6085,2.6085,0,0,1,.66.0428A.3692.3692,0,0,1,1.993.438a2.2454,2.2454,0,0,1,.0449.6289A2.2409,2.2409,0,0,1,1.993,1.6958Z"/></g></g></svg>