<svg id="Layer_1" data-name="Layer 1" xmlns="http://www.w3.org/2000/svg" viewBox="0 0 340 340"><title>instagramdark</title><path d="M248.34.9085H92.4094A92.1383,92.1383,0,0,0,.3745,92.9434V248.8761a92.1378,92.1378,0,0,0,92.0349,92.0324H248.3422a92.1372,92.1372,0,0,0,92.0323-92.0324V92.9434A92.1383,92.1383,0,0,0,248.34.9085Zm70.1585,246.9576a71.2479,71.2479,0,0,1-71.1685,71.166H93.42a71.2479,71.2479,0,0,1-71.1686-71.166V93.9534A71.2484,71.2484,0,0,1,93.42,22.7848H247.3321a71.2479,71.2479,0,0,1,71.166,71.1686Z" transform="translate(-0.3745 -0.9085)" fill="#2f1247"/><path d="M170.3745,77.9423a92.9662,92.9662,0,1,0,92.9662,92.9662A93.07,93.07,0,0,0,170.3745,77.9423Zm0,166a73.0339,73.0339,0,1,1,73.0339-73.0339A73.1174,73.1174,0,0,1,170.3745,243.9424Z" transform="translate(-0.3745 -0.9085)" fill="#2f1247"/><path d="M265.89,49.2709a23.129,23.129,0,1,0,22.802,23.4515A23.1537,23.1537,0,0,0,265.89,49.2709Zm-.3268,37.39A14.4868,14.4868,0,1,1,280.05,72.1739,14.4867,14.4867,0,0,1,265.5629,86.6606Z" transform="translate(-0.3745 -0.9085)" fill="#2f1247"/></svg>