<svg xmlns="http://www.w3.org/2000/svg" width="25.22" height="25.214" viewBox="0 0 25.22 25.214">
  <path id="Icon_awesome-instagram" data-name="Icon awesome-instagram" d="M12.607,8.38a6.465,6.465,0,1,0,6.465,6.465A6.454,6.454,0,0,0,12.607,8.38Zm0,10.667a4.2,4.2,0,1,1,4.2-4.2A4.21,4.21,0,0,1,12.607,19.047ZM20.844,8.116a1.508,1.508,0,1,1-1.508-1.508A1.5,1.5,0,0,1,20.844,8.116Zm4.282,1.53a7.462,7.462,0,0,0-2.037-5.283,7.511,7.511,0,0,0-5.283-2.037c-2.082-.118-8.321-.118-10.4,0A7.5,7.5,0,0,0,2.12,4.357,7.486,7.486,0,0,0,.083,9.64c-.118,2.082-.118,8.321,0,10.4A7.462,7.462,0,0,0,2.12,25.326,7.52,7.52,0,0,0,7.4,27.363c2.082.118,8.321.118,10.4,0a7.462,7.462,0,0,0,5.283-2.037,7.511,7.511,0,0,0,2.037-5.283C25.244,17.962,25.244,11.728,25.126,9.646ZM22.436,22.277a4.255,4.255,0,0,1-2.4,2.4c-1.66.658-5.6.506-7.432.506s-5.778.146-7.432-.506a4.255,4.255,0,0,1-2.4-2.4c-.658-1.66-.506-5.6-.506-7.432s-.146-5.778.506-7.432a4.255,4.255,0,0,1,2.4-2.4c1.66-.658,5.6-.506,7.432-.506s5.778-.146,7.432.506a4.255,4.255,0,0,1,2.4,2.4c.658,1.66.506,5.6.506,7.432S23.095,20.623,22.436,22.277Z" transform="translate(0.005 -2.238)" fill="#6b3d90"/>
</svg>
