<svg xmlns="http://www.w3.org/2000/svg" viewBox="0 0 2.4725 2.355"><defs><style>.cls-1{fill:#625077;}</style></defs><title>linkedin</title><g id="Layer_2" data-name="Layer 2"><g id="Layer_1-2" data-name="Layer 1"><path id="Icon_awesome-linkedin-in" data-name="Icon awesome-linkedin-in" class="cls-1" d="M.5594,2.3549H.0559V.7246H.5594ZM.2941.5727A.2919.2919,0,0,1,0,.285.29.29,0,0,1,.2941,0,.29.29,0,0,1,.5883.285h0A.2919.2919,0,0,1,.2941.5727ZM2.4714,2.3549H1.969V1.5836c0-.1839-.004-.42-.2806-.42-.2806,0-.3235.2-.3235.4063v.7847H.8614V.7246h.5035v.2877h.0072a.5483.5483,0,0,1,.4856-.251c.5193,0,.6148.3217.6148.74v.854Z"/></g></g></svg>