<?xml version="1.0" encoding="utf-8"?>
<!-- Generator: Adobe Illustrator 23.1.1, SVG Export Plug-In . SVG Version: 6.00 Build 0)  -->
<svg version="1.1" id="Layer_1" xmlns="http://www.w3.org/2000/svg" xmlns:xlink="http://www.w3.org/1999/xlink" x="0px" y="0px"
	 viewBox="0 0 344.8 340" style="enable-background:new 0 0 344.8 340;" xml:space="preserve">
<style type="text/css">
	.st0{fill:#2F0E47;}
	.st1{fill:url(#SVGID_1_);}
	.st2{opacity:0.66;fill:url(#SVGID_2_);enable-background:new    ;}
	.st3{fill:url(#SVGID_3_);}
	.st4{fill:#FFFFFF;}
</style>
<title>linkedinDark</title>
<g>
	<path class="st0" d="M282,333.6c-73.3,7.8-147.2,7.8-220.3,0c-29.3-3.1-52.4-26-55.6-55c-5.2-72.7-6.2-144.7,0-218.3
		c3.1-29,26.2-51.9,55.5-55c73.3-7.8,147.2-7.8,220.3,0c29.3,3.1,52.3,26,55.5,55c6.4,73.4,5.1,145.4,0,218.4
		C334.3,307.5,311.2,330.4,282,333.6z"/>
	<path class="st0" d="M318.9,72.5c-2.8-25.8-23.3-46.1-49.3-48.8c-65-6.9-130.7-6.9-195.8,0c-26,2.8-46.5,23.1-49.3,48.8
		c-7,64.4-7,129.4,0,193.8c2.8,25.8,23.3,46.1,49.3,48.8c65,6.9,130.7,6.9,195.8,0c26-2.8,46.5-23.1,49.3-48.8
		C325.8,201.9,325.8,136.9,318.9,72.5z"/>
	
		<linearGradient id="SVGID_1_" gradientUnits="userSpaceOnUse" x1="184.2336" y1="-248.5094" x2="56.449" y2="-120.7249" gradientTransform="matrix(1 0 0 -1 -2.1761 -67.3383)">
		<stop  offset="0" style="stop-color:#3E1066;stop-opacity:0"/>
		<stop  offset="3.630000e-02" style="stop-color:#3B1061;stop-opacity:0.1683"/>
		<stop  offset="0.121" style="stop-color:#370F57;stop-opacity:0.4737"/>
		<stop  offset="0.221" style="stop-color:#330F50;stop-opacity:0.7115"/>
		<stop  offset="0.3447" style="stop-color:#310E4B;stop-opacity:0.878"/>
		<stop  offset="0.5182" style="stop-color:#2F0E48;stop-opacity:0.9736"/>
		<stop  offset="1" style="stop-color:#2F0E47"/>
	</linearGradient>
	<path class="st1" d="M333.9,294L112.3,74.5c-9.1-11.7-26-14-37.9-5s-14.1,25.8-5.1,37.6c1.4,1.9,3.1,3.6,5.1,5l220.8,218.7
		C313,324.9,327.2,311.4,333.9,294z"/>
	
		<linearGradient id="SVGID_2_" gradientUnits="userSpaceOnUse" x1="259.3905" y1="-367.1945" x2="1.498" y2="-246.3074" gradientTransform="matrix(1 0 0 -1 -2.1761 -67.3383)">
		<stop  offset="0" style="stop-color:#3E1066;stop-opacity:0"/>
		<stop  offset="1" style="stop-color:#2F0E47"/>
	</linearGradient>
	<path class="st2" d="M113.5,135.2H68v139.6l64.6,63.9c49.9,1.9,99.8,0.2,149.5-5.1c8.5-0.9,16.7-3.5,24.1-7.7L113.5,135.2z"/>
	
		<linearGradient id="SVGID_3_" gradientUnits="userSpaceOnUse" x1="321.9017" y1="-393.6307" x2="142.6491" y2="-214.378" gradientTransform="matrix(1 0 0 -1 -2.1761 -67.3383)">
		<stop  offset="0" style="stop-color:#3E1066;stop-opacity:0"/>
		<stop  offset="1" style="stop-color:#2F0E47"/>
	</linearGradient>
	<path class="st3" d="M267.9,146.9c-8.6-9.4-20.8-14.7-33.6-14.7c-21,0-34.6,7.3-42.8,14.1l-8.9-11.1h-41.9v139.6l64.8,64.1
		c25.5-0.8,51.1-2.6,76.6-5.3c29.2-3.1,52.4-26,55.5-55c2.1-19.4,2.2-38.6,3.2-58L267.9,146.9z"/>
	<path class="st4" d="M68,135.2h45.4v139.6H68V135.2z"/>
	<path class="st4" d="M234.3,132.2c-33.4,0-47.9,18.3-51.7,23.9v-20.9h-41.9v139.6h45.5v-70.1c0-20.3,9.4-36,27.3-36
		s20.7,19.6,20.7,43.7v62.4h45.5v-97.5C279.8,152.3,259.5,132.2,234.3,132.2L234.3,132.2z"/>
	<path class="st4" d="M117.8,90.8c0,14.8-12.2,26.8-27.1,26.8s-27.1-12-27.1-26.8s12.2-26.8,27.1-26.8l0,0
		C105.6,64,117.8,76,117.8,90.8L117.8,90.8z"/>
</g>
</svg>
