<svg xmlns="http://www.w3.org/2000/svg" width="24.33" height="24.75" viewBox="0 0 24.33 24.75">
  <path id="Icon_awesome-linkedin-in" data-name="Icon awesome-linkedin-in" d="M5.446,24.751H.4V8.226H5.446ZM2.921,5.972A2.972,2.972,0,0,1,0,2.972,2.947,2.947,0,0,1,2.921,0,2.947,2.947,0,0,1,5.843,2.972,2.972,2.972,0,0,1,2.921,5.972Zm21.4,18.778H19.292V16.707c0-1.917-.038-4.376-2.623-4.376-2.623,0-3.024,2.083-3.024,4.237v8.182H8.606V8.226h4.838V10.48h.071a5.285,5.285,0,0,1,4.773-2.668c5.105,0,6.043,3.42,6.043,7.862v9.077Z" transform="translate(0 0)" fill="#7b529c"/>
</svg>
