<svg id="Capa_1" data-name="Capa 1" xmlns="http://www.w3.org/2000/svg" viewBox="0 0 512.6229 340.413"><title>mail</title><path d="M486.0221-.2065H25.9779A26.3138,26.3138,0,0,0-.311,25.9786V314.02a26.3153,26.3153,0,0,0,26.2889,26.1861H486.0231A26.3152,26.3152,0,0,0,512.3119,314.02V25.9786A26.3151,26.3151,0,0,0,486.0221-.2065Zm-9.865,19.6379L271.1224,172.6189c-3.6865,2.7945-9.3454,4.5427-15.1234,4.5168-5.777.0259-11.4349-1.7223-15.1223-4.5168L35.8419,19.4314ZM366.6342,182.7266,478.36,320.2016c.1121.1376.2493.2424.3684.367H33.2718c.1181-.1306.2563-.2294.3684-.367l111.7256-137.475a9.8449,9.8449,0,0,0-15.3266-12.3606L19.405,306.4987V31.7062L229.0533,188.3284a47.2071,47.2071,0,0,0,53.8894,0L492.5911,31.7061V306.4967L381.96,170.366a9.8445,9.8445,0,0,0-15.3256,12.3606Z" transform="translate(0.311 0.2065)" fill="#2f1247"/></svg>