<svg id="Capa_1" data-name="Capa 1" xmlns="http://www.w3.org/2000/svg" xmlns:xlink="http://www.w3.org/1999/xlink" viewBox="0 0 521.9556 384.9766"><defs><linearGradient id="linear-gradient" x1="-299.6468" y1="533.7991" x2="-281.1528" y2="552.2931" gradientTransform="translate(6542.9441 -11450.6502) scale(21.3333)" gradientUnits="userSpaceOnUse"><stop offset="0" stop-opacity="0.2"/><stop offset="1" stop-opacity="0"/></linearGradient></defs><title>mailss</title><path d="M481.3182,2.5011H51.1126a45.9435,45.9435,0,0,0-45.875,45.875v275.25a45.9441,45.9441,0,0,0,45.875,45.875H481.3182a45.9276,45.9276,0,0,0,45.875-45.875V48.3761A45.92,45.92,0,0,0,481.3182,2.5011Zm-6.4246,30.5833c-9.3727,9.3229-170.67,169.7712-176.2395,175.3108a45.8759,45.8759,0,0,1-64.9059-.0285C230.0027,204.6406,70.4851,45.9641,57.5372,33.0844ZM35.821,317.4014V54.62L167.98,186.0827Zm21.7355,21.5164L189.6633,207.6511l22.4879,22.37a76.4583,76.4583,0,0,0,108.1.0286l22.5164-22.3982L474.8743,338.9178ZM496.61,317.4014,364.4511,186.0827,496.61,54.62Z" transform="translate(-5.2376 -2.5011)"/><path d="M196.6549,218.8731c2.6883-2.3741,5.38-4.7544,7.9467-6.9913C148.6591,160.2684,62.3858,80.191,33.8458,53.6883ZM505.219,53.6883C476.6679,80.2,390.4077,160.27,334.4643,211.8838c55.7577,48.59,142.0451,131.5915,170.8234,159.4379a21.3318,21.3318,0,0,0,1.1367-5.6946V59.7281A21.4148,21.4148,0,0,0,505.219,53.6883ZM299.5746,243.97c-8.8643,8.119-19.2538,12.4084-30.0422,12.4084s-21.1779-4.2894-30.0532-12.4187c-5.1423-4.7011-11.6656-10.6938-18.8067-17.2662-2.82,2.4468-5.7742,5.0453-8.7512,7.6713L362.8337,387.4777H484.8891a20.3191,20.3191,0,0,0,4.8556-.9976C460.0094,357.717,373.1758,274.2351,318.3933,226.693,311.2472,233.2685,304.72,239.2663,299.5746,243.97Z" transform="translate(-5.2376 -2.5011)" opacity="0.62" fill="url(#linear-gradient)"/></svg>