<svg id="Layer_1" data-name="Layer 1" xmlns="http://www.w3.org/2000/svg" viewBox="0 0 789.95 417.54"><defs><style>.cls-1{fill:#efefef;opacity:0.15;}</style></defs><title>navlogowi</title><path class="cls-1" d="M425.71,402.38c38.63-6.1,71.75-19.43,98.42-40.11,53.39,63.79,180.37,77.35,236.51,14.3,44.77-50.25,37.67-114.25-16.9-154.47-22.33-16.48-48.21-25.36-74.45-34.17-18.06-6.07-36.36-13-52.31-22.85-22.07-13.6-28.09-36.66-19.09-60.29C607.52,79.53,627,65,654.82,62.9,682,60.9,702.13,73.38,716,95.45c2,3.18,6.31,7.9,8.77,7.5,17.49-2.85,34.77-6.84,52.56-10.58-13.49-53-74.15-95.64-140.73-84.71-36.74,6-70,29.4-88,61.62C521.52,38.53,484,16.19,438.9,5.87,396.55-3.85,305,1.32,242.33,2L0,2.5V408.85H56.9a7.21,7.21,0,0,0,.93,0c19.53.27,41.44.48,58.06-.11,2.85-.11,6.57-4.24,8.09-7.32,8.41-17,16.43-34.1,24.24-51.32,2.34-5.14,4.91-7.85,11.57-7.82,55.14.29,110.28,0,165.43.45,3.68,0,9,3.35,10.7,6.53,6.93,12.81,13.85,25.8,18.67,39.4,2.1,6,4.69,10.73,8.05,14.25M56.9,393.18V232h75.2C106.66,285.42,81.39,338.92,56.9,393.18Zm101.58-216.6h-101v-122H209.88q1.11,3.87,2.35,7.74-26.59,57.56-53.75,114.26ZM173.72,297c22.75-53.57,45.2-106.42,69-162.57l68,162.57Zm363.21-71.07c-3.67,32.06-16.27,60.59-40.36,84.08-27.48,26.79-55,45.32-92.5,48.1-45.7-101.19-91.55-200.42-137.25-301.53C315.71,55.42,424.91,52,462.89,72.29c61.47,32.79,81.18,91.39,74,153.59Zm194.58,85.26c-4.21,28.73-33.35,50.68-65.85,55.17-38.58,5.32-82.73-22.31-101.46-48.08A204.69,204.69,0,0,0,587,268.4,213.09,213.09,0,0,0,596,218c16.31,9.07,34.09,15.17,52.37,20.22,22,6.06,43.73,12.65,61.66,26.83,14.3,11.3,24.15,27.94,21.47,46.07Z" transform="translate(-0.04 -0.02)"/></svg>