<svg id="Layer_1" data-name="Layer 1" xmlns="http://www.w3.org/2000/svg" viewBox="0 0 831.69 417.54"><defs><style>.cls-1{fill:#0c0c0c;}</style></defs><title>navlogo</title><path class="cls-1" d="M448.21,402.38c40.67-6.1,75.54-19.43,103.62-40.11,56.21,63.79,189.9,77.35,249,14.3C848,326.32,840.49,262.32,783,222.1c-23.5-16.48-50.75-25.36-78.39-34.17-19-6.07-38.28-13-55.07-22.85-23.24-13.6-29.57-36.66-20.09-60.29C639.62,79.53,660.16,65,689.43,62.9c28.56-2,49.8,10.48,64.41,32.55,2.11,3.18,6.64,7.9,9.23,7.5,18.41-2.85,36.61-6.84,55.33-10.58-14.2-53-78.07-95.64-148.16-84.71-38.68,6-73.71,29.4-92.69,61.62-28.47-30.75-68-53.09-115.46-63.41C417.51-3.85,321.07,1.32,255.14,2L0,2.5V408.85H59.9a8.18,8.18,0,0,0,1,0c20.56.27,43.62.48,61.12-.11,3-.11,6.92-4.24,8.52-7.32,8.86-17,17.3-34.1,25.52-51.32,2.46-5.14,5.17-7.85,12.18-7.82,58.06.29,116.11,0,174.17.45,3.88,0,9.47,3.35,11.27,6.53,7.29,12.81,14.59,25.8,19.65,39.4,2.22,6,4.94,10.73,8.48,14.25M59.9,393.18V232h79.18C112.29,285.42,85.69,338.92,59.9,393.18Zm107-216.6H60.5v-122H221q1.17,3.87,2.47,7.74-28,57.56-56.58,114.26ZM182.9,297c23.95-53.57,47.59-106.42,72.68-162.57L327.14,297Zm382.41-71.07c-3.88,32.06-17.13,60.59-42.5,84.08-28.93,26.79-57.86,45.32-97.39,48.1C377.31,256.87,329,157.64,280.91,56.53,332.39,55.42,447.36,52,487.35,72.29c64.72,32.79,85.47,91.39,78,153.59Zm204.85,85.26c-4.43,28.73-35.1,50.68-69.32,55.17C660.22,371.63,613.74,344,594,318.23a200,200,0,0,0,24-49.83A203.69,203.69,0,0,0,627.5,218c17.18,9.07,35.9,15.17,55.14,20.22,23.12,6.06,46,12.65,64.92,26.83,15.05,11.3,25.42,27.94,22.6,46.07Z" transform="translate(-0.04 -0.02)"/></svg>