<svg xmlns="http://www.w3.org/2000/svg" width="30.371" height="24.714" viewBox="0 0 30.371 24.714">
  <path id="Icon_ionic-logo-twitter" data-name="Icon ionic-logo-twitter" d="M31.784,7.428a12.6,12.6,0,0,1-3.578.985,6.253,6.253,0,0,0,2.742-3.45A12.381,12.381,0,0,1,26.99,6.476a6.229,6.229,0,0,0-10.78,4.261,6.1,6.1,0,0,0,.161,1.422A17.658,17.658,0,0,1,3.524,5.639a6.243,6.243,0,0,0,1.937,8.328,6.086,6.086,0,0,1-2.832-.779v.077a6.236,6.236,0,0,0,5,6.114,6.272,6.272,0,0,1-1.641.219,5.878,5.878,0,0,1-1.171-.116,6.241,6.241,0,0,0,5.824,4.331A12.493,12.493,0,0,1,2.9,26.485a12.631,12.631,0,0,1-1.487-.09,17.417,17.417,0,0,0,9.538,2.819c11.475,0,17.744-9.506,17.744-17.75,0-.27-.006-.541-.019-.8A12.684,12.684,0,0,0,31.784,7.428Z" transform="translate(-1.413 -4.5)" fill="#6b3d90"/>
</svg>
