<svg xmlns="http://www.w3.org/2000/svg" viewBox="0 0 2300.799 1769.15"><defs><style>.cls-1{opacity:0.24;}.cls-2{opacity:0.33;}.cls-3{fill:#dedbe4;}.cls-4{opacity:0.34;}.cls-5{opacity:0.89;}.cls-6{fill:#b1aac1;}.cls-7{opacity:0.23;}.cls-8{opacity:0.48;}.cls-9{opacity:0.27;}.cls-10{opacity:0.89;}</style></defs><title>weare3</title><g id="Layer_2" data-name="Layer 2"><g id="Layer_1-2" data-name="Layer 1"><g class="cls-1"><g class="cls-2"><path class="cls-3" d="M2137.677,1265.957q59,109.453,118.443,218.633a51.816,51.816,0,0,0,5.565,8.819,29.953,29.953,0,0,1,3.007,5.024c11.33,20.687,22.585,41.351,34.053,62.039,2,3.609,2.734,6.3,1.321,8.225-3.464,4.714-5.971,10.212-9.81,14.649a4.785,4.785,0,0,0-.477.671c-2.723,4.487-5.07,9.3-8.287,13.395-3.316,4.214-5.113,9.669-9.09,13.362a3.066,3.066,0,0,0-.455.7c-2.824,4.656-5.128,9.773-8.641,13.862-3.364,3.912-4.7,9.45-8.77,12.776a1.3,1.3,0,0,0-.251.337c-2.673,4.312-5.088,8.849-8.105,12.9-3.446,4.618-5.693,10.219-9.753,14.36a7.918,7.918,0,0,0-.909,1.449q-4.17,6.723-8.375,13.447a4.422,4.422,0,0,1-1.32.838,26.25,26.25,0,0,1-3.388-5.712q-28.829-55.024-57.511-110.1-26.823-51.61-53.561-103.274a52.061,52.061,0,0,0-5.732-9.615,24.917,24.917,0,0,1-2.551-4.477c-7.367-14.256-14.632-28.5-22.107-42.786-1.7-3.257-2-5.444-1.018-7.317,3.936-7.495,7.606-15.179,11.4-22.725.346-.689.265-1.876,2.249-1.261,1.075,1.957,2.252,4.015,3.313,6.055q23.37,44.873,46.792,89.694a60.681,60.681,0,0,0,6.114,10.212,34.374,34.374,0,0,1,3.237,5.724q15.843,30.182,31.688,60.337c1.107,2.1,2.211,4.206,3.247,6.176,1.843.98,1.913.073,2.368-.408,3.9-4.136,5.947-9.755,8.813-14.7,1.13-1.953.84-4.282-1.043-7.766-7.655-14.168-15.046-28.3-22.526-42.448q-28.431-53.874-56.759-107.809c-.776-1.481-1.505-2.955-2.333-4.443a4.715,4.715,0,0,1-.758-4.265q6.142-12.093,12.2-24.141c.049-.1.3-.036.449-.05a3.515,3.515,0,0,1,.665.34,2.093,2.093,0,0,1,.488.585q42.434,80,84.943,159.6c1.606,1.067,2.015.748,2.294.253,3.311-5.882,7.535-11.012,10.091-17.465.312-.788.723-1.5,1.074-2.261.568-.965.106-2.593-1.08-3.8-2.466-2.814-3.65-5.5-5.113-8.207q-47.136-87.553-93.958-175.271c-.561-1.054-1.047-2.1-1.7-3.159-1.437-2.22-1.876-4.617-1.146-6.256,2.623-8.124,6.381-15.3,9.816-22.718a12.643,12.643,0,0,0,.567-2.5Z"/><path class="cls-3" d="M2076.12,1724.584c.129.315.273.628.416.941q7.622-.777,15.228-1.575c37.757-3.963,75.433-7.975,113.447-11.222l.08-.129a1.464,1.464,0,0,1,.512-.693c4.239-1.85,2.441-6.533-.559-12.288q-42.552-82.018-84.784-164.165-27.357-53.41-54.7-106.895c-.785-1.545-1.179-3.217-2.983-4.8-1.414.28-1.574,1.41-2.012,2.273q-5.3,10.359-10.528,20.86c-2.651,5.315-2.774,3.33,1.577,11.961q42.907,85.1,86.333,170.1c2.139,4.172,2.765,7.151,1.194,9.519-3.815,5.744-7.289,11.79-10.96,17.691-.105.166-.721-.083-1.558-.2q-7.568-14.964-15.151-29.98-7.626-15.111-15.245-30.227t-15.22-30.236c-5.07-10.084-10.094-20.163-15.211-30.257-5.069-10.012-9.84-19.984-15.055-29.727-1.434-.907-1.664-.483-1.867-.133q-6.342,12.314-12.813,24.629c-.66,1.264-.4,3.143.671,4.9.815,1.515,1.5,3.016,2.252,4.523q34.026,68.471,68.2,136.85c.861,1.719,1.668,3.434,2.585,5.159a4.364,4.364,0,0,1,.462,4.33,14.2,14.2,0,0,0-1.228,2.379c-1.62,4.5-5.316,7.306-7.5,11.373-.911,1.691-.4,4.873-4.049,4.121-2.741-2.8-3.415-5.534-4.761-8.246q-38.323-77.3-76.473-154.716c-.794-1.612-1.267-3.28-2.962-5.138a2.359,2.359,0,0,0-1.923,1.811c-4.069,7.785-8.029,15.69-12.3,23.371-1.242,2.234-.825,4.873,1,8.612Q2038.1,1647.026,2076.12,1724.584Z"/><path class="cls-3" d="M1972.8,1624.866q25.18,52.746,50.448,105.434,15.109-1.105,30.093-2.5-32.6-67.167-65.079-134.413c-1.111-2.3-2.337-4.62-3.57-7.051-2.112-.08-2.165,1.425-2.7,2.41-4.022,7.466-7.833,15.134-12.066,22.482-1.456,2.521-1.631,5.34.975,9.716C1971.608,1622.235,1972.241,1623.547,1972.8,1624.866Z"/><path class="cls-3" d="M1954.5,1702.633q6.3,13.446,12.6,26.888,4.13.752,8.316,1.623,6.426.634,12.831,1.187c3.4-.137,6.791-.307,10.179-.48q-13.653-28.752-27.284-57.516c-1.011-2.135-2.022-4.27-3.33-7.035-.935.318-1.16.309-1.228.431q-7.236,13.173-14.524,26.419a4.117,4.117,0,0,0,.291,3.881C1953.1,1699.57,1953.778,1701.1,1954.5,1702.633Z"/><path class="cls-3" d="M1941.067,1726.014q-4.026-8.668-8.049-17.34c-.917-1.977-1.839-3.956-2.828-5.941a2.848,2.848,0,0,0-1.042-1,.876.876,0,0,0-.979.09c-1,2.286-1.511,4.925-2.749,7.068-3.083,5.332-6.015,10.8-8.955,16.282A234.683,234.683,0,0,1,1941.067,1726.014Z"/></g><g class="cls-4"><g class="cls-5"><path class="cls-6" d="M532.65,1397.5,425.874,1248.392l-97.506,0-50.735,92.253L203.672,1248.4l-96.479,0L33.505,1401.78l88.114-.515,47.074-98.488,78.418,97.755,79.029-.462,53.68-98.695,71.083,96.7Z"/><path class="cls-6" d="M852.684,1279.513l2.5-32.389H598.729l.639,150.086,238.35-1.653,2.633-32.27-154.946.843.667-25.3,137.717-.587,2.244-31.169-139.2.391.652-27.7Z"/><path class="cls-6" d="M1320.358,1275.283l-133.761.18-19.762-28.339h-92.091l111.207,145.451,84.971-.584,174.945-144.867h-93.712Zm-33,30.672-50.445,46.7-30.094-46.47Z"/><path class="cls-6" d="M1636.228,1285.81l-48.959.091,12.475-37.567-90.628,0-43.529,142.629,139.563-.955c82.168-.564,142.092-20.9,155.392-53.147,8.489-20.724-7.495-35.94-42.895-44.3l85.162-44.243-96.117,0Zm-25.846,72.766-48.983.262,14.454-42.606,49.715-.165c37.058-.123,52.638,7.667,47.653,20.9-5.087,13.449-26.327,21.414-62.839,21.608Z"/><path class="cls-6" d="M2124.565,1277.89l16.275-30.766H1884.359l-62.462,141.8,238.33-1.632,16.649-30.809-155.133.83,11.505-24.129,137.485-.575,15.629-29.685-138.958.379,11.833-25.159Z"/></g><g class="cls-5"><path class="cls-6" d="M536.9,1757.943l-92.791-148.55-85.523,1.167-44.248,93.046-65.993-91.542-85.151,1.42L101.62,1769.15l77.315-1.481,39.376-99.987,69.755,96.612,68.888-1.317,46.633-99.719,62.089,96.365Z"/><path class="cls-6" d="M819.391,1635.252l3.105-32.279-225.919,3.747-1.408,150.435,207.407-4.9,3.336-33.176-135.457,2.991,1.087-25.931,120.487-2.5,2.817-31.1-121.885,2.351,1.062-27.019Z"/><path class="cls-6" d="M1229.972,1624.688l-116.887,2.088L1096.909,1598l-81.089,1.338,90.233,145.586,73.515-1.723,163.415-149.769-82.342,1.362Zm-30.624,29.985-46.9,47.944-23.711-46.585Z"/><path class="cls-6" d="M1506,1629.239l-42.189.77,14.009-38.4-79.556,1.305-49.156,146.159,120.461-2.812c72.376-1.685,127.148-23.392,142.066-56.715,9.526-21.415-3.186-36.825-33.817-44.91l79.828-46.674-85.1,1.392Zm-27.709,74.161-41.659.906,15.718-42.293,42.428-.837c31.626-.623,44.239,6.87,38.835,20.024-5.511,13.371-24.268,21.529-55.322,22.2Z"/><path class="cls-6" d="M1936.749,1615.109l17.718-31.142-225.882,3.688-68.852,144.317,206.928-4.823,18.638-32.163-135.322,2.92,12.274-23.868,120.714-2.471,17.021-30.081L1778.22,1643.8l13.268-26.111Z"/></g><g class="cls-5"><path class="cls-6" d="M536.786,1579.963,436.22,1429.936l-91.025.637-47.435,93.673-70.233-92.85-90.831.765L68.679,1587.378l83.1-1.052L195.2,1487.7l73.783,95.863,73.97-.934,50.5-97.967L460,1581.148Z"/><path class="cls-6" d="M837.919,1459.438l2.824-32.332-241.25,2.03-.474,150.258,223.048-3.413,2.946-32.1-145.136,2.014.891-25.616,129.14-1.631,2.553-31.133-130.67,1.47.9-28.006Z"/><path class="cls-6" d="M1277.394,1451.149l-125.761,1.218-17.969-28.548-86.847.728,101.508,146.673,78.559-1.2,170.037-148.029-88.919.74Zm-32.079,30.964-48.715,47.351-26.878-46.506Z"/><path class="cls-6" d="M1573.6,1458.511l-46.21.466,13.269-37.986-84.914.712L1409.1,1566.712l130.216-1.975c77.321-1.17,134.712-22.224,148.842-55.009,9.022-21.068-5.329-36.37-38.36-44.571l82.563-45.5-91.278.754ZM1545.638,1532,1501,1532.6l14.91-41.845,45.378-.527c33.825-.393,47.7,7.128,42.564,20.134-5.239,13.216-24.946,21.175-58.218,21.627Z"/><path class="cls-6" d="M2032.5,1448.4l17.681-32.146-241.783,1.994-65.775,143.07,223.513-3.344,16.665-29.7-144.708,1.981,12.23-24.629,128.867-1.606,16.356-29.887-130.4,1.436,12.57-25.639Z"/></g></g></g><g class="cls-7"><g id="Layer_1-2-2" data-name="Layer 1-2"><g class="cls-8"><g class="cls-5"><path class="cls-6" d="M2181.851,424.427,2192.6,289.6l28.83-11.207,7.252-90.375-147.143,67.461-6.51,83.993,124.017,217.871,7.4-92.188ZM2156.3,381.572l-40.14-63.847,46.467-15.985Z"/><path class="cls-6" d="M2147.431,732.594l3.82-48.023,35.614,24.582,7.2-89.766-133.52-87.222-10.666,137.622c-6.355,82.006,8.265,147.912,38.349,171.153,19.371,14.962,35.415,3.818,46.4-28.871l36.014,99.262,7.669-95.567Zm-67.69-47.108,3.753-48.029,39.12,27.008-3.85,48.769c-2.872,36.357-11.519,49.234-23.665,40.313C2082.758,744.48,2076.943,721.283,2079.741,685.486Z"/><path class="cls-6" d="M2115.673,1220.107l28.116,25.851,20.422-254.5L2033.4,885.586l-18.254,235.666,28.726,26.338,12-153.6,21.852,18.518-10.749,136.71,26.891,24.433,10.907-137.756,23.957,20.3Z"/></g><g class="cls-5"><polygon class="cls-6" points="799.571 5.669 819.977 24.355 820.445 5.669 799.571 5.669"/><polygon class="cls-6" points="842.854 5.669 842.065 35.022 869.482 59.9 871.061 5.669 842.854 5.669"/><polygon class="cls-6" points="890.867 5.669 895.419 9.522 892.799 94.129 921.104 120.122 924.895 5.669 890.867 5.669"/></g><g class="cls-5"><path class="cls-6" d="M1011.98,5.669c7.8,3.276,14.59,3.214,20.225,0Z"/><polygon class="cls-6" points="1048.128 5.669 1081.868 65.558 1084.279 9.773 1081.904 5.669 1048.128 5.669"/><path class="cls-6" d="M1045.157,234.04l28.306,25.993,6.394-147.9L948.655,6.1l-4.588,131.884,28.315,25.928,3.182-86.567,22.017,18.631-2.961,77.471,27.415,24.878,3.161-78.979,23.883,20.211Z"/></g><g class="cls-5"><path class="cls-6" d="M1243.522,55.85,1246.1,5.669h-75.385l8.354,5.758-1.481,30.694c-1.108,22.876-8.842,29.046-20.945,20.173-12.294-9.014-18.963-25.447-17.932-47.776h0l.409-8.849H1108.79c-.008,47.465,16.9,89.894,45.25,111.763,19.393,14.958,34.387,11.918,43.518-6.666l39.292,74.772,3.165-61.509-33.381-61.878,1.525-30.675Z"/><path class="cls-6" d="M1197.517,373.95l28.3,25.993,8.388-163.054-131.2-106.037-6.536,146.694,28.314,25.928,4.44-96.09,22.016,18.632-4.066,85.86,27.417,24.878,4.265-87.368,23.882,20.212Z"/></g><g class="cls-5"><polygon class="cls-6" points="1368.256 5.669 1406.301 57.223 1409.304 5.669 1368.256 5.669"/><path class="cls-6" d="M1362.822,172.985l1.908-33.589,35.363,24.374,3.658-62.789-133.682-87.19-4.946,94.139c-2.952,56.187,13.83,105.867,43.951,129.1,19.393,14.959,34.565,10.569,44-10.361l38.755,78.845,3.917-67.227ZM1294.9,125.4l1.775-32.922,38.974,26.864-1.872,33.66c-1.394,25.092-9.279,32.368-21.382,23.493C1300.1,167.484,1293.572,149.945,1294.9,125.4Z"/><path class="cls-6" d="M1349.876,513.86l28.306,25.993,10.383-178.213L1257.364,255.6l-8.486,161.5,28.315,25.928,5.689-105.613,22.016,18.633-5.169,94.244,27.416,24.878,5.369-95.757,23.882,20.212Z"/></g><g class="cls-5"><polygon class="cls-6" points="1545.971 5.669 1517.372 5.669 1516.644 17.386 1507.666 5.669 1457.327 5.669 1563.626 158.016 1568.143 87.294 1542.983 52.96 1545.971 5.669"/><path class="cls-6" d="M1519.423,286.188l2.317-36.748,35.032,24.189,4.354-68.044-133.619-87.3-6.091,102.836c-3.628,61.289,12.713,114.181,42.805,137.429,19.375,14.965,34.709,9.247,44.448-14l38.183,82.892,4.709-73.2Zm-68.841-47.869,2.142-35.5,38.546,26.611-2.237,36.231c-1.668,27.006-9.609,35.29-21.58,26.5-12.158-8.934-18.467-27.384-16.871-53.846Z"/><path class="cls-6" d="M1501.62,655.658l28.454,26.16,12.378-193.4L1411.177,382.17l-10.463,176.409,28.154,25.814,6.887-115.311,22.632,19.179-6.245,102.359,27.52,25,6.507-103.954,23.269,19.719Z"/></g><g class="cls-5"><path class="cls-6" d="M1737.6,27.939l1.534-22.27H1597.82l-3.676,56.884L1721.777,255.3l5.349-77.195-24.227-34.75,7.459-108.978Zm-62.329,77.695-41.114-56.451,45.5-8.675Z"/><path class="cls-6" d="M1675.468,394.617l2.669-39.221,34.89,24.048,5.079-73.593-132.745-86.582-7.228,111.449c-4.3,66.287,11.585,122.266,41.613,145.43,19.333,14.912,34.812,7.847,44.838-17.7l37.567,86.722,5.391-78.3ZM1607.786,347.4l2.517-38.29,38.407,26.471L1646.1,374.6c-1.948,29.085-10.007,38.433-21.931,29.688-12.113-8.883-18.255-28.346-16.378-56.887Z"/><path class="cls-6" d="M1654.725,793.886l27.839,25.564L1696.937,611,1566.05,505.213,1553.6,696.442l27.771,25.429,8.172-124.469,22.119,18.719L1604.33,726.91l27.9,25.321,7.588-112.8,24.058,20.359Z"/></g><g class="cls-5"><path class="cls-6" d="M1860.362,234.115l8.392-115.891,28.208-8.112,5.872-80.226L1758.843,80.208l-5.1,73.224,126.079,200.426,5.941-81.488Zm-25.418-38.168-40.8-58.879,45.818-11.1Z"/><path class="cls-6" d="M1831.359,504.975l3.027-41.991,35.908,24.749,5.768-78.842-134.15-87.5-8.334,119.832c-5,71.869,10.55,131.446,40.765,154.755,19.454,15,35.207,6.544,45.606-21.516l37.267,91.351,6.153-84.216Zm-67.7-47.043,2.979-42.3,39.421,27.172-3.078,43.05c-2.294,32.089-10.71,42.8-22.953,33.828-12.433-9.12-18.59-30.218-16.369-61.747Z"/><path class="cls-6" d="M1806.653,933.119l29.372,26.972,16.394-223.986L1720.8,629.733,1706.46,835.767l28.429,26.033,9.464-134.076,21.63,18.3-8.51,119.646,27.212,24.692,8.678-120.743,23.634,20Z"/></g><g class="cls-5"><path class="cls-6" d="M2019.851,329.811l9.575-125.294,27.884-9.406,6.615-86.025L1917.754,168.02l-5.8,78.582,124.518,208.19,6.781-88.013Zm-26.636-41.2-40.47-61.349,46.134-13.488Z"/><path class="cls-6" d="M1986.958,618.955l3.468-45.579,35.761,24.689,6.491-84.394-133.252-87.055L1889.871,556c-5.622,76.214,9.34,138.387,39.228,161.479,19.245,14.864,35,5.168,45.6-24.913l36.328,94.46,6.88-89.477Zm-67.66-47.486,3.362-45.138,39.271,27.112-3.461,45.881c-2.579,34.2-11.109,45.985-23.305,37.028-12.387-9.1-18.374-31.237-15.869-64.883Z"/><path class="cls-6" d="M1959.405,1075.806l28.748,26.433,18.38-239.032-131.2-106.185-16.308,220.865,28.019,25.69,10.69-143.7,22.338,18.931-9.629,128.056,26.5,24.073,9.759-129.128,24.383,20.663Z"/></g></g></g></g><g class="cls-9"><g class="cls-10"><path class="cls-6" d="M496.435,1127.694,424.8,1246.575H328.055l-70.973-72.486-54.065,72.486H106.273L2.522,1127.236l87.463.081,66.636,76.175,57.272-76.06,78.031.073,75.066,76.736,48.412-76.622Z"/><path class="cls-6" d="M843.379,1220.653l11.3,25.922H598.211l-36.177-118.82,235.38.218,11.218,25.923-153.474-.109,7.01,20.016,136.662.076,10.607,25.079-138.476-.049,7.6,21.713Z"/><path class="cls-6" d="M1310.943,1223.613l-133.49-.023-11.1,22.985h-92.181l67.52-118.282,83.605.077,220.338,118.205h-94.009Zm-42.554-24.659-64.434-37.853-15.706,37.824Z"/><path class="cls-6" d="M1621.766,1215.246l-48.492-.012,25.694,31.341h-90.357l-91.234-118.027,137.2.127c81.891.076,148.708,16.781,173.542,43.7,15.987,17.33,5.482,30.109-27.03,37.166l101.866,37.032h-96.745Zm-50.106-60.3-47.84-.034,28.319,34.542,48.729.021c36.323.016,48.886-6.374,39.457-17.149C1630.748,1161.382,1607.32,1154.973,1571.66,1154.947Z"/><path class="cls-6" d="M2111.9,1220.9l28.289,25.677H1883.723l-113.919-117.7,235.381.218,28.211,25.679-153.475-.11,20.116,19.827,136.661.076,27.044,24.843-138.476-.05,21.82,21.508Z"/></g><g class="cls-10"><path class="cls-6" d="M193.62,4.784,181,122.815l-41.482-.8-35.944-72.99L85.9,120.99l-41.482-.8L0,0,34.286.847,64.065,77.553,82.86,2.047l30.589.756L151.656,80.07,161.854,4Z"/><path class="cls-6" d="M354.056,100.431l11.262,25.922-109.967-2.111L219.336,5.42,311.608,7.7l11.183,25.923-61.459-1.435,6.983,20.017,55.593,1.243,10.573,25.081-57.407-1.218,7.574,21.713Z"/><path class="cls-6" d="M552.085,107.274l-56.332-1.135,3.207,22.779-39.526-.759L446.57,11.035l32.774.81L618.71,131.216l-40.309-.773ZM524.683,82.4,483.761,44.205l7.7,37.487Z"/><path class="cls-6" d="M679.145,101.554l-20.34-.417,25.651,31.341-38.743-.743L554.641,13.705l53.784,1.329c32.1.794,67.614,17.949,92.411,44.871,15.963,17.33,18.474,29.922,8.632,36.652l62.453,37.6-41.483-.8ZM628.6,41.262l-19.165-.447,28.271,34.542,20.054.434c14.948.324,16.833-5.912,7.419-16.688C655.617,48.159,642.885,41.6,628.6,41.262Z"/><path class="cls-6" d="M888.267,111.255l28.254,25.677-109.967-2.11L692.8,17.119l92.272,2.28,28.176,25.679-61.459-1.435L771.874,63.47l55.593,1.244,27.01,24.844L797.069,88.34l21.791,21.508Z"/></g><g class="cls-10"><path class="cls-6" d="M231.023,144.648l-20,118.137-48.366-.7-40.294-72.927-22.216,72.027-48.365-.7L0,140.4l40.91.752L75.266,217.8l23.6-75.575,36.5.67,42.785,77.2,14.971-76.14Z"/><path class="cls-6" d="M414.674,239.96l11.262,25.922-128.215-1.847L261.707,145.212l110.1,2.023,11.183,25.924-72.919-1.27,6.983,20.016,65.69,1.1,10.573,25.08-67.5-1.072,7.575,21.713Z"/><path class="cls-6" d="M646.274,246.319l-65.942-1,1.421,22.8-46.085-.664L532.837,150.2l39.105.718L721.374,270.14l-47-.677Zm-29.285-24.85L573.145,183.32l4.781,37.529Z"/><path class="cls-6" d="M796.224,240.27l-23.846-.367,25.651,31.342-45.172-.651L661.785,152.565l64.173,1.179c38.3.7,77.713,17.8,102.51,44.725,15.963,17.33,16.851,29.945,4.183,36.716l67.356,37.529-48.366-.7Zm-50.48-60.293-22.737-.4,28.272,34.543,23.625.382c17.611.286,20.827-5.969,11.413-16.745C776.755,186.816,762.692,180.272,745.744,179.977Z"/><path class="cls-6" d="M1040.346,249.467l28.254,25.677L940.387,273.3,826.63,155.594l110.1,2.023L964.9,183.3l-72.919-1.27,20.088,19.827,65.69,1.1,27.01,24.843-67.5-1.072,21.79,21.508Z"/></g><g class="cls-10"><path class="cls-6" d="M268.426,284.512,241.06,402.755l-55.248-.6-44.646-72.865-26.76,72.092-55.249-.6L0,280.806l47.533.656,38.934,76.574,28.406-75.644,42.408.585,47.363,77.136L224.387,283.9Z"/><path class="cls-6" d="M475.292,379.49l11.262,25.922-146.462-1.585L304.077,285.005,432,286.771l11.183,25.923L358.8,311.589l6.983,20.017,75.788.953,10.573,25.08-77.6-.927,7.575,21.714Z"/><path class="cls-6" d="M740.463,385.365l-75.552-.857-.365,22.83-52.643-.57,7.2-117.413,45.436.627,159.5,119.082-53.686-.581ZM709.3,360.542l-46.767-38.107,1.859,37.571Z"/><path class="cls-6" d="M913.3,378.986l-27.353-.316L911.6,410.011l-51.6-.558L768.929,291.424l74.563,1.029c44.505.615,87.81,17.658,112.607,44.58,15.963,17.33,15.228,29.969-.265,36.78l72.259,37.459-55.249-.6Zm-50.416-60.294-26.308-.344,28.271,34.542,27.2.332c20.273.247,24.82-6.028,15.406-16.8C897.893,325.474,882.5,318.948,862.888,318.692Z"/><path class="cls-6" d="M1192.426,387.678l28.254,25.678-146.461-1.585-113.757-117.7,127.922,1.766,28.176,25.679-84.381-1.105,20.088,19.827,75.788.953,27.01,24.844-77.6-.927,21.79,21.508Z"/></g><g class="cls-10"><path class="cls-6" d="M305.829,424.376l-34.736,118.35-62.131-.5-49-72.8-31.306,72.158-62.132-.5L0,421.208l54.157.561,43.512,76.508,33.211-75.713,48.316.5,51.942,77.07,24.516-76.278Z"/><path class="cls-6" d="M535.91,519.019l11.261,25.922-164.708-1.322L346.448,424.8l145.746,1.51,11.183,25.923-95.841-.94,6.983,20.017,85.885.807,10.573,25.08-87.7-.781,7.575,21.713Z"/><path class="cls-6" d="M834.652,524.411l-85.162-.719-2.151,22.856-59.2-.475,17.233-117.558,51.767.536L926.7,547.987l-60.375-.484Zm-33.05-24.8L751.913,461.55l-1.063,37.613Z"/><path class="cls-6" d="M1030.383,517.7l-30.86-.266,25.652,31.342-58.03-.466L876.074,430.283l84.952.88c50.706.525,97.908,17.512,122.705,44.434,15.963,17.33,13.6,29.992-4.713,36.844l77.161,37.388-62.132-.5Zm-50.35-60.3-29.88-.293,28.271,34.543,30.769.28c22.935.208,28.814-6.085,19.4-16.861C1019.031,464.131,1002.305,457.625,980.033,457.407Z"/><path class="cls-6" d="M1344.506,525.89l28.254,25.678-164.708-1.322L1094.3,432.543l145.747,1.51,28.175,25.678-95.841-.94,20.088,19.828,85.885.808,27.01,24.843-87.7-.781L1239.449,525Z"/></g><g class="cls-10"><path class="cls-6" d="M344.985,564.253,303.041,682.707l-69.015-.4L180.58,609.569l-35.753,72.222-69.014-.4L1.753,561.625l60.78.465,48.193,76.441,37.913-75.781,54.226.415,56.624,77,29.184-76.345Z"/><path class="cls-6" d="M598.407,658.56l11.3,25.922-182.956-1.059L390.571,564.6l163.571,1.253,11.219,25.922L458.058,591l7.011,20.016,95.983.662,10.607,25.079-97.8-.635,7.6,21.713Z"/><path class="cls-6" d="M930.725,663.468l-94.773-.58-3.9,22.881-65.76-.381,27.1-117.7,58.1.445,179.79,118.789-67.063-.388ZM895.758,638.7,843.1,600.677l-3.934,37.655Z"/><path class="cls-6" d="M1149.334,656.429l-34.366-.214,25.695,31.34-64.459-.373L984.97,569.155l95.343.731c56.907.435,108.028,17.366,132.862,44.287,15.987,17.33,12.022,30.015-9.11,36.908L1286.18,688.4l-69.016-.4Zm-50.368-60.294-33.451-.241,28.318,34.541,34.341.229c25.6.17,32.8-6.143,23.369-16.918C1141.966,602.8,1123.9,596.315,1098.966,596.135Z"/><path class="cls-6" d="M1498.465,664.113l28.289,25.677L1343.8,688.731l-113.92-117.7,163.572,1.253,28.211,25.678-107.3-.775,20.116,19.828,95.983.662L1457.5,642.52l-97.8-.636,21.82,21.508Z"/></g><g class="cls-10"><path class="cls-6" d="M380.635,704.1,331.159,822.666l-75.9-.3-57.7-72.677-40.4,72.289-75.9-.3L0,702.014l67.4.37,52.668,76.376,42.822-75.852,60.135.331,61.1,76.937,34.062-76.415Z"/><path class="cls-6" d="M657.145,798.078,668.407,824l-201.2-.8L431.189,704.382l181.4,1L623.768,731.3l-118.763-.61,6.982,20.017,106.081.516,10.573,25.081-107.895-.491,7.574,21.714Z"/><path class="cls-6" d="M1023.031,802.5l-104.384-.443-5.722,22.908-72.318-.286,37.3-117.848,64.43.354,189.693,118.647-73.752-.292Zm-36.817-24.742L930.682,739.78l-6.908,37.7Z"/><path class="cls-6" d="M1264.541,795.134l-37.872-.165,25.652,31.342-70.888-.281L1090.362,708l105.732.581c63.109.346,118.1,17.221,142.9,44.143,15.963,17.33,10.357,30.039-13.61,36.972l86.967,37.247-75.9-.3Zm-50.22-60.3-37.022-.19,28.271,34.543,37.912.177c28.26.132,36.8-6.2,27.386-16.976C1261.306,741.446,1241.919,734.978,1214.321,734.837Z"/><path class="cls-6" d="M1648.665,802.314l28.254,25.677-201.2-.8-113.757-117.7,181.4,1,28.176,25.679-118.764-.61,20.088,19.828,106.08.517,27.01,24.843-107.895-.49,21.79,21.508Z"/></g><g class="cls-10"><path class="cls-6" d="M418.038,843.968,361.191,962.636l-82.781-.2L216.362,889.82l-44.943,72.355-82.781-.2L0,842.417l74.027.274L131.273,919,178.9,843.081l66.044.245L310.619,920.2l38.834-76.484Z"/><path class="cls-6" d="M717.763,937.607l11.262,25.923L509.575,963,473.56,844.174l199.221.739,11.183,25.924-130.225-.445,6.983,20.017,116.178.371,10.573,25.08-117.993-.345,7.575,21.713Z"/><path class="cls-6" d="M1117.22,941.548l-113.994-.3-7.508,22.933-78.877-.192,47.331-117.992,70.761.263,199.758,118.5-80.44-.2Zm-38.7-24.714L1020.066,878.9l-9.83,37.739Z"/><path class="cls-6" d="M1381.621,933.85l-41.379-.114,25.651,31.341-77.315-.187-91.072-118.03,116.122.431c69.31.257,128.2,17.076,153,44,15.963,17.33,8.734,30.062-18.057,37.036l91.869,37.177-82.782-.2Zm-50.155-60.3-40.594-.138,28.271,34.542,41.483.126c30.922.093,40.794-6.258,31.38-17.033C1382.444,880.1,1361.726,873.655,1331.466,873.552Z"/><path class="cls-6" d="M1800.745,940.525,1829,966.2l-219.449-.533-113.757-117.7,199.222.739,28.175,25.679-130.225-.445,20.088,19.828,116.178.371,27.01,24.843-117.992-.344,21.79,21.508Z"/></g><g class="cls-10"><path class="cls-6" d="M457.767,983.837l-64.055,118.772-89.664-.1-66.5-72.55-49.39,72.418-89.664-.1L2.326,982.825l80.65.179,61.927,76.243,52.329-75.989,71.953.16,70.358,76.8,43.5-76.551Z"/><path class="cls-6" d="M780.833,1077.14l11.3,25.922-237.7-.27L518.256,983.971l217.046.483,11.219,25.923-141.686-.28,7.01,20.017,126.275.225,10.608,25.08-128.091-.2,7.605,21.713Z"/><path class="cls-6" d="M1213.866,1080.6l-123.605-.165L1081,1103.391l-85.435-.1,57.2-118.134,77.092.172,209.986,118.354-87.13-.1Zm-40.617-24.686-61.429-37.9-12.7,37.781Z"/><path class="cls-6" d="M1501.145,1072.569l-44.885-.063,25.694,31.341-83.744-.1-91.235-118.026,126.512.281c75.512.168,138.321,16.93,163.155,43.851,15.987,17.33,7.152,30.085-22.454,37.1l96.823,37.1-89.665-.1Zm-50.173-60.3-44.166-.087,28.319,34.542,45.055.074c33.584.055,44.778-6.315,35.35-17.091C1505.953,1018.766,1483.894,1012.337,1450.972,1012.272Z"/><path class="cls-6" d="M1955.277,1078.74l28.289,25.677-237.7-.27-113.919-117.7,217.047.482,28.211,25.678-141.686-.279,20.115,19.827,126.275.226,27.045,24.843-128.09-.2,21.82,21.508Z"/></g></g></g></g></svg>