<svg xmlns="http://www.w3.org/2000/svg" viewBox="0 0 2306.227 1668.821"><defs><style>.cls-1{opacity:0.33;}.cls-2{fill:#dedbe4;}.cls-3{fill:#fff;}.cls-4{opacity:0.34;}.cls-5{opacity:0.89;}.cls-6{fill:#b1aac1;}</style></defs><title>weare2</title><g id="Layer_2" data-name="Layer 2"><g id="Layer_1-2" data-name="Layer 1"><g class="cls-1"><path class="cls-2" d="M2129.6,1653.268q14.762-92.5,29.62-184.92a25.62,25.62,0,0,1,1.934-7.475,15.05,15.05,0,0,0,.941-4.258c2.842-17.524,5.608-35.033,8.559-52.568.515-3.059.164-5.331-1.961-6.937-5.2-3.928-9.779-8.525-15.224-12.213a8.044,8.044,0,0,1-.723-.559c-4.381-3.741-8.523-7.759-13.22-11.162-4.835-3.5-8.684-8.06-13.945-11.112a5,5,0,0,1-.709-.582c-4.519-3.874-8.712-8.139-13.667-11.525-4.739-3.238-8.148-7.865-13.335-10.6a2.188,2.188,0,0,1-.37-.279c-4.218-3.579-8.27-7.349-12.71-10.7-5.064-3.821-9.348-8.48-14.81-11.89a12.586,12.586,0,0,1-1.42-1.2q-6.538-5.567-13.1-11.13a7.278,7.278,0,0,0-1.579-.682,13.54,13.54,0,0,0-1.083,4.826q-6.83,46.422-13.6,92.856-6.339,43.492-12.665,87c-.389,2.673-.592,5.312-1.922,8.1a12.663,12.663,0,0,0-.781,3.771c-1.75,12-3.409,23.989-5.265,36.01-.423,2.741.124,4.577,1.814,6.143,6.765,6.268,13.352,12.7,20.02,19.018.609.577.99,1.575,2.709,1.049.3-1.648.662-3.382.916-5.1q5.607-37.8,11.213-75.58c.424-2.843.695-5.647,2.032-8.615a17.624,17.624,0,0,0,.951-4.829q3.809-25.452,7.6-50.893c.265-1.775.528-3.549.776-5.211,1.409-.841,1.825-.081,2.451.318,5.37,3.428,9.514,8.12,14.2,12.239,1.851,1.628,2.469,3.585,1.987,6.527-1.959,11.964-3.681,23.892-5.487,35.835q-6.867,45.46-13.712,90.937c-.187,1.249-.33,2.491-.566,3.746a3.643,3.643,0,0,0,.919,3.589q10.8,10.143,21.531,20.262c.087.083.306.03.464.041a2.171,2.171,0,0,0,.524-.289.984.984,0,0,0,.252-.494q10.383-67.515,20.765-134.775c1.146-.911,1.669-.646,2.133-.233,5.52,4.916,11.641,9.193,16.663,14.6.613.66,1.294,1.257,1.934,1.893a2.454,2.454,0,0,1,.442,3.21c-1.3,2.387-1.4,4.656-1.763,6.946q-11.658,74.023-23.228,148.088c-.139.889-.207,1.77-.429,2.666a5.35,5.35,0,0,0,1.352,5.277c5.854,6.848,12.47,12.9,18.87,19.157a16.181,16.181,0,0,1,1.57,2.11Z"/><path class="cls-2" d="M2158.251,1224.51c2.083,4.789,3.027,10.226,4.577,15.327,1.523,5.019,2.583,10.272,3.939,15.372,1.4,5.255,2.91,10.449,4.363,15.669q2.114,7.6,4.21,15.191,2.163,7.818,4.324,15.628c1.378,4.974,2.674,9.989,4.183,15.115,1.545-1.464,1.257-2.473,1.412-3.421,4.781-29.176,9.5-58.338,14.34-87.509a17.867,17.867,0,0,0-.455-7.951q-7.213-25.779-14.553-51.6-2.706-9.459-5.64-18.822a18.919,18.919,0,0,1-.487-8.991c2.1-12.588,4.058-25.157,6.072-37.731.142-.885.268-1.769.435-2.657.128-.678.051-1.489.85-1.973a2.153,2.153,0,0,1,2.491.26c1.641.985,3.2,2.062,4.8,3.106,6.747,4.429,13.447,8.895,20.243,13.234,1.423.908,2.02,2.813,4.34,2.66,2.186-2,1.644-4.1,1.976-6.085q6.469-38.678,12.793-77.319c.2-1.235.38-2.467.6-3.7a2.792,2.792,0,0,0-1.474-3.256c-3.887-2.271-7.674-4.668-11.5-7.024-8.066-4.972-16.111-9.992-24.237-14.939-7.586-4.62-15.3-9.114-22.89-13.764-7.051-4.319-13.978-8.8-21.032-13.149s-14.218-8.62-21.322-12.963c-6.274-3.838-12.51-7.734-18.8-11.579-1.233-.753-2.6-1.35-4.255-2.2a12.28,12.28,0,0,0-1.226,4.953q-7.612,50.593-15.152,101.2-4.3,28.924-8.557,57.851c-.392,2.664-1.014,5.368-.348,7.834a9.166,9.166,0,0,1-.2,3.148c-.476,3.895-1.514,7.9-.685,11.53a6.252,6.252,0,0,1-.218,2.119c-.811,5.014-.422,9.733-.284,14.511.084,2.9-.019,5.857,0,8.771a221.17,221.17,0,0,0,5.956,50.2c2.566,10.808,6.088,21.113,11.824,30.094a51.9,51.9,0,0,0,16.715,16.557c4.632,2.848,10.578,1.94,16.647.45a9.6,9.6,0,0,0,3.715-2.106c4.83-4.3,9.5-8.624,12.6-14.3,2.848-5.217,5.937-10.361,8.251-15.7A2.9,2.9,0,0,1,2158.251,1224.51Z"/><path class="cls-2" d="M1950.684,853.617c-.953,1.391-.759,2.814-.944,4.213q-9.337,70.8-18.568,141.63a25.188,25.188,0,0,0-.19,6.895c.29,1.988-.235,4.264-.434,6.419-.281,3.041-1.129,6.183-.287,9.017a5.718,5.718,0,0,1-.128,2.659c-1.052,4.787-.2,9.185-.4,13.795-.262,6.172.392,12.174.892,18.174.484,5.832,1.2,11.592,1.936,17.342a170.642,170.642,0,0,0,6.684,29.924,101.518,101.518,0,0,0,11.81,25.036c4.767,7.335,10.83,13.379,18.992,17.331,6.027,2.915,14.7,2.519,22.852-4.116a37.28,37.28,0,0,0,7.143-8.5,135.51,135.51,0,0,0,8.284-14.61,3.718,3.718,0,0,1,1.684-2.021c1.37.034,1.346,1.433,1.672,2.4,1.561,4.634,3.012,9.321,4.507,13.983q3.879,12.113,7.747,24.206c1.967,6.206,3.895,12.427,5.837,18.636q4.433,14.19,8.846,28.356c.148.478.453.861,1.113.653.733-.231.738-.844.822-1.337.213-1.258.386-2.511.568-3.765q5.6-38.694,11.241-77.379a19.943,19.943,0,0,0-.774-10.03c-2.918-8.055-5.3-16.4-7.979-24.6-1.929-5.884-4.022-11.69-5.993-17.561-1.558-4.637-3.022-9.324-4.555-13.978s-3.057-9.32-4.683-13.933a10.914,10.914,0,0,1-.721-5.472c1.844-12.573,3.6-25.134,5.387-37.7.077-.537.16-1.078.282-1.619.324-1.436,1.315-2.155,2.455-1.69a17.782,17.782,0,0,1,3.073,1.611q13.281,8.766,26.494,17.527a1.937,1.937,0,0,0,1.457.323,2,2,0,0,0,1.324-1.785c.207-1.255.411-2.51.594-3.762,3.5-23.975,6.9-47.933,10.63-71.924.7-4.48-.515-6.959-4.094-9.033-10.615-6.153-20.848-12.811-31.283-19.258-5.367-3.316-10.822-6.538-16.2-9.856-8.365-5.157-16.683-10.392-25.083-15.553-5.559-3.416-11.244-6.693-16.806-10.126-8.138-5.026-16.214-10.147-24.345-15.224-2.856-1.785-5.729-3.552-8.648-5.266A2.083,2.083,0,0,0,1950.684,853.617Z"/><path class="cls-2" d="M2306.227,596.276c-1.589-.218-2.688.513-3.817,1.059-19.848,9.614-39.6,19.417-59.48,28.858-19.494,9.293-38.713,19.209-58.141,28.549-9.514,4.586-18.959,9.316-28.432,13.974-1.327.653-2.64,1.342-3.953,2.027a4.431,4.431,0,0,0-2.547,3.183c-.281,1.6-.535,3.208-.781,4.81-.846,5.519-1.655,11.035-2.534,16.558-.535,3.367-.718,6.713-2.434,10.137a12.069,12.069,0,0,0-.756,3.734c-2.148,14.069-4.226,28.133-6.464,42.214a11.371,11.371,0,0,0,1.318,7.752c3.851,6.933,7.336,14.077,11,21.1,3.437,6.588,6.958,13.118,10.384,19.7,2.751,5.288,5.4,10.628,8.131,15.918,2.136,4.145,4.343,8.245,6.489,12.377,2.881,5.553,5.717,11.126,8.6,16.668,3.39,6.533,6.83,13.027,10.2,19.557,2.7,5.249,5.309,10.55,8,15.793,2.182,4.249,4.466,8.434,6.645,12.676,2.758,5.372,5.441,10.782,8.176,16.155q4.851,9.539,9.726,19.038,5.495,10.767,10.974,21.513c.859,1.684,1.791,3.324,2.622,5.024,3.051,6.247,4.108,7.483,4.546,6.611,1.507-3,1.418-5.929,1.912-8.872,4.333-25.746,8.536-51.472,12.959-77.217a15,15,0,0,0-1.735-10.484c-5.676-10.048-11.119-20.264-16.736-30.394a4.725,4.725,0,0,1-.586-3.34c.23-1.238.407-2.472.61-3.707q9.917-60.372,19.873-120.711c.088-.529.173-1.058.262-1.588.931-5.5,1.015-5.527,7.162-8.163,6.939-2.972,13.824-6.146,20.794-9.012,2.415-.992,3.342-2.237,3.5-4.193.057-.693.232-1.406.351-2.11q6.818-40.384,13.641-80.752C2305.964,599.194,2306.065,597.685,2306.227,596.276Z"/><path class="cls-2" d="M1861.885,1004.71c2.085,2.53,7.5,18.643,10.883,28.395s7.007,19.4,10.549,29.062c3.455,9.442,6.948,18.852,10.439,28.342,1.429-.918,1.062-1.837,1.16-2.6,3.265-25.4,6.415-50.791,9.821-76.2.568-4.235-.783-7.547-1.993-10.934-3.25-9.087-6.853-18.006-10.26-27.036-4.122-10.9-8.159-21.869-12.3-32.792a26.187,26.187,0,0,1-1.435-13.813c1.469-9.3,2.4-18.549,3.561-27.82.182-1.454.354-2.908.62-4.368.261-1.428,1.439-2.089,2.486-1.4q9.081,5.944,18.1,11.923c3.485,2.323,7.24,4.335,10.339,7.093a3.278,3.278,0,0,0,3.019.633c1.008-1.966.874-3.746,1.107-5.524,1.737-13.233,3.419-26.46,5.129-39.688.3-2.348.451-4.681,1.686-7.061a8.052,8.052,0,0,0,.636-2.714c.841-6.343,1.6-12.677,2.5-19.025.31-2.187-.235-3.557-2.117-4.659-6.61-3.868-13.025-7.992-19.521-12.029-9.4-5.842-18.782-11.722-28.233-17.553-5.678-3.5-11.48-6.868-17.157-10.392-10.787-6.7-21.517-13.5-32.335-20.234-5.709-3.554-11.524-6.989-17.265-10.524-4.421-2.723-8.8-5.506-13.19-8.274-1.9-1.2-3.651-.334-4.2,2.149a37.424,37.424,0,0,0-.524,3.849q-6.507,56.866-12.969,113.758a19.079,19.079,0,0,0-.046,6.451,14.007,14.007,0,0,1-.105,4.308c-.381,3.842-.842,7.693-1.261,11.54-.219,2.01-.531,4.024.035,5.892a5.341,5.341,0,0,1,.084,2.654c-1.2,5.236-.369,10.12-.321,15.092a226.155,226.155,0,0,0,1.718,25.305c1.017,8.33,2.487,16.5,4.257,24.534,1.178,5.36,3.111,10.424,4.785,15.579q1.332,4.107,2.949,8.074a77.431,77.431,0,0,0,12.625,21.307c4.253,4.973,8.879,9.741,14.778,13.164a26.735,26.735,0,0,0,13.558,3.708c2.668.014,5.332-1.256,7.915-2.379a24.253,24.253,0,0,0,9.628-7.752,74.717,74.717,0,0,0,8.9-14.414C1860.464,1007.136,1861.194,1005.975,1861.885,1004.71Z"/><path class="cls-2" d="M2094.765,832.677q2.451-16.617,4.912-33.233a25.849,25.849,0,0,1,1.633-6.423c1.458-3.474,1.35-6.581-.441-9.463-6.256-10.062-12.172-20.366-18.425-30.477a10.767,10.767,0,0,1-1.572-7.711q8.547-57.989,16.969-115.935c.157-1.072.321-2.148.581-3.223a3.784,3.784,0,0,1,2.361-2.619c1.554-.636,3.144-1.146,4.709-1.749,6.646-2.561,13.272-5.217,19.949-7.657,2.423-.886,3.409-2.155,3.536-4.173.055-.881.257-1.783.391-2.675q5.493-36.662,10.995-73.31c.214-1.425.423-2.853.523-4.265.086-1.215-.99-1.853-2.29-1.356-2.362.9-4.708,1.871-7.046,2.853q-24.828,10.439-49.6,20.939-18.342,7.8-36.644,15.668-21.2,9.087-42.374,18.187c-4.445,1.923-8.8,4.177-13.3,5.86a7.965,7.965,0,0,0-5.191,5.515,20.672,20.672,0,0,0-.62,3.791c-2.951,22.019-5.853,44.038-8.873,66.07a11.95,11.95,0,0,0,1.59,8.354c4.843,7.939,9.273,16.123,13.893,24.176,3.046,5.316,6.2,10.563,9.232,15.874,5.242,9.179,10.418,18.382,15.615,27.554q4.622,8.163,9.261,16.295,6.8,11.991,13.576,23.96c2.989,5.26,6.05,10.47,9.018,15.731,5.206,9.237,10.354,18.491,15.517,27.719q2.5,4.469,5.037,8.908c2.972,5.214,5.982,10.4,8.913,15.624,2.769,4.943,5.449,9.936,8.189,14.887.859,1.552,1.782,3.066,2.74,4.554.12.186.669.233.96.111a1.439,1.439,0,0,0,.66-.826c.232-1.077.377-2.149.535-3.221q2.531-17.157,5.058-34.312Z"/><path class="cls-2" d="M1951.245,1452.518c1.434-8.182,2.348-16.552,3.535-24.959,1.2-8.477,2.314-16.941,3.467-25.411s2.307-16.937,3.463-25.4,2.312-16.934,3.469-25.4q1.726-12.621,3.449-25.2c.757-.113,1.255-.329,1.417-.192,5.706,4.872,11.283,9.869,17.082,14.612,2.391,1.956,2.9,4.451,2.4,7.961q-10.105,71.492-19.9,142.987c-1,7.249-1.629,5.588,2.975,10.016q9.094,8.751,18.239,17.392c.759.72,1.346,1.665,2.841,1.891,1.169-1.333.919-2.736,1.1-4.035q6.417-44.973,12.781-89.915,9.851-69.153,19.834-138.276c.71-4.852.674-8.79-4.057-10.269a2.35,2.35,0,0,1-.747-.571c-4.522-3.856-8.981-7.788-13.6-11.563-4.248-3.473-8.664-6.776-13.013-10.158-.249-.194-.517-.369-.757-.573-4.439-3.769-8.683-7.766-13.383-11.261s-8.639-7.84-13.774-10.887a3.2,3.2,0,0,1-.74-.6c-4.035-4.47-9.1-7.91-13.876-11.594-4.8-3.7-8.75-8.3-14.144-11.358a5.02,5.02,0,0,1-.753-.594c-4.611-3.929-9.028-8.085-13.9-11.744-5.611-4.218-10.441-9.319-17.011-13.04-.985,1.634-.875,3.031-1.049,4.373q-4.443,34.247-8.831,68.5c-.348,2.7-.52,5.375-1.8,8.179a14.65,14.65,0,0,0-.823,4.353q-8.334,65-16.654,130.035c-.4,3.13.157,5.33,2.174,7.176,6.941,6.348,13.673,12.889,20.478,19.333a3.8,3.8,0,0,0,2.532,1.49c.961-1.565.807-2.959.984-4.31q8.5-64.887,17.032-129.734c.3-2.275-.052-4.562,1.547-6.929,3.212-.681,3.879,1.974,5.364,3.367,3.57,3.351,8.123,5.628,11.317,9.354a20.952,20.952,0,0,0,2.044,1.962,3.652,3.652,0,0,1,1.144,3.612c-.245,1.45-.389,2.889-.582,4.333q-7.673,57.413-15.313,114.853c-.168,1.264-.281,2.523-.512,3.794a4.158,4.158,0,0,0,1.162,4.091q10.856,10.212,21.621,20.437C1949.805,1452.936,1950.188,1453.288,1951.245,1452.518Z"/><path class="cls-2" d="M1635.466,655.762c-1.057,1.231-.721,2.519-.842,3.749q-5.874,59.775-11.651,119.575c-.215,2.219-.521,4.444.149,6.514a5.5,5.5,0,0,1,.066,2.707c-1.185,5.659-.327,11-.179,16.4.231,8.475,1.255,16.8,2.256,25.1a158.772,158.772,0,0,0,2.986,17.219c1.359,5.8,3.28,11.39,4.959,17.066a103.648,103.648,0,0,0,8.078,19c3.9,7.387,8.373,14.416,14.619,20.083,4.535,4.114,8.79,8.462,14.553,11.27,3.54,1.724,7.5,2.339,11.47,3,1.6.264,3.408-.345,5.191-.943,7.515-2.518,12.814-7.486,16.758-14.035,1.755-2.91,3.4-5.862,5.062-8.735,1.808-.271,1.715,1.148,2.059,1.947q4.737,11.028,9.275,22.143c3.59,8.821,7.058,17.7,10.618,26.51q6.186,15.339,12.449,30.594c.1.244.522.372.844.43.475.086.748-.193.813-.683.17-1.284.391-2.575.533-3.856,2.478-22.4,4.923-44.795,7.465-67.195a15.348,15.348,0,0,0-1.137-8.2c-5.656-12.89-11.446-25.743-16.6-38.937-3.611-9.228-7.927-18.082-11.556-27.314a7.434,7.434,0,0,1-.415-3.637q1.782-16.56,3.571-33.118a6.247,6.247,0,0,1,.187-1.107c.158-.539.27-1.219.98-1.374a2.276,2.276,0,0,1,1.559.138c2.153,1.441,4.194,3.012,6.347,4.45,7.748,5.172,15.489,10.335,23.3,15.391.94.608,1.859,1.526,3.342,1.295.959-.573.79-1.345.865-2.013,2.473-22.013,4.865-44.015,7.475-66.033.348-2.928-.418-4.714-2.757-6.067-3.176-1.837-6.129-3.96-9.256-5.869-7.006-4.277-14.11-8.449-21.105-12.769-9.385-5.8-18.686-11.725-28.084-17.561-5.974-3.711-12.065-7.289-18.046-11.012-9.581-5.966-19.1-12.042-28.708-18.025-6.618-4.12-13.331-8.135-20.006-12.212-1.819-1.111-3.6-2.266-5.439-3.361C1636.94,655.938,1636.438,655.325,1635.466,655.762Z"/><path class="cls-2" d="M1977.833,457.712a13.706,13.706,0,0,0-5.44,1.207c-27.776,9.97-55.575,19.743-83.208,30.025-18.537,6.923-37.15,13.474-55.687,20.279-1.38.507-2.779.95-4.149,1.487-5.9,2.315-6.17,2.633-6.843,8.389-2.457,21.019-4.844,42.036-7.392,63.068a12.664,12.664,0,0,0,2.016,8.923c8.763,13.6,17.279,27.311,25.824,40.968q10.9,17.439,21.688,34.859,10.783,17.382,21.51,34.715,10.837,17.516,21.633,34.97,11.4,18.507,22.694,36.979c.777,1.272,1.387,2.651,2.131,3.944.487.845.936,1.768,2.253,1.818,1.149-.372.918-1.221,1-1.846,3.251-24.8,6.449-49.587,9.749-74.381a9.931,9.931,0,0,0-1.719-7.282c-6.318-9.406-12.431-18.968-18.729-28.429a12.7,12.7,0,0,1-2.056-9.243c4.61-34.992,9.038-69.961,13.533-104.926.187-1.449.363-2.9.62-4.351a4.11,4.11,0,0,1,3.23-3.273c6.366-1.926,12.725-3.9,19.093-5.836,8.387-2.543,7.674-2.07,8.609-9.143q4.589-34.7,9.172-69.382C1977.507,460.179,1977.648,459.106,1977.833,457.712Z"/><path class="cls-2" d="M1812.127,1318.9c.275-2.309.487-4.092.7-5.875q6.332-53.1,12.7-106.177c.218-1.814.545-3.646.886-5.474a1.514,1.514,0,0,1,1.866-.884,7.454,7.454,0,0,1,1.2.833c4.44,3.993,8.51,8.356,13.6,11.667a38.373,38.373,0,0,1,3.919,3.591,4.129,4.129,0,0,1,1.274,4.142c-.25,1.462-.368,2.913-.547,4.369q-7.879,64.446-15.718,128.925a24.714,24.714,0,0,1-.421,3.28c-.945,3.663.232,6,2.537,8.074,6.714,6.049,13.146,12.372,19.719,18.528.868.812,1.463,2.062,3.474,1.972.313-2.034.659-3.974.9-5.9q8.682-69.513,17.394-138.982,4.523-35.954,9.055-71.895c.161-1.271.253-2.536.492-3.813.378-2.024-.2-3.553-1.813-4.305-2.626-1.224-4.32-3.4-6.467-5.117-4.549-3.632-9.185-7.179-13.791-10.767a5.557,5.557,0,0,1-.757-.616c-3.887-4.365-8.879-7.619-13.521-11.174-4.4-3.37-7.987-7.631-13-10.344a4.8,4.8,0,0,1-.79-.588c-4.605-3.9-9.014-8.032-13.879-11.66s-8.975-8.1-14.273-11.282a3.285,3.285,0,0,1-.767-.621c-3.938-4.413-8.989-7.711-13.69-11.3-4.459-3.406-8.072-7.735-13.145-10.481a8.373,8.373,0,0,1-1.9-1.591c-4.5-4.59-10.382-7.764-14.729-12.536a2.059,2.059,0,0,0-.784-.608,2.294,2.294,0,0,0-1.484-.231,2.7,2.7,0,0,0-1.066,1.311,5.738,5.738,0,0,0-.293,1.651c-.156,1.285-.3,2.569-.438,3.853q-10.636,95.226-21.167,190.524c-.813,7.4-1.494,5.782,3.335,10.384,5.4,5.146,10.772,10.308,16.278,15.317,1.926,1.753,3.329,3.926,5.08,5.8a1.027,1.027,0,0,0,.966.06,1.447,1.447,0,0,0,.646-.844c.254-1.656.446-3.305.633-4.953q6.756-59.364,13.542-118.7c.147-1.282.246-2.559.458-3.847.173-1.051-.147-2.349,1.113-3.088,1.67-.979,2.245.467,3.027,1.171,3.037,2.735,5.969,5.573,8.975,8.332a23.914,23.914,0,0,0,5.383,4.236c2.559,1.276,3.4,3.531,2.975,6.859-2.088,16.471-3.917,32.911-5.837,49.365q-3.516,30.17-7.024,60.346c-.149,1.28-.26,2.555-.437,3.839a3.476,3.476,0,0,0,1.082,3.216q11.618,10.857,23.2,21.667C1810.906,1318.66,1811.118,1318.649,1812.127,1318.9Z"/><path class="cls-2" d="M1568.424,686.745a3.039,3.039,0,0,1,3.175.614q12.334,8.336,24.6,16.685c1.755,1.19,3.516,2.372,5.306,3.517,1.1.7,2.268.047,2.5-1.41.206-1.3.322-2.6.445-3.9q2.617-27.58,5.233-55.156c.089-.928.117-1.855.268-2.785a4.105,4.105,0,0,0-2.2-4.469c-5.639-3.46-11.309-6.891-16.923-10.4-10.027-6.269-20-12.633-30.075-18.9-7.032-4.374-14.222-8.567-21.265-12.956-9.962-6.212-19.85-12.545-29.806-18.821q-8.281-5.223-16.63-10.389-9.5-5.907-19.05-11.788a6.363,6.363,0,0,0-1.565-.607,1.271,1.271,0,0,0-1.766,1.043c-.226,1.313-.286,2.629-.392,3.942q-3.813,47.007-7.594,94.031a22.259,22.259,0,0,0,.149,6.63,23,23,0,0,1-.007,5.543c-.183,5.017-.973,10.063-.23,15.023.5,3.336.207,6.95.452,10.429a191.219,191.219,0,0,0,5.192,34.268,164.29,164.29,0,0,0,9.982,29.2c4.12,8.772,8.983,17.14,15.428,24.246,6.426,7.086,13.267,13.95,22.708,17.805a24.886,24.886,0,0,0,11.423,2.259,21.92,21.92,0,0,0,14.268-6.425,34.658,34.658,0,0,0,6.942-8.629,31.429,31.429,0,0,1,2.668-4.082.918.918,0,0,1,1.49-.123,51.961,51.961,0,0,1,2.412,4.609q15.546,33.714,30.934,67.3c.845,1.84,1.111,4.111,3.151,5.179,2.551-2.145,1.447-4.565,1.8-6.822a26.552,26.552,0,0,0,.09-9.854c-.336-1.5.117-3.3.272-4.973,1.352-14.5,2.674-28.992,4.118-43.5a15.318,15.318,0,0,0-1.292-8.334c-5.764-12.268-11.11-24.79-17.16-36.938-3.731-7.482-7.28-15.065-10.922-22.608a13.85,13.85,0,0,1-1.39-7.8c.955-8.952,1.664-17.886,2.51-26.829C1567.784,689.314,1567.575,688.02,1568.424,686.745Z"/><path class="cls-2" d="M1766.906,523.2q2.566-23.128,5.139-46.252c.081-.734.156-1.468.246-2.2.627-5.136.634-5.094,6.5-6.62,7.234-1.88,14.457-3.848,21.691-5.749a2.818,2.818,0,0,0,2.367-2.428c.185-1.283.345-2.566.492-3.847q3.588-31.306,7.18-62.6c.084-.732.186-1.466.245-2.2.291-3.571.016-3.817-3.9-2.684-10.682,3.088-21.346,6.26-32.016,9.375-10.462,3.059-20.934,6.047-31.383,9.142-14.664,4.351-29.3,8.795-43.95,13.17-10.226,3.06-20.462,6.05-30.684,9.092-3.209.956-6.4,2-9.612,2.931a2.88,2.88,0,0,0-2.393,2.422c-.158,1.112-.279,2.224-.389,3.335-1.914,19.253-3.777,38.506-5.767,57.77a11.971,11.971,0,0,0,1.99,8.591c7.759,11.2,15.215,22.574,22.81,33.828,4.956,7.349,10.021,14.615,14.983,21.937q13.83,20.428,27.533,40.819c4.91,7.278,9.9,14.493,14.787,21.761q14.631,21.772,29.116,43.5,6.534,9.775,13.12,19.484a3.463,3.463,0,0,0,1.086,1.041,1.385,1.385,0,0,0,.913-.453c.29-1.467.534-2.937.7-4.4,2.469-21.817,4.869-43.626,7.453-65.446a10.534,10.534,0,0,0-2.165-8.231c-6.981-9.3-13.561-18.9-20.336-28.394a8.9,8.9,0,0,1-1.333-6.569c.964-7.9,1.78-15.793,2.653-23.688Q1765.44,536.419,1766.906,523.2Z"/><path class="cls-2" d="M1607.52,939.522c-.2,2.092-.377,3.937-.553,5.782q-8.334,87.474-16.581,175.008c-.657,7.012-1.228,5.51,3.455,10.125,6.546,6.452,12.529,13.433,19.534,19.4,1.121.955,1.89,2.33,3.8,2.752,1.1-1.39.816-2.845.948-4.2q5.216-53.136,10.391-106.24c.182-1.854.233-3.7.584-5.562.33-1.747-.7-4.137,1.567-5.1,1.982-.841,2.883,1.468,4.108,2.533,2.547,2.215,5.073,4.462,7.386,6.895,1.99,2.1,4.591,3.44,6.86,5.183,2.015,1.547,2.816,3.514,2.421,6.4-.761,5.567-1.173,11.106-1.73,16.656q-4.146,41.358-8.274,82.729c-.129,1.295-.186,2.587-.4,3.888a4.785,4.785,0,0,0,1.6,4.66c4.038,3.71,7.995,7.5,11.983,11.242,3.382,3.176,6.757,6.354,10.159,9.5.574.531,1.018,1.321,2.119,1.081a1.973,1.973,0,0,0,.5-.336,1.135,1.135,0,0,0,.193-.548q5.609-53.752,11.244-107.48a1.991,1.991,0,0,1,.252-.525c1.194-.622,1.753.127,2.28.7,4.864,5.276,11.127,9.081,16.28,14.029.72.691,1.413,1.412,2.189,2.043a4.468,4.468,0,0,1,1.639,4.611c-.229,1.294-.289,2.58-.426,3.87q-6.282,59.432-12.53,118.892a27.376,27.376,0,0,1-.371,3.319,6.037,6.037,0,0,0,2.2,6.408c5,4.5,9.841,9.151,14.681,13.793,2.7,2.592,5.732,4.875,7.784,8.092.19.3.925.328,1.417.229.676-.136.9-.829.989-1.363.238-1.479.414-2.954.573-4.425q10.576-97.672,21.241-195.267a7.368,7.368,0,0,1,.128-1.1c.949-3.612-.454-5.938-3.276-7.313a22.74,22.74,0,0,1-4.388-3.332c-5.28-4.338-10.352-8.912-16.063-12.807a4.262,4.262,0,0,1-.778-.638c-4.033-4.48-9.171-7.851-13.96-11.514-4.54-3.474-8.231-7.882-13.408-10.667a7.292,7.292,0,0,1-1.185-.95c-4.75-4.025-9.171-8.454-14.359-11.973-4.669-3.167-8.07-7.671-13.181-10.322a2.881,2.881,0,0,1-.791-.638c-4.087-4.524-9.275-7.943-14.122-11.644-4.6-3.511-8.334-7.964-13.557-10.8a7.4,7.4,0,0,1-1.2-.952q-7.206-6.107-14.422-12.229C1611.3,940.443,1610.293,939.239,1607.52,939.522Z"/><path class="cls-2" d="M1431.3,735.2c.136-1.527.3-3.137.421-4.744,1.349-17.314,2.513-34.613,4.157-51.942a22.2,22.2,0,0,0-3-13.51c-3.114-5.572-6.176-11.182-9.137-16.852-5.526-10.571-10.966-21.206-16.474-31.819-.41-.79-.942-1.511-1.42-2.262-2.732-4.289-4.281-8.843-3.555-14.484,1.021-7.925,1.294-15.831,1.89-23.768,2.1-.877,3.121.47,4.208,1.127,3.6,2.175,7,4.616,10.483,6.933,5.606,3.723,11.235,7.408,16.816,11.142,1.507,1.008,2.878,2.177,4.354,3.222.553.391,1.765-.245,1.894-.982.2-1.126.361-2.257.45-3.379,1.353-17.113,2.624-34.217,4.1-51.334.291-3.357-.681-5.4-3.6-7.117-9.188-5.415-18.125-11.18-27.151-16.852-13.089-8.229-26.144-16.55-39.319-24.768-8.326-5.2-16.828-10.19-25.2-15.367s-16.676-10.492-25.041-15.733q-9.954-6.238-19.973-12.43c-.608-.378-1.085-1.048-2.125-.694q-1.671,25.484-3.339,51-1.557,23.942-3.091,47.885c-.156,2.459-.538,4.954.342,7.26a6.21,6.21,0,0,1,.2,2.218c-.291,18.627,3.507,36.159,8.827,53.215a119.881,119.881,0,0,0,18.9,36.912c7.162,9.477,15.534,17.856,26.209,23.873a43.418,43.418,0,0,0,8.119,3.589,24.538,24.538,0,0,0,16.3-.659,11.611,11.611,0,0,0,4.2-2.626c3.286-3.193,6.889-6.118,8.93-10.261.848-1.72,2.233-1.764,3.058-.279.519.934.924,1.936,1.4,2.894,4.315,8.616,8.407,17.352,13.008,25.777,3.153,5.781,5.872,11.78,8.86,17.632,4.514,8.85,9.14,17.623,13.726,26.408C1429.944,734.852,1430.1,735.456,1431.3,735.2Z"/><path class="cls-2" d="M1618.179,558.242c.944-9.837,1.8-19.668,2.888-29.512a9.025,9.025,0,0,0-2.354-7.776c-4.014-4.42-7.386-9.364-11.021-14.1-2.887-3.762-5.67-7.605-8.679-11.283a12.621,12.621,0,0,1-2.921-9.887c2.9-29.2,5.569-58.377,8.318-87.554.07-.744.126-1.487.214-2.231.506-4.289.535-4.212,5.228-4.842a125.329,125.329,0,0,0,12.816-2.206,62.448,62.448,0,0,1,6.706-1.2c4.254-.552,5.419-1.656,5.819-5.529.845-8.161,1.605-16.317,2.4-24.474,1.122-11.493,2.216-22.984,3.384-34.479.451-4.437.287-5.517-5.888-4.159-13.864,3.054-27.666,6.639-41.533,9.541-10.818,2.266-21.576,4.881-32.357,7.354-12,2.756-24.029,5.191-36.031,7.85-7.121,1.58-14.219,3.336-21.331,4.974-3.653.841-7.318,1.584-10.975,2.4a20.532,20.532,0,0,0-3.013.825,3.6,3.6,0,0,0-2.64,3.066c-.072.937-.186,1.876-.263,2.813-1.441,17.432-2.843,34.864-4.344,52.3a9.975,9.975,0,0,0,2.146,7.5c9,11.821,17.517,23.946,26.3,35.853,8.235,11.173,16.652,22.192,24.881,33.312,5.687,7.691,11.186,15.5,16.832,23.19,8.24,11.235,16.556,22.387,24.761,33.588,5.183,7.083,10.243,14.239,15.386,21.327q9.7,13.381,19.438,26.684a2.257,2.257,0,0,0,.783.7,1.515,1.515,0,0,0,1.045.16,1.309,1.309,0,0,0,.706-.786c.225-1.487.377-2.973.52-4.456q1.4-14.481,2.78-28.958Z"/><path class="cls-2" d="M1567.42,1111.138c.191-2.082.362-3.939.532-5.795q8.165-88.819,16.517-177.588c.485-5.05-.682-8.444-4.92-10.468a5.656,5.656,0,0,1-1.743-1.126c-4.2-4.543-9.672-7.751-14.279-11.9-4.459-4.011-9.476-7.471-14.248-11.184-.547-.426-1.054-.9-1.584-1.343-4.494-3.784-8.845-7.735-13.532-11.318-6.628-5.067-12.862-10.585-19.536-15.6-4.6-3.457-8.24-7.983-13.559-10.649a4.481,4.481,0,0,1-.8-.679c-4.923-4.169-9.534-8.721-14.877-12.4-4.8-3.311-8.4-7.9-13.656-10.688a10.035,10.035,0,0,1-1.6-1.362c-4.561-3.837-9.084-7.722-13.727-11.486a40.117,40.117,0,0,0-4.861-2.879c-.987,2.04-.813,3.676-.94,5.262q-5.486,68.81-10.885,137.651c-.664,8.466-1.276,16.927-2.02,25.4a5.853,5.853,0,0,0,1.809,5.292c8.4,7.734,16.708,15.538,25.039,23.29a3.992,3.992,0,0,0,.968.48c1.808-.943,1.1-2.37,1.2-3.511q3.485-41.962,6.881-83.9.807-9.851,1.628-19.7a16.9,16.9,0,0,1,.387-2.247c.155-.7,1.346-1.3,1.889-.931a17.756,17.756,0,0,1,2.074,1.589c2.568,2.344,5.241,4.6,7.612,7.113,2.164,2.3,5.1,3.657,7.464,5.691a6.385,6.385,0,0,1,2.411,6.067c-1.122,10.115-.172,19.935-1.41,30.1-1.255,10.331-1.821,20.613-2.684,30.917q-1.269,15.175-2.528,30.352c-.124,1.5-.187,2.994-.384,4.5a4.623,4.623,0,0,0,1.516,4.3q11.5,10.671,22.9,21.366a6.163,6.163,0,0,0,.838.6,1.528,1.528,0,0,0,2.235-1.034c.25-1.688.425-3.375.571-5.055q3.845-44.311,7.69-88.6c.13-1.487.26-2.975.375-4.3.767-.616,1.354-.714,1.761-.365,6.266,5.38,12.417,10.866,18.778,16.113,2.477,2.042,3.156,4.5,2.834,7.955q-5.139,55.427-9.953,110.846c-.628,7.134-1.322,5.581,3.536,10.166q10.522,9.935,21.1,19.755C1564.931,1110.475,1565.4,1111.536,1567.42,1111.138Z"/><path class="cls-2" d="M1451.687,461.712c.734-9.206,1.433-18.409,2.227-27.618a7.386,7.386,0,0,0-1.779-6c-6.04-6.921-11.811-14.066-17.7-21.132-1.735-2.081-3.547-4.106-5.217-6.235a6.769,6.769,0,0,1-1.588-5.1c.11-.942.144-1.882.217-2.823q3.008-38.955,6.032-77.9c.1-1.316.176-2.634.369-3.951.3-2.02.961-2.714,3.314-2.8,7.4-.271,14.831-2.648,22.223-2.366a11.337,11.337,0,0,0,1.857-.161,2.689,2.689,0,0,0,2.62-2.193c.2-1.125.281-2.255.373-3.38q2.122-26.184,4.24-52.362c.031-.375.05-.75.09-1.126.4-3.762-.606-4.7-4.4-3.659-5.169,1.426-10.307,1.06-15.473,2.476-4.623,1.267-9.472,1.4-14.216,2.129-5.558.858-11.109,1.843-16.664,2.734-3.915.628-7.887,1.345-11.739,1.727-5.189.515-10.376,1.43-15.466,2.348-4.719.851-9.539.686-14.188,2.377a4.991,4.991,0,0,1-1.848.341c-5.187-.231-10.373,1.251-15.463,2.165-5.339.959-10.712,1.463-16.053,2.442a131.508,131.508,0,0,1-14.831,2.29c-3.685.246-7.358,1.676-11.116,1.694a2.44,2.44,0,0,0-2.52,2.246c-.175,1.329-.27,2.659-.359,3.986-1,14.99-1.832,29.974-3.1,44.976a12.546,12.546,0,0,0,3.285,9.587q5.073,6.173,10.1,12.363,9.011,11.088,17.97,22.173c2.636,3.272,5.168,6.618,7.8,9.889,4.909,6.107,9.881,12.158,14.763,18.266,3.745,4.688,7.363,9.462,11.1,14.145,4.861,6.092,9.8,12.118,14.665,18.19,2.6,3.248,5.1,6.567,7.7,9.812,4.85,6.058,9.761,12.062,14.584,18.122,3.7,4.651,7.274,9.388,10.966,14.034,4.8,6.044,9.7,12.008,14.481,18.051,2.889,3.653,5.638,7.406,8.48,11.088a1.487,1.487,0,0,0,.984.353c.489.037.738-.273.783-.755.12-1.314.289-2.631.395-3.944q1.063-13.248,2.111-26.493Z"/><path class="cls-2" d="M1414.857,964.848c.15-1.971.279-3.661.407-5.35q4.059-53.409,8.142-106.8a23.669,23.669,0,0,0-.217-7.739c-.389-1.511-.017-3.331.111-5.022,1.079-14.308,2.1-28.61,3.347-42.93.287-3.281-.414-5.713-2.883-7.579-4.8-3.632-9.5-7.386-14.255-11.092a9.927,9.927,0,0,1-1.266-.978c-4.321-4.7-10.007-7.965-14.729-12.278-4.039-3.689-8.7-6.772-13.082-10.136-.709-.545-1.377-1.137-2.061-1.71-4.642-3.895-9.145-7.953-13.97-11.659-6.822-5.24-13.424-10.72-20.076-16.17-6.378-5.226-12.912-10.3-19.327-15.523-6.278-5.11-12.57-10.238-19.021-15.172-4.592-3.511-8.5-7.82-13.745-10.609-.474-.252-.859-.681-1.6-.321-1.074.958-.666,2.119-.733,3.171q-4.68,73.037-9.307,146.113c-.2,3.094.545,5.289,2.71,7.246,8.075,7.3,15.958,14.769,23.909,22.147.633.588,1.365,1.077,2.194,1.723,1.519-1.528,1.066-3.056,1.157-4.426q2.967-44.156,5.865-88.287c.114-1.707.243-3.417.437-5.129.062-.549.3-1.248,1-1.364a2.225,2.225,0,0,1,1.568.259c1.277.99,2.436,2.112,3.658,3.163,3.656,3.145,6.713,6.921,11.127,9.256.63.333,1.031.993,1.622,1.4,2.743,1.875,3.559,4.47,3.257,8.044-1.106,13.091-1.873,26.158-2.748,39.234a22.744,22.744,0,0,0,.213,7.247,16.775,16.775,0,0,1,.029,5.033c-.679,10.421-1.3,20.839-2.163,31.278a7.892,7.892,0,0,0,2.664,7.2c7.1,6.384,14,12.959,20.977,19.439a29.09,29.09,0,0,0,2.434,2.031,1.5,1.5,0,0,0,2.264-.973c.187-1.137.3-2.277.383-3.408q1.294-18.159,2.569-36.314a17.062,17.062,0,0,0-.225-5.547,12.408,12.408,0,0,1-.185-3.867q1.238-18.15,2.562-36.306a17.482,17.482,0,0,1,.351-2.264,1.58,1.58,0,0,1,1.882-1.017,2.915,2.915,0,0,1,.473.26,260.175,260.175,0,0,1,21.3,18.388,4.95,4.95,0,0,1,1.515,4.408c-.172,1.513-.223,3.019-.335,4.529q-3.522,47.846-7.024,95.711c-.1,1.322-.123,2.64-.3,3.966a5.073,5.073,0,0,0,1.721,4.828c2.742,2.445,5.38,4.994,8.06,7.5,5.229,4.883,10.433,9.781,15.688,14.616C1412.04,963.85,1412.588,965.116,1414.857,964.848Z"/><path class="cls-2" d="M1225.845,539.626a42.511,42.511,0,0,1,3.054,4.108c5.046,8.884,9.975,17.824,15,26.694,5.464,9.652,11,19.243,16.474,28.862,2.06,3.626,4.048,7.293,6.1,10.922a1.2,1.2,0,0,0,.868.6c.731.009,1-.585,1.06-1.164.117-1.145.179-2.288.249-3.431.977-15.809,1.9-31.613,2.974-47.426a13.4,13.4,0,0,0-2.073-8.376c-4.667-7.576-8.963-15.392-13.464-23.093-4.23-7.232-8.543-14.424-12.8-21.656-2.041-3.461-4.057-6.94-6.02-10.451a9.238,9.238,0,0,1-1.477-5.27c.551-8.213,1-16.419,1.524-24.629.018-.292.4-.606.81-1.191a29.681,29.681,0,0,1,5.284,2.953c9.562,6.512,19.194,12.916,28.809,19.312a2.252,2.252,0,0,0,1.609.333c.969-.245,1.065-1.123,1.179-1.884.058-.381.081-.762.108-1.143.054-.762.1-1.523.149-2.285q1.362-21.7,2.73-43.4c.06-.952.093-1.9.169-2.854a3.551,3.551,0,0,0-1.964-3.659c-2.6-1.523-5.042-3.258-7.6-4.844-7.995-4.961-16.048-9.865-24.039-14.865-14.72-9.215-29.4-18.532-44.2-27.771-8.536-5.334-17.236-10.478-25.785-15.833-11.628-7.286-23.177-14.71-34.813-22.057a58.4,58.4,0,0,0-5.578-3.028,1.214,1.214,0,0,0-1.815.94,21.131,21.131,0,0,0-.225,2.883q-1.83,36.919-3.639,73.848a16.776,16.776,0,0,0,.424,6.226,8.706,8.706,0,0,1,.235,3.387c-.878,10.45.747,20.522,2.623,30.41a135.019,135.019,0,0,0,7.342,25.765c4.272,10.517,9.289,20.57,15.965,29.7,4.566,6.249,9.331,12.3,15.245,17.454,5.169,4.506,10.083,9.211,16.2,12.7a49.617,49.617,0,0,0,16.2,5.706c5.321.925,10.487-.835,14.913-4.5C1220.382,545.365,1222.737,542.688,1225.845,539.626Z"/><path class="cls-2" d="M1280.8,393.558c.147-2.315.22-3.448.292-4.582q1.044-16.547,2.086-33.092a12.443,12.443,0,0,0,.083-3.962c-1.1-3.839-.5-7.851-.186-11.823a7.872,7.872,0,0,0-2.255-6.51c-5.412-5.823-10.434-11.973-15.764-17.885-2.483-2.754-5.262-5.251-7.55-8.2a7.486,7.486,0,0,1-1.738-5.637c.305-3.431.431-6.858.64-10.288q1.782-29.147,3.576-58.288.034-.572.071-1.143c.49-7.653-.174-7.238,8.071-7.6q7.491-.327,14.982-.665c1.249-.056,2.5-.08,3.747-.189,3.063-.267,3.492-.678,3.828-3.617.109-.95.143-1.9.2-2.851q1.411-21.948,2.819-43.892a32.136,32.136,0,0,0,.119-3.977,2.493,2.493,0,0,0-3.255-2.4c-5.442,1.663-10.84,1.072-16.253,1.5-5,.394-9.935.408-15,1.485-4.492.956-9.179.572-13.783.831-4.579.257-9.155,0-13.738,1.5a18.963,18.963,0,0,1-4.378.351c-8.129.625-16.2.286-24.408,1.931-5.119,1.027-10.437.58-15.668.847-3.955.2-7.913,0-11.854,1.388a13.388,13.388,0,0,1-3.749.348c-3.556.168-7.141.518-10.661.406-6.5-.208-12.908,1.727-19.374,2.073a2.42,2.42,0,0,0-2.388,2.375c-.144,1.344-.218,2.69-.287,4.034-.637,12.484-1.069,24.965-2.008,37.458-.3,4.037,1.181,6.936,3.559,9.7,4.9,5.71,9.766,11.446,14.735,17.09,4.6,5.221,9.4,10.271,13.944,15.516,5.883,6.794,11.533,13.755,17.394,20.543,4.515,5.232,9.222,10.309,13.814,15.467,1.736,1.95,3.428,3.934,5.1,5.928,4.186,4.981,8.273,10.031,12.534,14.941,4.5,5.191,9.176,10.245,13.744,15.372,1.726,1.939,3.4,3.915,5.067,5.9,4.153,4.96,8.2,9.993,12.434,14.878,4.473,5.166,9.175,10.146,13.65,15.3,4.225,4.863,8.3,9.838,12.411,14.778A22.467,22.467,0,0,0,1280.8,393.558Z"/><path class="cls-2" d="M1148.83,714.3l.36-7.088q1.92-38.046,3.9-76.083c.084-1.572-.85-3.8,1.439-4.646,1.616-.595,2.618,1.214,3.637,2.211a139.73,139.73,0,0,0,14.8,12.408c2.805,2.072,3.473,4.741,3.247,8.286-1,15.737-1.737,31.457-2.548,47.183-.137,2.672-.41,5.34.369,7.9a14.248,14.248,0,0,1,.073,4.538q-.314,6.9-.726,13.81c-.11,1.789.084,3.369,1.422,4.589q13.326,12.147,26.569,24.295c.107.1.35.057.581.087,1.246-.611.842-1.663.895-2.51.352-5.554.642-11.1.938-16.654a10.928,10.928,0,0,0,.045-3.413c-1.169-4-.476-8.259-.258-12.445q1.076-20.664,2.272-41.335c.082-1.456.269-2.92.41-4.4.787.05,1.287-.066,1.5.116,4.1,3.62,8.906,6.452,12.76,10.351,2.539,2.569,5.043,5.221,8.426,6.942,2.008,1.02,2.145,3.054,2.22,5.262.749,22.308-1.9,44.943-2.856,67.416-.371,8.775-.934,17.572-1.54,26.37a6.631,6.631,0,0,0,2.164,5.886c8.521,7.771,16.914,15.646,25.343,23.458.5.466.962,1.067,2.008.825,1.039-.664.657-1.68.71-2.531q2-32.32,3.938-64.628a9.882,9.882,0,0,0,.091-2.841c-1.352-5.279-.314-10.888,0-16.381,1.2-20.958,2.52-41.923,3.8-62.883.07-1.143.093-2.284.213-3.429a4.233,4.233,0,0,0-1.527-3.932c-2.647-2.213-4.74-5.009-8-6.6a7.459,7.459,0,0,1-2.16-1.673c-4.2-4.557-9.456-8.061-14.418-11.759-4.852-3.616-9.2-7.762-14.074-11.372-4.545-3.368-8.893-7.09-13.369-10.588-5.063-3.955-9.659-8.419-15.08-12.021a102.627,102.627,0,0,1-9.859-7.986c-4.751-4.087-9.658-8.039-14.674-11.8-5.043-3.78-9.174-8.559-14.789-11.7a7.459,7.459,0,0,1-1.29-1.059,209.83,209.83,0,0,0-17.855-14.2,44.579,44.579,0,0,1-4.145-3.726,21.639,21.639,0,0,0-5.836-4.321c-1.283-.577-1.94-2.815-3.846-1.569-1.546,1.012-.863,2.889-.962,4.364-.283,4.238-.459,8.472-.616,12.7a14.522,14.522,0,0,0,.164,4.543c.723,2.4.488,4.887.369,7.377q-2.394,50.238-4.79,100.5c-.055,1.156-.04,2.31-.178,3.467a5.437,5.437,0,0,0,1.848,5c8.938,8.2,17.8,16.453,26.7,24.649A11.258,11.258,0,0,0,1148.83,714.3Z"/><path class="cls-2" d="M1101.008,456.875c.316-6.746.522-13.486,1-20.237a12.947,12.947,0,0,0-2.415-8.432c-10-15.273-19.816-30.7-29.734-46.1-.2-.316-.418-.624-.633-.932-5.963-8.525-4.9-5.634-4.556-16.285.144-4.439.372-8.885.611-13.329.081-1.52,1.191-2.16,2.464-1.342,4.033,2.593,7.985,5.287,11.973,7.929q10.053,6.659,20.106,13.279a29.509,29.509,0,0,0,3.042,1.662,1.473,1.473,0,0,0,1.915-.993c.492-4.241,1.085-8.542.406-12.642a35.029,35.029,0,0,1-.412-7.384c.341-7.511.611-15.02,1.094-22.537.19-2.964-.655-4.988-3.334-6.567-7.312-4.31-14.462-8.856-21.638-13.376-12.9-8.127-25.756-16.355-38.718-24.489-8.873-5.57-17.9-10.96-26.791-16.547-13.022-8.187-25.926-16.574-39.046-24.718-5.655-3.512-11.461-6.826-16.854-10.693a1.536,1.536,0,0,0-2.585,1.25c-.208,3.5-.318,7.006-.445,10.508q-.241,6.713-.444,13.425a23.314,23.314,0,0,0,.516,7.471,16.922,16.922,0,0,1,.2,5.189c-.366,11.674-.783,23.351-1.151,35.026a36.184,36.184,0,0,0,.559,9.2c.741,3.3.464,6.845,1.1,10.262A157.4,157.4,0,0,0,965.68,355.6c5.2,12.936,12.546,24.511,21.236,35.358,3.2,4,7.277,7.2,10.212,11.414a17.516,17.516,0,0,0,5.65,4.777c3.831,2.243,6.428,5.887,10.462,7.972,3.258,1.684,6.172,3.891,9.387,5.643a34.971,34.971,0,0,0,14.845,3.838c6.768.374,12.384-2.636,16.62-8.177,1.28-1.674,2.2-1.663,3.184-.088q15.082,24.279,30.073,48.484c3.034,4.9,6.114,9.762,9.2,14.62a8.069,8.069,0,0,0,1.478,1.663,1.816,1.816,0,0,0,1.066.26c.484.014.727-.3.753-.787.157-2.889.337-5.78.479-8.669.248-5.012.473-10.023.709-15.034Z"/><path class="cls-2" d="M1107.693,289.954c.434-9.04.834-17.311,1.229-25.582.322-6.738.553-13.472,1-20.213a7.119,7.119,0,0,0-2.539-6.531c-6.5-5.408-11.4-12.226-17.826-17.749-2.6-2.234-4.619-5.036-6.949-7.545-.994-1.07-.962-2.375-1.04-3.727-1.242-21.437,1.209-43.077,1.773-64.611.119-4.542.692-5.689,6.094-4.841,4.156.652,8.281.424,12.445.408,2.914-.011,5.844-.4,8.7.382,2.046.561,3.052-.307,3.207-2.5.287-4.042.443-8.081.64-12.121.358-7.31.7-14.619,1.065-21.929a45.6,45.6,0,0,0-.509-10.244c-.52-2.977-.6-3.637-4.763-3.481q-8.857.33-17.71.565c-3.564.092-7.14.442-10.606-.511-1.514-.416-3.331-.127-5.015-.077-8.435.253-16.873.566-25.307.787-4.4.115-8.838.592-13.133-.5-1.531-.39-3.342-.068-5.028-.017-8.437.256-16.878.564-25.315.781-4.194.108-8.467.711-12.488-.563a1.882,1.882,0,0,0-.621-.063c-10.551.328-21.1.632-31.654,1.018-1.894.07-2.547.832-2.781,2.661-.1.775-.118,1.555-.146,2.333-.4,11.275-.765,22.55-1.214,33.828a7.114,7.114,0,0,0,1.943,5.755c4.712,4.862,9.129,9.964,13.756,14.885,2.776,2.952,5.631,5.856,8.461,8.735,4.063,4.135,7.8,8.529,11.917,12.612,4.508,4.473,8.6,9.306,12.865,13.975.389.426.795.839,1.2,1.252,4.312,4.391,9.02,8.492,12.813,13.245,3.585,4.494,7.923,8.319,11.729,12.593,3.787,4.254,7.7,8.474,11.77,12.533,4.456,4.448,8.519,9.231,12.75,13.863.386.423.774.844,1.176,1.253,4.269,4.359,8.927,8.431,12.692,13.144,3.556,4.454,8.235,7.921,11.513,12.588,2.152,3.064,5.409,5.284,7.86,8.212,4.231,5.053,9.135,9.593,13.785,14.314A10.575,10.575,0,0,0,1107.693,289.954Z"/><path class="cls-2" d="M982.242,559.754c.067-1.867.123-3.414.178-4.961q.99-27.986,1.981-55.964c.1-2.707.382-5.426-.558-8.008a10.008,10.008,0,0,1-.145-3.445c.023-1.2.291-2.533,1.605-3.018,1.033-.381,1.685.712,2.508,1.164,3.756,2.064,6.6,5.1,9.725,7.841,2.836,2.487,5.3,5.359,8.79,7.163,2.094,1.081,2.387,3.141,2.278,5.423-.382,7.957-.639,15.907-.937,23.861-.29,7.759-.6,15.52-.848,23.278-.119,3.665-.392,7.311.462,10.9.553,2.328.112,4.994-.06,7.515a5.789,5.789,0,0,0,2,5.028c8.3,7.593,16.54,15.233,24.785,22.84a3.007,3.007,0,0,0,.888.681,3.442,3.442,0,0,0,1.617.32,1.328,1.328,0,0,0,1-1.361c.157-3.661.806-7.366-.013-10.939a17.568,17.568,0,0,1-.365-4.539q.983-25.842,2.066-51.686a16.643,16.643,0,0,1,.239-1.7,1.343,1.343,0,0,1,1.692,0c6.555,6.157,14.078,11.277,20.57,17.491a9.388,9.388,0,0,1,3.262,8.452c-.465,4.641-.49,9.278-.639,13.911-.118,3.648-.591,7.321.429,10.853.45,1.561.069,3.435,0,5.172-.67,16.037-1.281,32.073-2.093,48.123-.167,3.322.619,5.762,3.05,7.93,7.756,6.919,15.283,14.053,22.89,21.085a24.31,24.31,0,0,0,2.529,2.16,2.362,2.362,0,0,0,1.591.3c.69-.111.932-.811.994-1.374.15-1.353.225-2.705.286-4.054q.817-17.937,1.622-35.868a24.412,24.412,0,0,0-.407-6.236,25.548,25.548,0,0,1-.135-6.28q1.713-38.463,3.485-76.919c.286-6.374,1.137-5.271-4-9.687-4.522-3.883-9.438-7.367-14.178-11.039-.744-.576-1.459-1.184-2.179-1.786-4.889-4.09-9.63-8.355-14.711-12.242-6.434-4.923-12.693-10.039-19.019-15.1-6.629-5.3-13.189-10.689-19.86-15.967-6.53-5.167-13.007-10.406-19.558-15.572-6.411-5.056-12.5-10.5-19.17-15.253-4.684-3.333-8.413-7.695-13.539-10.522a21.644,21.644,0,0,1-3.054-2.59q-6.617-5.468-13.276-10.905c-.563-.458-1.343-1-2.148-.245a2.942,2.942,0,0,0-.725,1.546,15.2,15.2,0,0,0-.156,2.335c-.072,1.947-.134,3.894-.2,5.841-.241,7.4-.51,14.8-.708,22.193-.1,3.677-.514,7.373.549,10.944.47,1.579.1,3.464.045,5.214q-1,30.958-2.02,61.925a39.316,39.316,0,0,1-.153,4.089,6.566,6.566,0,0,0,2.749,6.465c1.337,1.059,2.518,2.293,3.769,3.448q10.626,9.808,21.24,19.58C979.192,558.423,979.882,559.655,982.242,559.754Z"/><path class="cls-2" d="M929.213,256.918c.849-.573.624-1.387.648-2.107.383-11.5.6-22.992,1.2-34.494a7.408,7.408,0,0,0-3.818-7.213c-3.137-2.027-6.319-4-9.5-5.973q-20.61-12.81-41.292-25.667-18.415-11.5-36.831-23.115-18.984-11.905-38.04-23.833c-6.091-3.836-12.115-7.772-18.192-11.646a16.254,16.254,0,0,0-2.672-1.387c-.882-.353-1.735-.051-1.843.923-.174,1.569-.158,3.147-.188,4.721q-.465,24.207-.9,48.419c-.052,2.939-.385,5.912.775,8.711a6.875,6.875,0,0,1,.209,2.327c.344,10.663,3.18,20.681,6.928,30.476,2.781,7.273,6.562,14.057,10.325,20.827,3.477,6.258,8.053,11.84,12.5,17.465,6.9,8.73,15.492,15.944,24,23.111a81.9,81.9,0,0,0,21.194,12.79,33.958,33.958,0,0,0,17.411,2.128c3.214-.368,5.851-2.2,8.521-3.9,2.1-1.337,2.72-1.275,4.015.592,6.875,9.922,13.662,19.884,20.525,29.778q10.929,15.768,21.944,31.417a1.325,1.325,0,0,0,.984.463c.893-.023.876-.772.893-1.295.431-12.868.814-25.733,1.27-38.6a9.827,9.827,0,0,0-2.23-6.355q-6.6-9-13.115-18.094c-7.157-9.939-14.252-19.941-21.516-29.845A11.5,11.5,0,0,1,890,249.5c.283-3.889.547-7.8-.636-11.568-.314-1,.129-2.313.44-3.444a2.235,2.235,0,0,1,3.089-1.161c6.41,4.2,12.817,8.385,19.172,12.63,5.371,3.587,10.67,7.256,16.019,10.856C928.344,256.992,928.83,256.891,929.213,256.918Z"/><path class="cls-2" d="M930.013,183.532c1.221-.743.978-1.572,1-2.287.407-11.888.724-23.773,1.227-35.662a7.249,7.249,0,0,0-2.761-6.59c-1.542-1.218-2.839-2.7-4.353-3.949-7.291-6.029-13.087-13.39-20.124-19.664A5.9,5.9,0,0,1,903,110.2c.179-2.733.193-5.466.252-8.2.054-2.526.315-5.056-.585-7.5a9.521,9.521,0,0,1-.249-3.459q.478-17.274,1.016-34.547a21.355,21.355,0,0,1,.171-2.34,2.49,2.49,0,0,1,2.6-2.179,13.87,13.87,0,0,1,3.8-.086c3.064.673,6.34.411,9.3,1.032,3.549.744,7.105.5,10.644.76,3.922.288,3.993.3,4.124-2.971.266-6.623.453-13.243.654-19.864a8.043,8.043,0,0,0-.111-2.892c-1.162-3.181-.706-6.5-.65-9.8.03-1.752.135-3.509.081-5.253-.058-1.837-.716-2.665-2.594-2.5-5.788.5-11.236-1.52-17.022-.867-5.618-1.764-11.841-.037-17.51-1.649a14.364,14.364,0,0,0-3.8-.1c-2.751.014-5.494.23-8.167-.6a15.464,15.464,0,0,0-4.4-.239,27.849,27.849,0,0,1-6.9-.565,24.707,24.707,0,0,0-5.67-.284c-2.33-.014-4.685.232-6.9-.584a4.137,4.137,0,0,0-1.85-.291c-6.014.747-11.852-.458-17.651-1.033-6.055-.6-12.294.084-18.217-1.415a18.06,18.06,0,0,0-4.438-.13,23.941,23.941,0,0,1-6.282-.543,21.118,21.118,0,0,0-5.031-.339c-2.756-.016-5.5.176-8.175-.655A15.76,15.76,0,0,0,795.012.9c-2.754-.009-5.486.185-8.186-.606a15.987,15.987,0,0,0-5.049-.184c-2.22.1-2.971.8-3.029,3.043-.265,10.234-.43,20.466-.674,30.7a5.326,5.326,0,0,0,1.942,4.1c7,6.782,13.842,13.685,20.933,20.351,9.256,8.7,17.63,18.173,27.356,26.405,5.138,6.748,12.355,11.672,18.058,17.876,6.788,7.384,14.709,13.735,21.47,21.047,5.332,5.768,11.5,10.724,16.78,16.458,7.145,7.767,15.517,14.425,22.6,22.142,6.337,6.9,13.543,12.926,20.174,19.489A5.235,5.235,0,0,0,930.013,183.532Z"/><path class="cls-2" d="M779.388,273.2c-1.43,1.865-1.07,3.053-1.094,4.177q-.4,19.2-.714,38.407a11.766,11.766,0,0,0,.056,3.524c1.47,4.75.82,9.714.761,14.608-.144,11.815-.308,23.634-.686,35.461a8.974,8.974,0,0,0,3.219,7.63c8.841,7.923,17.5,16.01,26.218,24.007.692.635,1.488,1.166,2.16,1.687,1.589-.641,1.179-1.743,1.2-2.617q.444-19.464.818-38.923a12.389,12.389,0,0,0-.132-3.508c-1.667-5.91-.415-12.075-.483-18.122a1.431,1.431,0,0,1,.888-1.467,1.655,1.655,0,0,1,1.691.227,4.157,4.157,0,0,1,.48.337c5.806,5.729,12.341,10.687,18.689,15.821a9.465,9.465,0,0,1,3.727,8.528c-.546,14.333-.609,28.648-1.151,42.984-.157,4.183,1.244,8.02,1.105,12.15-.042,1.249.972,2.047,1.823,2.831Q850.946,432.9,863.91,444.8a7.77,7.77,0,0,0,.934.683,1.487,1.487,0,0,0,2.333-.932,7.142,7.142,0,0,0,0-2.9c-1.122-2.972-.763-6.121-.688-9.239q.519-21.446,1.088-42.889c.03-1.115.175-2.236.315-3.951a21.059,21.059,0,0,1,5.893,3.406c.993.914,1.983,1.833,3,2.721,3.478,3.036,6.576,6.451,10.694,8.828,1.659.957,2.839,2.587,4.34,3.8a6.077,6.077,0,0,1,2.372,5.546c-.25,3.913-.258,7.82-.364,11.73q-.183,6.744-.358,13.488a14,14,0,0,0-.024,3.5c1.65,6.831.508,13.941.469,20.934-.035,6.44-.26,12.9-.534,19.355a7.119,7.119,0,0,0,2.293,6.149c9.2,8.328,18.271,16.768,27.385,25.135a7.067,7.067,0,0,0,1.426.8c1.408-.628.989-1.717,1.019-2.58.284-8.2.518-16.389.762-24.582a8.491,8.491,0,0,0,.005-2.329c-1.658-6.214-.628-12.729-.464-19.127.553-21.45,1.273-42.909,1.933-64.361.036-1.17,0-2.34.115-3.51.209-2.185-.871-3.594-2.523-4.817-5.728-4.238-11.172-8.816-16.847-13.115-4.766-3.61-8.828-8.015-14.128-11.027a6.582,6.582,0,0,1-.923-.707c-5.036-4.2-9.832-8.706-15.189-12.54-4.9-3.51-8.91-8.008-14.227-11.044a10.169,10.169,0,0,1-1.365-1.093c-4.769-3.967-9.248-8.306-14.4-11.805-4.874-3.311-9.084-7.313-13.741-10.841s-9.271-7.143-13.727-10.931c-4.888-4.156-10.135-7.946-15.23-11.9-.465-.362-.93-.724-1.382-1.1-4.812-4-9.526-8.116-14.477-11.973C786.3,278.939,782.636,276.592,779.388,273.2Z"/><path class="cls-3" d="M2117,1084.657c-1.191,7.835-2.4,15.673-3.562,23.5-.472,3.187-1.293,6.451-.535,9.391a6.349,6.349,0,0,1-.133,2.093,89.324,89.324,0,0,0,1.91,31.759,33.053,33.053,0,0,0,7.339,13.608c1.456,1.726,3.768,2.829,5.977,3.805,2.79,1.233,4.875.5,7.776-2.066a20.176,20.176,0,0,0,4.947-6.207c2.932-6,5.311-12.017,6.238-18.1a9.324,9.324,0,0,1,.517-2.665c2.293-4.9,2.453-9.632,3.218-14.4,2.4-14.918,4.617-29.811,7.1-44.735.462-2.775-.1-4.487-2.222-5.834-6.484-4.116-12.764-8.484-19.182-12.709-4.014-2.643-8.3-4.979-11.979-8.017a1.461,1.461,0,0,0-1.939-.237,2.445,2.445,0,0,0-1.048,1.965c-.236,1.25-.409,2.495-.6,3.741Q2118.9,1072.106,2117,1084.657Z"/><path class="cls-3" d="M2001.488,1006.775c1.244-8.991,2.375-17.97,3.8-26.978.484-3.069-.529-4.7-2.861-6.21-9.959-6.444-19.689-13.19-29.547-19.821a10.783,10.783,0,0,0-2.306-1.051,2.063,2.063,0,0,0-2.377,1.28,36.342,36.342,0,0,0-.883,4.33q-2.248,16.509-4.426,33.011c-.493,3.767-1.2,7.546-.645,11.172.3,1.962-.358,4.277-.645,6.441a86.663,86.663,0,0,0,1.268,29.5,40.179,40.179,0,0,0,5.2,13.75,25.942,25.942,0,0,0,7.692,7.831,8.865,8.865,0,0,0,5.457,1.393,9.463,9.463,0,0,0,8.313-5.168,47.058,47.058,0,0,0,4.288-9.011c1.787-5.4,3.59-10.787,4.311-16.184,1.082-8.089,2.227-16.185,3.346-24.278Z"/><path class="cls-3" d="M2228.13,713.568c-5.458,1.046-31.284,10.971-47,18.068-.575,1.043.081,1.6.492,2.284q10.2,16.976,20.3,33.927c3.834,6.48,7.532,13.036,11.308,19.533.633,1.089,1.4,2.092,2.067,3.073a2.8,2.8,0,0,0,.779-.216.793.793,0,0,0,.233-.472q6.036-37.394,12.052-74.77A4.245,4.245,0,0,0,2228.13,713.568Z"/><path class="cls-3" d="M1815.791,848.838c-.231,1.973-.421,3.6-.611,5.224q-2.436,20.807-4.857,41.617a47.378,47.378,0,0,0-.307,9.673c.292,3.274.02,6.736.226,10.084.635,10.349,3.036,19.9,8.5,27.974,2.6,3.833,6.057,7.013,11.105,8.278,3.517.881,6.838-.341,9.3-3.582a26.293,26.293,0,0,0,3.152-5.16c1.893-4.294,3.6-8.629,4.145-13.035a20.086,20.086,0,0,1,1.294-5.463,16.394,16.394,0,0,0,1-4.36c1.776-14.38,3.448-28.748,5.315-43.134.339-2.613-.232-4.292-2.315-5.637-6.973-4.5-13.775-9.215-20.676-13.833-3.665-2.452-7.4-4.828-11.054-7.3A6.215,6.215,0,0,0,1815.791,848.838Z"/><path class="cls-3" d="M2061.086,672.517q2.149-15.06,4.3-30.117c.179-1.254.394-2.514.51-3.761.218-2.336-.454-2.835-2.954-2.058-6.12,1.9-12.245,3.782-18.337,5.826-7.078,2.376-14.119,4.934-21.265,6.888-.786.215-1.553.621-2.332.923-2.622,1.018-2.82,1.314-1.776,3.015,1.647,2.682,3.161,5.461,5.049,7.971,5.179,6.889,9.4,14.384,14.111,21.551,5.154,7.848,10.111,15.811,15.145,23.709.348.547.724,1.076,1.121,1.588a.661.661,0,0,0,.483.123.8.8,0,0,0,.853-.695c.24-1.434.513-2.872.718-4.3Q2058.907,687.844,2061.086,672.517Z"/><path class="cls-3" d="M1695,795.706c.769-7.365,1.368-14.719,2.387-22.1.435-3.155-.564-5.207-2.883-6.734q-9.147-6.024-18.342-12.023c-3.935-2.582-7.852-5.191-11.809-7.756-1.322-.856-2.707-1.642-4.114-2.391a1.629,1.629,0,0,0-2.2,1.3c-.148.74-.237,1.483-.312,2.22-1.1,10.9-2.209,21.8-3.257,32.689a34.612,34.612,0,0,0,.079,4.324,31.239,31.239,0,0,1,.106,4.318,74.622,74.622,0,0,0,2.781,29.653c2.251,7.64,6.025,14.228,12.305,19.1,2.763,2.143,5.745,3.692,10.124,2.851a8.234,8.234,0,0,0,5.988-3.822,41.319,41.319,0,0,0,3.127-5.8,50.652,50.652,0,0,0,3.611-13.173c.883-7.558,1.6-15.1,2.388-22.651Z"/><path class="cls-3" d="M1904.46,556.21c-15.415,3.66-30.841,7.944-46.143,12.156a2.862,2.862,0,0,0,.529,2.779c4.169,5.994,8.323,11.991,12.537,17.938,6.161,8.7,12.388,17.344,18.51,26.036,1.845,2.622,3.482,5.383,5.254,8.052a1.334,1.334,0,0,0,.929.356c.491.04.741-.258.805-.731.169-1.271.4-2.546.555-3.815q3.584-28.617,7.14-57.225C1904.8,559.98,1905.508,558.083,1904.46,556.21Z"/><path class="cls-3" d="M1495.387,662.021c-.36,4.306-.7,8.61-1.088,12.919a80.356,80.356,0,0,0,3.247,31.8,40.033,40.033,0,0,0,14.241,20.445,11.974,11.974,0,0,0,9.94,2.653,8.419,8.419,0,0,0,6.025-3.828,34.066,34.066,0,0,0,4.645-11.422c3.605-15.419,3.349-30.588,5.221-45.889a5.088,5.088,0,0,0-2.456-5.467c-7.978-5.125-15.99-10.232-23.822-15.569-3.549-2.42-6.878-5.1-10.687-7.225-.474-.264-.918-.572-1.415-.8a1.526,1.526,0,0,0-1.873,1.038c-.2,1.122-.364,2.248-.461,3.366C1496.383,650.039,1495.889,656.03,1495.387,662.021Z"/><path class="cls-3" d="M1737.344,508.143q1.395-12.933,2.784-25.864a40.128,40.128,0,0,0,.26-4.373,1.18,1.18,0,0,0-1.532-1.146c-3.023.957-6.068.953-9.06,1.677-7.821,1.895-15.65,3.37-23.5,4.79-3.009.545-6,1.388-9.046,1.719-2.687.292-3.734,2.006-2.423,3.827,2.94,4.085,5.988,8.093,9.024,12.1,7.943,10.5,15.824,21.018,23.856,31.4,1.662,2.15,2.685,4.866,5.376,6.191.825.407.968.208,1.944-8.86Q1736.186,518.876,1737.344,508.143Z"/><path class="cls-3" d="M1332.127,527.623c-.857,1.28-.6,2.6-.691,3.885q-.766,10.509-1.427,21.012c-.2,3.2-.678,6.427.248,9.494a11.685,11.685,0,0,1-.022,3.929c-.663,9.635,1.72,18.38,5.274,26.716,2.968,6.967,8.573,11.933,14.43,16.544a12.915,12.915,0,0,0,10.347,2.468,6.756,6.756,0,0,0,4.692-2.729,18.007,18.007,0,0,0,3.014-5.237c.842-3.169,2.2-6.292,2.417-9.541.829-12.265,1.7-24.533,2.672-36.806.214-2.7-.629-4.277-2.944-5.778-11.7-7.587-23.175-15.488-34.767-23.285C1334.461,527.683,1333.512,527.044,1332.127,527.623Z"/><path class="cls-3" d="M1570.191,425.9q1.042-11.452,2.086-22.9c.118-1.3.266-2.611.292-3.9.034-1.651-.93-2.621-2.492-2.1-4.718,1.58-9.5.69-14.028,1.97-7.176,2.031-14.3.706-21.382,3.218a19.716,19.716,0,0,1-3.057.305c-1.731.314-4.064-.6-5.028,1.314-.837,1.657,1.059,2.944,1.986,4.115,4.652,5.874,9.568,11.549,14.334,17.325,4.533,5.5,8.995,11.038,13.491,16.545a107.306,107.306,0,0,0,7.191,8.555c1.158,1.151,1.015,3.609,3.674,3.385.963-1.827.713-3.659.891-5.477.729-7.453,1.377-14.9,2.055-22.35Z"/><path class="cls-3" d="M1355.941,314.662a6.226,6.226,0,0,0,2,4.28c13.23,14.417,25.666,29.4,38.813,43.472,1.57-.33,1.641-1.071,1.7-1.825q1.671-22.583,3.347-45.161c.042-.564.082-1.131.072-1.689-.034-1.969-.6-2.455-2.947-2.469-1.021-.006-2.054.07-3.083.124q-10.807.574-21.614,1.156a11.538,11.538,0,0,0-3.08.239C1366.238,314.468,1361.3,314.079,1355.941,314.662Z"/><path class="cls-3" d="M1163.162,414.193c-.649,12.337-2.011,23.737-1.61,34.9.365,10.2,2.846,20.023,8.936,28.308,3.809,5.186,7.877,9.515,13.034,12.66a14.84,14.84,0,0,0,10.646,2.388,6.6,6.6,0,0,0,4.223-2.417c1.568-1.945,3.141-4.113,3.464-6.34.607-4.191,2.136-8.3,2.236-12.551.189-8,.617-16.033,1.357-24.064.327-3.542-1.131-5.757-3.7-7.541-3.7-2.566-7.492-5.016-11.246-7.522q-10.8-7.209-21.619-14.428C1167.34,416.558,1165.681,415.677,1163.162,414.193Z"/><path class="cls-3" d="M1181.3,225.921c-.038.181-.162.4-.1.534a3.949,3.949,0,0,0,.831,1.423c5.627,4.617,10.151,10.176,15.022,15.4,4.607,4.94,9.853,9.363,13.851,14.793a28.98,28.98,0,0,0,3.225,3.173c2.548,2.5,5.475,4.675,7.328,7.768a10.39,10.39,0,0,0,2.474,2.3,1.4,1.4,0,0,0,1.668.258,1.282,1.282,0,0,0,.814-1.435c-1.222-3.833-.427-7.89-.223-11.871.45-8.781,1-17.567,1.512-26.351.067-1.146.17-2.3.177-3.435.016-2.6-.437-3.284-3.017-3.075-10.431.844-20.563-1.055-31.026.11a14.965,14.965,0,0,1-6.118-.4,10.26,10.26,0,0,0-5.524.049C1181.867,225.246,1181.6,225.659,1181.3,225.921Z"/><path class="cls-3" d="M1032.183,344.391c.2-4.833.321-9.664.628-14.5a5.2,5.2,0,0,0-2.787-5.191c-12.569-7.633-24.491-16.115-36.649-24.34a14.031,14.031,0,0,0-1.527-.859c-1.384-.7-2.417-.185-2.519,1.3-.12,1.746-.167,3.491-.232,5.236-.159,4.265-.524,8.553-.417,12.791.2,7.865.772,15.653,3.108,23.131a42.526,42.526,0,0,0,9.05,15.563,48.09,48.09,0,0,0,12.151,10.394,26.553,26.553,0,0,0,7.112,2.728,7.616,7.616,0,0,0,8.883-3.895,18.5,18.5,0,0,0,2.643-8.438C1031.762,353.673,1031.993,349.031,1032.183,344.391Z"/><path class="cls-3" d="M1050.322,178.658c.005-5.8,1.234-11.422-.234-16.873-.383-1.418-.042-3.059.017-4.6.208-5.4.5-10.8.632-16.2.071-2.989-.849-3.929-3.82-3.976-6.653-.1-13.151-1.222-19.74-1.425-5.2-.16-10.237-1.2-15.5-.929-2.037.106-4.053-.533-6.091-.778a1.616,1.616,0,0,0-1.18.3c-.442.5-.2,1.058.184,1.5.252.291.546.549.814.827,9.5,9.87,19.463,19.3,29.639,28.512,4.15,3.757,7.163,8.472,11.686,11.9C1047.616,177.59,1048.152,178.74,1050.322,178.658Z"/><path class="cls-3" d="M812.574,194.114c-.053,2.358-.128,4.717-.156,7.073a41.021,41.021,0,0,0,7.046,23.54,60.557,60.557,0,0,0,17.917,17.441,26.91,26.91,0,0,0,8.92,3.549,6.751,6.751,0,0,0,7.826-3.54,23.75,23.75,0,0,0,2.594-9.133c.686-7.652.07-15.2-.645-22.733-.144-1.52-1.2-2.26-2.407-3.059-4.448-2.944-8.79-6.027-13.211-9.016q-12.283-8.311-24.641-16.582c-.633-.424-1.408-1.006-2.221-.279a2.81,2.81,0,0,0-.723,1.544,15.423,15.423,0,0,0-.12,2.355q-.108,4.421-.2,8.841Z"/><path class="cls-3" d="M823.464,40.921c.187,1.507,1.575,2.175,2.56,3.085,7,6.459,13.7,13.216,21.135,19.191S861.5,75.639,868.625,81.873a1.843,1.843,0,0,0,2.1.354c.114-1.884.307-3.949.35-6.009.1-4.662.337-9.3-.622-13.918-.616-2.967.009-6.215.068-9.337.022-1.17.052-2.342.019-3.508-.039-1.347-.824-2.027-2.272-2.246-4.105-.624-8.18-1.379-12.292-1.982q-16-2.349-32.039-4.6C823.812,40.6,823.636,40.808,823.464,40.921Z"/></g><g class="cls-4"><g class="cls-5"><path class="cls-6" d="M496.435,1549.94,424.8,1668.821H328.055l-70.973-72.486-54.065,72.486H106.273L2.522,1549.482l87.463.081,66.636,76.175,57.272-76.06,78.031.072,75.066,76.736,48.412-76.621Z"/><path class="cls-6" d="M843.379,1642.9l11.3,25.922H598.211L562.034,1550l235.38.218,11.218,25.923-153.474-.11,7.01,20.017,136.662.076,10.607,25.079-138.476-.049,7.6,21.712Z"/><path class="cls-6" d="M1310.943,1645.859l-133.49-.023-11.1,22.985h-92.181l67.52-118.283,83.605.078,220.338,118.2h-94.009Zm-42.554-24.659-64.434-37.853-15.706,37.824Z"/><path class="cls-6" d="M1621.766,1637.492l-48.492-.012,25.694,31.341h-90.357l-91.234-118.027,137.2.127c81.891.076,148.708,16.781,173.542,43.7,15.987,17.33,5.482,30.109-27.03,37.166l101.866,37.032h-96.745Zm-50.106-60.3-47.84-.034,28.319,34.542,48.729.021c36.323.016,48.886-6.374,39.457-17.149C1630.748,1583.628,1607.32,1577.218,1571.66,1577.193Z"/><path class="cls-6" d="M2111.9,1643.144l28.289,25.677H1883.723l-113.919-117.7,235.381.218,28.211,25.678-153.475-.109,20.116,19.827,136.661.076,27.044,24.843-138.476-.05,21.82,21.508Z"/></g><g class="cls-5"><path class="cls-6" d="M193.62,427.03,181,545.061l-41.482-.8-35.944-72.991L85.9,543.236l-41.482-.8L0,422.246l34.286.847L64.065,499.8l18.8-75.506,30.589.756,38.207,77.267,10.2-76.071Z"/><path class="cls-6" d="M354.056,522.677,365.318,548.6l-109.967-2.111L219.336,427.666l92.272,2.28,11.183,25.923-61.459-1.435,6.983,20.017,55.593,1.243,10.573,25.081-57.407-1.218,7.574,21.713Z"/><path class="cls-6" d="M552.085,529.52l-56.332-1.135,3.207,22.779-39.526-.759L446.57,433.281l32.774.81L618.71,553.462l-40.309-.773Zm-27.4-24.878L483.761,466.45l7.7,37.487Z"/><path class="cls-6" d="M679.145,523.8l-20.34-.417,25.651,31.341-38.743-.743-91.072-118.03,53.784,1.329c32.1.793,67.614,17.949,92.411,44.871,15.963,17.33,18.474,29.922,8.632,36.652l62.453,37.6-41.483-.8ZM628.6,463.508l-19.165-.448L637.706,497.6l20.054.434c14.948.324,16.833-5.912,7.419-16.688C655.617,470.4,642.885,463.841,628.6,463.508Z"/><path class="cls-6" d="M888.267,533.5l28.254,25.677-109.967-2.11L692.8,439.365l92.272,2.28,28.176,25.679-61.459-1.436,20.088,19.828,55.593,1.244,27.01,24.843-57.408-1.217,21.791,21.508Z"/></g><g class="cls-5"><path class="cls-6" d="M231.023,566.894l-20,118.137-48.366-.7-40.294-72.928-22.216,72.027-48.365-.7L0,562.649l40.91.751,34.356,76.64,23.6-75.574,36.5.67,42.785,77.2L193.121,566.2Z"/><path class="cls-6" d="M414.674,662.206l11.262,25.922-128.215-1.847L261.707,567.458l110.1,2.023,11.183,25.924-72.919-1.27,6.983,20.016,65.69,1.1,10.573,25.081-67.5-1.072,7.575,21.713Z"/><path class="cls-6" d="M646.274,668.565l-65.942-1,1.421,22.805-46.085-.664-2.831-117.269,39.105.718L721.374,692.386l-47-.677Zm-29.285-24.85-43.844-38.15,4.781,37.53Z"/><path class="cls-6" d="M796.224,662.516l-23.846-.367,25.651,31.342-45.172-.651L661.785,574.81l64.173,1.18c38.3.7,77.713,17.8,102.51,44.724,15.963,17.331,16.851,29.946,4.183,36.717l67.356,37.529-48.366-.7Zm-50.48-60.293-22.737-.4,28.272,34.542,23.625.383c17.611.286,20.827-5.97,11.413-16.745C776.755,609.062,762.692,602.517,745.744,602.223Z"/><path class="cls-6" d="M1040.346,671.712,1068.6,697.39l-128.213-1.848L826.63,577.84l110.1,2.023L964.9,605.542l-72.919-1.271L912.071,624.1l65.69,1.1,27.01,24.843-67.5-1.072,21.79,21.508Z"/></g><g class="cls-5"><path class="cls-6" d="M268.426,706.758,241.06,825l-55.248-.6-44.646-72.865-26.76,72.093-55.249-.6L0,703.051l47.533.657,38.934,76.574,28.406-75.644,42.408.585,47.363,77.135,19.743-76.208Z"/><path class="cls-6" d="M475.292,801.735l11.262,25.923-146.462-1.585L304.077,707.25,432,709.017l11.183,25.923L358.8,733.835l6.983,20.017,75.788.953,10.573,25.08-77.6-.927,7.575,21.713Z"/><path class="cls-6" d="M740.463,807.611l-75.552-.858-.365,22.831-52.643-.57L619.1,711.6l45.436.627,159.5,119.082-53.686-.581ZM709.3,782.788,662.529,744.68l1.859,37.572Z"/><path class="cls-6" d="M913.3,801.232l-27.353-.316L911.6,832.257,860,831.7l-91.072-118.03,74.563,1.03c44.505.615,87.81,17.658,112.607,44.579,15.963,17.331,15.228,29.97-.265,36.781l72.259,37.459-55.249-.6Zm-50.416-60.294-26.308-.345,28.271,34.543,27.2.331c20.273.247,24.82-6.027,15.406-16.8C897.893,747.72,882.5,741.194,862.888,740.938Z"/><path class="cls-6" d="M1192.426,809.924,1220.68,835.6l-146.461-1.585-113.757-117.7,127.922,1.767,28.176,25.678-84.381-1.105,20.088,19.828,75.788.953,27.01,24.843-77.6-.926,21.79,21.508Z"/></g><g class="cls-5"><path class="cls-6" d="M305.829,846.622,271.093,964.971l-62.131-.5-49-72.8-31.306,72.158-62.132-.5L0,843.454l54.157.561,43.512,76.508L130.88,844.81l48.316.5,51.942,77.07L255.654,846.1Z"/><path class="cls-6" d="M535.91,941.265l11.261,25.922-164.708-1.322L346.448,847.043l145.746,1.509,11.183,25.924-95.841-.94,6.983,20.017,85.885.807,10.573,25.08-87.7-.781,7.575,21.713Z"/><path class="cls-6" d="M834.652,946.657l-85.162-.719-2.151,22.856-59.2-.475L705.371,850.76l51.767.537L926.7,970.233l-60.375-.484Zm-33.05-24.8L751.913,883.8l-1.063,37.614Z"/><path class="cls-6" d="M1030.383,939.948l-30.86-.266,25.652,31.342-58.03-.466L876.074,852.529l84.952.88c50.706.525,97.908,17.512,122.705,44.433,15.963,17.331,13.6,29.993-4.713,36.845l77.161,37.388-62.132-.5Zm-50.35-60.295-29.88-.293L978.424,913.9l30.769.279c22.935.209,28.814-6.085,19.4-16.86C1019.031,886.377,1002.305,879.871,980.033,879.653Z"/><path class="cls-6" d="M1344.506,948.136l28.254,25.677-164.708-1.322L1094.3,854.789l145.747,1.51,28.175,25.678-95.841-.94,20.088,19.828,85.885.808,27.01,24.843-87.7-.781,21.79,21.508Z"/></g><g class="cls-5"><path class="cls-6" d="M344.985,986.5l-41.944,118.454-69.015-.4-53.446-72.738-35.753,72.222-69.014-.4L1.753,983.87l60.78.466,48.193,76.441L148.639,985l54.226.416,56.624,77,29.184-76.345Z"/><path class="cls-6" d="M598.407,1080.806l11.3,25.922-182.956-1.059-36.177-118.82L554.142,988.1l11.219,25.923-107.3-.775,7.011,20.017,95.983.662,10.607,25.079-97.8-.635,7.6,21.712Z"/><path class="cls-6" d="M930.725,1085.714l-94.773-.58-3.9,22.881-65.76-.381,27.1-117.7,58.1.445,179.79,118.789-67.063-.388Zm-34.967-24.768L843.1,1022.923l-3.934,37.655Z"/><path class="cls-6" d="M1149.334,1078.675l-34.366-.215,25.695,31.341-64.459-.373L984.97,991.4l95.343.73c56.907.436,108.028,17.367,132.862,44.288,15.987,17.33,12.022,30.015-9.11,36.908l82.115,37.317-69.016-.4Zm-50.368-60.294-33.451-.242,28.318,34.542,34.341.229c25.6.17,32.8-6.143,23.369-16.918C1141.966,1025.047,1123.9,1018.561,1098.966,1018.381Z"/><path class="cls-6" d="M1498.465,1086.359l28.289,25.677-182.954-1.059-113.92-117.7,163.572,1.253,28.211,25.678-107.3-.775,20.116,19.828,95.983.661,27.044,24.843-97.8-.635,21.82,21.508Z"/></g><g class="cls-5"><path class="cls-6" d="M380.635,1126.35l-49.476,118.562-75.9-.3-57.7-72.677-40.4,72.289-75.9-.3L0,1124.26l67.4.37,52.668,76.376,42.822-75.852,60.135.33,61.1,76.938,34.062-76.415Z"/><path class="cls-6" d="M657.145,1220.324l11.262,25.922-201.2-.8-36.015-118.823,181.4,1,11.183,25.924-118.763-.61,6.982,20.017,106.081.516,10.573,25.08-107.895-.49,7.574,21.713Z"/><path class="cls-6" d="M1023.031,1224.748l-104.384-.442-5.722,22.908-72.318-.286,37.3-117.848,64.43.354,189.693,118.647-73.752-.292Zm-36.817-24.741-55.532-37.981-6.908,37.7Z"/><path class="cls-6" d="M1264.541,1217.38l-37.872-.165,25.652,31.342-70.888-.281-91.071-118.029,105.732.58c63.109.347,118.1,17.222,142.9,44.143,15.963,17.331,10.357,30.04-13.61,36.973l86.967,37.247-75.9-.3Zm-50.22-60.3-37.022-.19,28.271,34.543,37.912.177c28.26.132,36.8-6.2,27.386-16.976C1261.306,1163.692,1241.919,1157.224,1214.321,1157.083Z"/><path class="cls-6" d="M1648.665,1224.559l28.254,25.678-201.2-.8-113.757-117.7,181.4,1,28.176,25.679-118.764-.61,20.088,19.828,106.08.516,27.01,24.844-107.895-.49,21.79,21.508Z"/></g><g class="cls-5"><path class="cls-6" d="M418.038,1266.214l-56.847,118.668-82.781-.2-62.048-72.615-44.943,72.355-82.781-.2L0,1264.663l74.027.274,57.246,76.31,47.627-75.921,66.044.245,65.675,76.872,38.834-76.484Z"/><path class="cls-6" d="M717.763,1359.853l11.262,25.923-219.45-.534L473.56,1266.42l199.221.739,11.183,25.923-130.225-.444,6.983,20.017,116.178.37,10.573,25.081-117.993-.345,7.575,21.713Z"/><path class="cls-6" d="M1117.22,1363.794l-113.994-.3-7.508,22.934-78.877-.192,47.331-117.992,70.761.263L1234.691,1387l-80.44-.195Zm-38.7-24.714-58.455-37.939-9.83,37.739Z"/><path class="cls-6" d="M1381.621,1356.1l-41.379-.114,25.651,31.341-77.315-.188-91.072-118.029,116.122.431c69.31.257,128.2,17.076,153,44,15.963,17.331,8.734,30.063-18.057,37.037l91.869,37.176-82.782-.2Zm-50.155-60.3-40.594-.138,28.271,34.542,41.483.126c30.922.093,40.794-6.258,31.38-17.034C1382.444,1302.35,1361.726,1295.9,1331.466,1295.8Z"/><path class="cls-6" d="M1800.745,1362.771,1829,1388.449l-219.449-.534-113.757-117.7,199.222.739,28.175,25.679-130.225-.445,20.088,19.828,116.178.371,27.01,24.843-117.992-.344,21.79,21.508Z"/></g><g class="cls-5"><path class="cls-6" d="M457.767,1406.083l-64.055,118.772-89.664-.1-66.5-72.551-49.39,72.419-89.664-.1L2.326,1405.071l80.65.179,61.927,76.242,52.329-75.988,71.953.16,70.358,76.8,43.5-76.551Z"/><path class="cls-6" d="M780.833,1499.386l11.3,25.922-237.7-.271-36.178-118.82,217.046.483,11.219,25.923-141.686-.28,7.01,20.016,126.275.226,10.608,25.08-128.091-.2,7.605,21.713Z"/><path class="cls-6" d="M1213.866,1502.843l-123.605-.165L1081,1525.636l-85.435-.1,57.2-118.134,77.092.172,209.986,118.354-87.13-.1Zm-40.617-24.687-61.429-37.9-12.7,37.781Z"/><path class="cls-6" d="M1501.145,1494.815l-44.885-.063,25.694,31.341-83.744-.1-91.235-118.027,126.512.282c75.512.167,138.321,16.93,163.155,43.851,15.987,17.329,7.152,30.085-22.454,37.1l96.823,37.105-89.665-.1Zm-50.173-60.3-44.166-.087,28.319,34.542,45.055.074c33.584.055,44.778-6.315,35.35-17.091C1505.953,1441.012,1483.894,1434.582,1450.972,1434.518Z"/><path class="cls-6" d="M1955.277,1500.986l28.289,25.677-237.7-.27-113.919-117.7,217.047.482,28.211,25.678-141.686-.279,20.115,19.827,126.275.226,27.045,24.843-128.09-.2,21.82,21.508Z"/></g></g></g></g></svg>