<svg xmlns="http://www.w3.org/2000/svg" viewBox="0 0 380.8276 488.2973"><defs><style>.cls-1{opacity:0.37;}.cls-2{opacity:0.68;}.cls-3{fill:#8d7ba3;}.cls-4{opacity:0.91;}.cls-5{fill:#947fa5;}</style></defs><title>weareSM2</title><g id="Layer_2" data-name="Layer 2"><g id="Layer_1-2" data-name="Layer 1"><g class="cls-1"><g class="cls-2"><path class="cls-3" d="M22.3286,1.576,22.063,25.1312l-5.8021-.02-3.9-12.5784L10.94,25.0926l-5.8028-.02L0,1.576H4.5746l3.15,13.3655L9.3006,1.576h4.0855l4.2668,13.5549L18.1111,1.576Z"/><path class="cls-3" d="M39.5952,19.1916l1.89,6.007-13.3476-.0464L23.0973,1.576H33.81l1.876,6.0068-6.6969-.0069.7019,2.7636,6.0245.0088,1.7509,5.7363-6.32-.0145.7875,3.1007Z"/><path class="cls-3" d="M58.9837,21.1373l-5.91-.0175.6318,4.1212-5.5035-.0191L45.3284,1.576h4.3679l17.862,23.713L61.9625,25.27Zm-4.0283-5.7567L50.9081,9.4241l1.1615,5.95Z"/><path class="cls-3" d="M71.6756,19.3467l-1.4024-.0038L73.5871,25.31l-5.4126-.0188L55.9632,1.576h6.3449c3.671,0,8.1775,3.463,11.6278,8.9643,2.15,3.4288,2.7413,6.0072,1.8246,7.4621l7.8035,7.3422-5.779-.02ZM65.5445,7.7486l-1.7113-.0018,3.0883,5.5608,1.794.0034c1.3559.0025,1.3856-1.0483.3712-2.7779S66.8378,7.75,65.5445,7.7486Z"/><path class="cls-3" d="M93.8751,19.3387l4.48,6.0572L85.0068,25.35,69.7805,1.576H80.4927L84.959,7.6329l-6.6964-.0068,1.8951,2.7867,6.0238.0088,4.2249,5.7842-6.3191-.0144,2.1262,3.1266Z"/><path class="cls-3" d="M29.4986,36.2669l-1.62,23.5288-7.3315-.05L15.9643,47.1543,13.8236,59.7l-7.3324-.05L0,36.128l6.0435.0284,3.8876,13.38,2.3561-13.35,5.3974.0254L22.689,49.78l1.2378-13.54Z"/><path class="cls-3" d="M50.5305,53.9553l1.89,6.007-16.866-.1145-5.04-23.5762,14.1528.0667,1.8761,6.0067-8.7344-.0463.7019,2.7636,7.814.0434,1.7509,5.7363-8.1093-.0491.7875,3.1007Z"/><path class="cls-3" d="M75.0326,56l-7.5184-.0487.3476,4.1156L60.9075,60.02,59.884,36.41l5.77.0272L85.3666,60.1859l-7.0709-.048Zm-4.4212-5.7644L66.153,44.2713l.75,5.9423Z"/><path class="cls-3" d="M91.46,54.2819l-1.79-.0113,3.3139,5.967-6.8393-.0464L73.9338,36.4761l8.3824.0395c4.85.0228,10.106,3.5,13.5563,9.0016,2.15,3.4287,2.4512,6.0016,1.0266,7.4466l8.6922,7.3594-7.3023-.05ZM85.4619,42.6863l-2.2312-.0118,3.0882,5.5608,2.314.0134c1.7489.01,1.9661-1.037.9517-2.7665A4.9136,4.9136,0,0,0,85.4619,42.6863Z"/><path class="cls-3" d="M119.8013,54.3929l4.48,6.0572-16.8668-.1145L92.1881,36.5621l14.1521.0666,4.4662,6.0569-8.7336-.0463,1.8951,2.7867,7.8132.0434,4.2249,5.7843-8.1085-.0491,2.1262,3.1266Z"/><path class="cls-3" d="M36.6687,70.9577,33.6945,94.46l-8.861-.0794L19.5675,81.776l-2.86,12.5321-8.862-.0794L0,70.68l7.5125.0569,4.6252,13.3941,3.1361-13.3353,6.7093.0508L27.725,84.43l2.0176-13.5246Z"/><path class="cls-3" d="M61.4658,88.7191l1.89,6.007L42.971,94.5434l-5.04-23.5762,17.5929.1333L57.4,77.1072l-10.7718-.0857.7019,2.7636,9.6035.078L58.6845,85.6l-9.8988-.0838.7875,3.1006Z"/><path class="cls-3" d="M91.0816,90.863l-9.1266-.08.0634,4.11-8.405-.0753L74.44,71.2438l7.1731.0544,21.562,23.7847-8.5459-.0766Zm-4.8143-5.772-4.87-5.9724.3394,5.9342Z"/><path class="cls-3" d="M111.2446,89.2171l-2.1765-.0188,3.3138,5.967-8.2661-.074L91.9045,71.3762l10.42.0789a18.9459,18.9459,0,0,1,15.4848,9.039c2.15,3.4287,2.161,5.996.2286,7.4311l9.5809,7.3767-8.8257-.0791Zm-5.8653-11.593-2.7512-.0219,3.0882,5.5608,2.834.0235c2.1419.0178,2.5466-1.0257,1.5322-2.7553A5.3354,5.3354,0,0,0,105.3793,77.6241Z"/><path class="cls-3" d="M145.7275,89.4471l4.48,6.0572-20.3854-.1827L114.5957,71.5481l17.5919.1333,4.4663,6.0569-10.7709-.0858,1.8951,2.7867,9.6025.0781,4.2249,5.7842-9.8978-.0838,2.1262,3.1266Z"/><path class="cls-3" d="M43.8387,105.6485,39.51,129.1249l-10.39-.109-5.9491-12.6182-3.58,12.5182-10.3917-.1091L0,105.2318l8.9815.0853,5.3629,13.4084,3.916-13.32,8.0212.0762,6.4794,13.5977,2.7973-13.51Z"/><path class="cls-3" d="M72.4011,123.4829l1.89,6.0069-23.9028-.2508-5.04-23.5762,21.033.2,1.876,6.0067-12.8093-.1252.7019,2.7635,11.393.1128,1.7509,5.7363-11.6883-.1185.7876,3.1007Z"/><path class="cls-3" d="M107.1305,125.7258l-10.7347-.1109-.2209,4.1046-9.8557-.1035,2.6762-23.5383,8.5757.0816,23.412,23.8205-10.021-.1052Zm-5.2072-5.78-5.2806-5.98-.0717,5.9263Z"/><path class="cls-3" d="M131.0291,124.1523l-2.5636-.0263,3.3138,5.967-9.6928-.1017-12.2113-23.7151,12.4572.1184c7.2075.0686,13.963,3.5751,17.4133,9.0764,2.15,3.4287,1.8709,5.99-.5693,7.4157l10.47,7.3938-10.3491-.1086Zm-5.7324-11.59-3.2712-.032,3.0882,5.5608,3.3541.0336c2.5348.0254,3.127-1.0145,2.1125-2.7441A5.8482,5.8482,0,0,0,125.2967,112.5619Z"/><path class="cls-3" d="M171.6537,124.5013l4.48,6.0571-23.904-.2508-15.2263-23.7735,21.0318.2,4.4663,6.0569-12.8082-.1252,1.8951,2.7867,11.3918.1127,4.225,5.7843-11.6872-.1185,2.1262,3.1266Z"/><path class="cls-3" d="M51.0088,140.3393,45.326,163.79l-11.92-.1387-6.6324-12.6314-4.299,12.5043-11.9212-.1387L0,139.7837l10.45.1138L16.5511,153.32l4.6959-13.3051,9.3331.1017,7.2169,13.612,3.5771-13.4944Z"/><path class="cls-3" d="M83.3364,158.2466l1.89,6.007-27.4212-.319-5.04-23.5762,24.473.2666,1.876,6.0067-14.8467-.1647.7019,2.7636,13.1826.1474,1.7509,5.7364-13.4779-.1532.7876,3.1007Z"/><path class="cls-3" d="M123.18,160.5886l-12.3428-.1421-.5052,4.0991-11.3064-.1315,4.5259-23.5025,9.9783.1087,25.262,23.8564-11.496-.1337Zm-5.6-5.7872-5.6917-5.9883-.4827,5.9183Z"/><path class="cls-3" d="M150.8136,159.0875l-2.9507-.0338,3.3139,5.967-11.12-.1293-12.2114-23.7151,14.4947.1579c8.3863.0913,15.8915,3.6123,19.3418,9.1137,2.15,3.4287,1.5808,5.9847-1.3673,7.4l11.3583,7.4111-11.8725-.1381Zm-5.6-11.5878-3.7912-.0421,3.0882,5.5608,3.8741.0436c2.9278.0331,3.7074-1.0032,2.693-2.7328S148.0794,147.5315,145.2141,147.5Z"/><path class="cls-3" d="M197.58,159.5555l4.48,6.0571-27.4225-.319L159.4109,141.52l24.4717.2666,4.4663,6.0569-14.8455-.1647,1.8951,2.7867,13.1812.1474,4.2249,5.7843-13.4765-.1532,2.1262,3.1266Z"/><path class="cls-3" d="M58.1788,175.03,51.1417,198.454l-13.4492-.1682L30.377,185.6411l-5.0185,12.49-13.4508-.1683L0,174.3356l11.9194.1423,6.8383,13.4369,5.4759-13.29,10.645.1271,7.9544,13.6263L47.19,174.8989Z"/><path class="cls-3" d="M94.2717,193.01l1.89,6.007L65.2218,198.63l-5.04-23.5762,27.913.3333,1.876,6.0067L73.0867,181.19l.7019,2.7636,14.9721.1821,1.7509,5.7363-15.2674-.1878.7876,3.1007Z"/><path class="cls-3" d="M139.2284,195.4515l-13.9509-.1733-.7894,4.0936-12.7571-.16,6.3757-23.4667,11.3809.1359L156.6,199.7736l-12.971-.1623Zm-5.9932-5.7948-6.1027-5.9964-.8938,5.91Z"/><path class="cls-3" d="M170.5982,194.0227l-3.3379-.0413,3.3139,5.967-12.5464-.1569-12.2113-23.7152,16.5321.1974c9.5651.1142,17.82,3.65,21.27,9.151,2.15,3.4288,1.2906,5.9792-2.1653,7.3848l12.247,7.4283-13.3958-.1676Zm-5.4666-11.5853-4.3113-.0521,3.0882,5.5608,4.3941.0537c3.3208.0406,4.2879-.992,3.2735-2.7216S168.39,182.4768,165.1316,182.4374Z"/><path class="cls-3" d="M223.506,194.61l4.48,6.0571-30.9411-.3871-15.2263-23.7736,27.9115.3332,4.4663,6.0569-16.8827-.2041,1.8951,2.7867,14.9705.182,4.225,5.7843-15.2659-.1878,2.1262,3.1266Z"/><path class="cls-3" d="M65.3489,209.7209l-8.3914,23.3977-14.9787-.1979L33.98,220.2628l-5.738,12.4764-14.98-.1979L0,208.8875l13.3883.1707L20.9644,222.51,27.22,209.2347l11.957.1525,8.6919,13.6405,5.1366-13.4642Z"/><path class="cls-3" d="M105.2071,227.7741l1.8895,6.007-34.4579-.4553-5.04-23.5762,31.353.4,1.876,6.0067-18.9216-.2436.702,2.7635,16.7615.2168,1.7509,5.7363-17.0569-.2224.7876,3.1006Z"/><path class="cls-3" d="M155.2774,230.3143l-15.5591-.2044-1.0736,4.0881-14.2079-.1878,8.2255-23.4308,12.7835.1631,28.962,23.928-14.4461-.1909Zm-6.3862-5.8024-6.5138-6.0043-1.3049,5.9024Z"/><path class="cls-3" d="M190.3827,228.9579l-3.725-.0488,3.3139,5.967-13.9731-.1846-12.2114-23.7151,18.57.2368c10.744.1371,19.7486,3.6871,23.1988,9.1884,2.15,3.4288,1.0005,5.9735-2.9632,7.3694l13.1356,7.4455-14.9191-.1972Zm-5.3337-11.5827-4.8313-.0622,3.0882,5.5608,4.9141.0638c3.7139.0482,4.8684-.9808,3.854-2.71S188.7,217.4222,185.049,217.3752Z"/><path class="cls-3" d="M249.4322,229.6638l4.48,6.0572-34.46-.4553-15.2263-23.7736,31.3514.4,4.4663,6.0569-18.92-.2436,1.8951,2.7867,16.76.2167,4.2249,5.7843-17.0552-.2225,2.1262,3.1266Z"/><path class="cls-3" d="M72.5189,244.4118l-9.7457,23.3714-16.5081-.2275-8.6817-12.6711L31.126,267.347l-16.51-.2276L0,243.4394l14.8573.1992,8.3138,13.4655,7.0356-13.26,13.2688.1779,9.43,13.6549,5.9163-13.4491Z"/><path class="cls-3" d="M116.1424,262.5379l1.8895,6.007-37.9763-.5235-5.04-23.5762,34.7931.4665,1.876,6.0068-20.9591-.2832.702,2.7636,18.551.2514,1.7509,5.7364L92.8832,259.13l.7876,3.1007Z"/><path class="cls-3" d="M171.3263,265.1771l-17.1672-.2355-1.3579,4.0825-15.6585-.2158,10.0753-23.395,14.1861.19,30.8119,23.9639-15.9211-.2194Zm-6.7792-5.81-6.9248-6.0123-1.716,5.8945Z"/><path class="cls-3" d="M210.1672,263.8931l-4.1121-.0563,3.3139,5.967-15.4-.2122-12.2113-23.7151,20.607.2763c11.9228.16,21.6771,3.7244,25.1274,9.2257,2.15,3.4288.71,5.9679-3.7613,7.3539l14.0243,7.4627-16.4425-.2266Zm-5.2008-11.58-5.3513-.0723,3.0882,5.5608,5.4341.0739c4.1069.0558,5.4489-.97,4.4345-2.6991S209.0107,252.3676,204.9664,252.313Z"/><path class="cls-3" d="M275.3584,264.718l4.48,6.0572-37.9783-.5235-15.2263-23.7735,34.7913.4665,4.4663,6.0568-20.9573-.2831,1.8951,2.7867,18.5492.2514,4.2249,5.7843-18.8445-.2571,2.1262,3.1266Z"/><path class="cls-3" d="M79.689,279.1026l-11.1,23.3452-18.0375-.2572-9.3649-12.6843L34.01,301.9548l-18.04-.2572L0,277.9913l16.3263.2277,9.0514,13.48,7.8156-13.2446,14.5807.2033,10.1671,13.6692,6.696-13.434Z"/><path class="cls-3" d="M127.0777,297.3017l1.8895,6.0069-41.4947-.5916-5.04-23.5762,38.2331.5332,1.876,6.0067-22.9965-.3226.702,2.7636,20.3406.2861,1.7509,5.7363-20.636-.2918.7876,3.1007Z"/><path class="cls-3" d="M187.3753,300.04,168.6,299.7732l-1.6421,4.0771-17.1093-.2439,11.9252-23.3592,15.5887.2174,32.6618,24-17.3961-.248Zm-7.1722-5.8177-7.336-6.02-2.127,5.8865Z"/><path class="cls-3" d="M229.9517,298.8283l-4.4992-.0638,3.3139,5.967-16.8266-.24-12.2113-23.7151,22.6444.3158c13.1016.1827,23.6056,3.7618,27.0559,9.2631,2.15,3.4288.42,5.9623-4.5593,7.3384l14.913,7.48-17.9658-.2562Zm-5.0679-11.5776-5.8713-.0823,3.0883,5.5608,5.954.0839c4.5.0635,6.0294-.9582,5.015-2.6878S229.3211,287.313,224.8838,287.2507Z"/><path class="cls-3" d="M301.2846,299.7722l4.48,6.0572-41.4969-.5917-15.2263-23.7735,38.2312.5331,4.4662,6.0569-22.9944-.3226,1.895,2.7867,20.3386.2861,4.2249,5.7843-20.6339-.2918,2.1262,3.1266Z"/><path class="cls-3" d="M86.8591,313.7934l-12.4544,23.319-19.5669-.2868L44.79,324.128l-7.8964,12.4345-19.5692-.2868L0,312.5432l17.7952.2561,9.7892,13.4942L36.18,313.064l15.8926.2287,10.9046,13.6834,7.4758-13.4189Z"/><path class="cls-3" d="M138.013,332.0654l1.8895,6.007-45.0131-.66-5.04-23.5762,41.6732.6,1.876,6.0067-25.034-.362.702,2.7636,22.13.3207,1.7509,5.7364-22.4255-.3265.7876,3.1006Z"/><path class="cls-3" d="M203.4242,334.9028l-20.3834-.2979-1.9264,4.0716-18.56-.2721,13.7749-23.3233,16.9913.2446,34.5119,24.0355-18.8712-.2766Zm-7.5652-5.8253-7.747-6.0282-2.538,5.8786Z"/><path class="cls-3" d="M249.7362,333.7635l-4.8863-.0713,3.3139,5.967-18.2533-.2675-12.2114-23.7151,24.6819.3552c14.28.2056,25.5341,3.7992,28.9844,9.3005,2.15,3.4288.13,5.9567-5.3572,7.323l15.8016,7.4971-19.4891-.2857Zm-4.935-11.575-6.3913-.0924,3.0883,5.5608,6.474.094c4.8929.0711,6.61-.947,5.5954-2.6766S249.6315,322.2584,244.8012,322.1885Z"/><path class="cls-3" d="M327.2107,334.8264l4.48,6.0571-45.0154-.66L271.4489,316.45l41.671.6,4.4663,6.0569-25.0317-.3621,1.895,2.7867,22.1279.3208,4.2249,5.7842-22.4232-.3264,2.1262,3.1266Z"/><path class="cls-3" d="M94.4509,350.5248,80.5626,373.816l-21.1863-.3182L48.6049,360.7863l-8.6581,12.42-21.1888-.3183L0,349.1276l19.3506.2863,10.57,13.5092L39.3422,349.71l17.2817.2556,11.6854,13.6986,8.3014-13.4029Z"/><path class="cls-3" d="M149.5915,368.8741l1.89,6.007-48.7385-.732-5.04-23.5762,45.3156.67,1.876,6.0067-27.1913-.4038.702,2.7635,24.0249.3575,1.7509,5.7364-24.32-.3632.7876,3.1006Z"/><path class="cls-3" d="M220.4172,371.8164l-22.0862-.3309-2.2273,4.0657-20.096-.3018,15.7335-23.2853,18.4764.2733,36.4707,24.0735-20.4331-.3069Zm-7.9813-5.8334-8.1822-6.0366-2.9733,5.87Z"/><path class="cls-3" d="M270.6845,370.7537l-5.2961-.0793,3.3138,5.9671-19.764-.2968L236.7269,352.63l26.8392.397c15.5286.23,27.576,3.8388,31.0263,9.34,2.15,3.4287-.1772,5.9507-6.2022,7.3066l16.7426,7.5153-21.1021-.3169ZM265.89,359.1815l-6.9418-.1032,3.0882,5.5608,7.0247.1047c5.3089.0792,7.2244-.9351,6.21-2.6646S271.1367,359.2594,265.89,359.1815Z"/><path class="cls-3" d="M354.662,371.9426l4.48,6.0571-48.741-.732-15.2263-23.7735,45.3132.67,4.4663,6.0569-27.1888-.4038,1.895,2.7867,24.0225.3575,4.2249,5.7842-24.3178-.3631,2.1262,3.1266Z"/><path class="cls-3" d="M102.0427,387.2563,86.7205,410.52l-22.8058-.35L52.42,397.4446,43,409.85l-22.8084-.35L0,385.712l20.906.3164,11.3513,13.5243,10.2471-13.1975,18.6708.2826,12.4664,13.7137,9.127-13.3869Z"/><path class="cls-3" d="M161.17,405.6828l1.8895,6.007-52.4638-.8042-5.04-23.5761,48.958.7409,1.876,6.0067-29.3486-.4457.702,2.7636,25.92.3942,1.7509,5.7363-26.215-.4.7875,3.1007Z"/><path class="cls-3" d="M237.41,408.73l-23.7889-.3638-2.5283,4.06-21.6321-.3316,17.6922-23.2474,19.9615.3021,38.4294,24.1115-21.9948-.3371Zm-8.3974-5.8413-8.6175-6.0451-3.4085,5.8617Z"/><path class="cls-3" d="M291.6328,407.7439l-5.706-.0872,3.3139,5.9671-21.2747-.3261-12.2113-23.7151,28.9964.4388c16.7768.2539,29.618,3.8783,33.0683,9.38,2.15,3.4288-.4844,5.9448-7.0471,7.29l17.6836,7.5336-22.7151-.3481Zm-4.6535-11.57-7.4925-.1138,3.0882,5.5608,7.5753.1154c5.7251.0872,7.839-.9232,6.8246-2.6528S292.6418,396.26,286.9793,396.1744Z"/><polygon class="cls-3" points="380.828 409.039 350.927 408.582 348.801 405.456 375.013 405.855 370.788 400.071 344.871 399.677 342.976 396.89 372.322 397.336 367.856 391.279 318.9 390.538 334.127 414.312 380.828 415.028 380.828 409.039"/><path class="cls-3" d="M109.6345,423.9877,92.8783,447.2234l-24.4251-.381-12.218-12.74-10.1817,12.39-24.428-.381L0,422.2963l22.4614.3466,12.1324,13.5395,11.0729-13.1815,20.06.3094,13.2472,13.7289,9.9526-13.3709Z"/><path class="cls-3" d="M172.7486,442.4915l1.89,6.007-56.1892-.8763-5.04-23.5762,52.6.8115,1.876,6.0067-31.5059-.4875.702,2.7636,27.8145.4309,1.7509,5.7363-28.11-.4366.7875,3.1007Z"/><path class="cls-3" d="M254.4032,445.6435l-25.4916-.3968-2.8292,4.0541-23.1682-.3614L222.5649,425.73l21.4467.3309L284.4,450.21l-23.5566-.3673Zm-8.8135-5.8494-9.0527-6.0535-3.8438,5.8532Z"/><path class="cls-3" d="M312.5811,444.7341l-6.1159-.0951,3.3139,5.9671-22.7853-.3554-12.2114-23.7151,31.1538.4806c18.0249.2781,31.66,3.9179,35.11,9.4192,2.15,3.4288-.7916,5.9388-7.892,7.2738l18.6245,7.5519-24.328-.3794Zm-4.5128-11.5668-8.0431-.1244,3.0883,5.5608,8.1258.126c6.1412.0953,8.4537-.9113,7.4393-2.6409S314.1469,433.2614,308.0683,433.1673Z"/><polygon class="cls-3" points="380.828 445.728 376.138 445.655 374.012 442.528 380.828 442.634 380.828 436.916 370.082 436.75 368.187 433.963 380.828 434.159 380.828 428.172 342.626 427.582 357.852 451.356 380.828 451.714 380.828 445.728"/><path class="cls-3" d="M117.2263,460.7192l-18.19,23.2078-26.0445-.4123L60.05,470.7611,49.1069,483.1366l-26.0476-.4123L0,458.8807l24.0167.3767L36.93,472.812,48.829,459.6465l21.4489.3364,14.0282,13.744,10.7782-13.355Z"/><path class="cls-3" d="M184.3272,479.3l1.8895,6.0069-59.9145-.9484-5.04-23.5762,56.2428.8821,1.876,6.0067-33.6631-.5293.7019,2.7636,29.7092.4676L177.88,476.11l-30.0045-.4733.7875,3.1007Z"/><path class="cls-3" d="M271.3962,482.5571l-27.1943-.43-3.13,4.0482-24.7042-.3911,21.6093-23.1715,22.9317.36L303.2556,487.16l-25.1185-.3976Zm-9.23-5.8575-9.488-6.0619L248.4,476.4825Z"/><path class="cls-3" d="M333.5294,481.7243l-6.5257-.1031,3.3138,5.9671-24.296-.3846L293.81,463.4886l33.3111.5224c19.273.3023,33.7018,3.9574,37.1521,9.4587,2.15,3.4288-1.0988,5.9329-8.7369,7.2575l19.5654,7.57-25.9409-.4107Zm-4.3721-11.564-8.5936-.1351,3.0882,5.5607,8.6765.1368c6.5573.1033,9.0682-.8994,8.0538-2.629S335.6521,470.2624,329.1573,470.16Z"/><polygon class="cls-3" points="380.828 464.853 366.352 464.626 380.828 487.228 380.828 464.853"/></g><g class="cls-4"><path class="cls-5" d="M92.4433,0c1.66,1.3617,3.1135,1.9111,4.2581,1.5975l4.7576,9.6,1.66-5.5355L100.1736,0Z"/><polygon class="cls-5" points="80.019 0 79.609 1.352 84.106 7.386 86.046 0.976 88.161 3.599 86.419 9.366 90.726 15.089 92.549 9.039 94.923 11.982 92.716 19.319 97.21 25.365 101.045 12.58 90.313 0 80.019 0"/><path class="cls-5" d="M139.2462,6.2632,141.1019,0H119.0686l15.2045,23.0471,2.0088-6.78-3.011-4.3248,2.1382-7.208ZM129.04,6.0373,124.6285.038l5.4678,2.4448Z"/><path class="cls-5" d="M126.8531,27.1621l.5092-1.7155,4.7466,4.9048,1.943-6.5577L114.9087,5.218,112.5106,13.25c-1.3874,4.6471.4126,10.687,4.6739,15.587,2.6559,3.054,5.03,4.0894,6.8269,3.1463l4.516,10.4557,2.0746-7.0017Zm-9.3521-9.1089.637-2.1384,4.4234,4.5708-.66,2.2181c-.4985,1.6764-1.5636,1.58-2.9238.1067A4.9134,4.9134,0,0,1,117.501,18.0532Z"/><path class="cls-5" d="M118.7237,54.3125l4.494,6.0468L128.01,44.187,109.6864,22.7094,105.6378,36.27l4.4976,6.0336,2.4936-8.37,2.1158,2.6231-2.2289,7.4886,4.3069,5.7235,2.3093-7.7729,2.3738,2.943Z"/><polygon class="cls-5" points="171.013 0 168.52 8.469 173.719 12.023 177.253 0 171.013 0"/><polygon class="cls-5" points="161.823 0 161.364 1.559 166.344 4.901 167.787 0 161.823 0"/><path class="cls-5" d="M161.9657,37.43l2.5757-8.7559,3.9143,1.255,2.37-8.0642-22.797-6.06-2.0324,6.8794,16.4926,27.5431,2.41-8.1994Zm-4.124-6.2837-4.3-6.3949,5.5795,2.0492Z"/><path class="cls-5" d="M154.5316,56.2446l.6145-2.0881,4.7466,4.9049,2.3312-7.931L143.0806,32.5547l-2.9523,9.9931a18.9455,18.9455,0,0,0,4.1492,17.4432c2.6559,3.054,5.1092,3.81,7.044,2.3782l4.2742,11.311,2.489-8.4678Zm-9.3883-8.981.7785-2.6389,4.4234,4.5709-.801,2.7186c-.6054,2.0546-1.7215,2.1386-3.0816.6653A5.3353,5.3353,0,0,1,145.1433,47.2636Z"/><path class="cls-5" d="M144.7314,89.3063l4.4939,6.0467,5.7491-19.5588L136.6513,54.3166l-4.9845,16.8716,4.4977,6.0336,3.0478-10.331,2.1158,2.623-2.7157,9.2109,4.307,5.7234,2.796-9.495,2.3738,2.943Z"/><polygon class="cls-5" points="188.821 0 183.496 18.154 188.698 21.695 192.301 9.402 194.741 10.876 191.538 21.81 196.518 25.153 199.801 13.934 202.539 15.589 198.606 29.035 203.805 32.588 210.511 9.644 193.084 0 188.821 0"/><path class="cls-5" d="M190.66,62.9171l3.0133-10.3037,3.9916.9814,2.765-9.46-23.3-4.2793-2.414,8.2293L190.7054,77.408l2.8114-9.6191Zm-4.017-6.662-4.1878-6.7905,5.6914,1.6535Z"/><path class="cls-5" d="M182.21,85.3272l.72-2.4607,4.7466,4.9048,2.7193-9.3041L171.2526,59.8915l-3.5067,11.954c-2.0288,6.9164-.6367,14.3994,3.6246,19.2994,2.6559,3.054,5.1882,3.5309,7.2611,1.61l4.0325,12.1664,2.9034-9.934Zm-9.4244-8.8531.92-3.1394,4.4234,4.5709-.9425,3.219c-.7123,2.4329-1.8793,2.6973-3.2395,1.2241A5.8481,5.8481,0,0,1,172.7857,76.4741Z"/><path class="cls-5" d="M170.739,124.3l4.494,6.0468,6.7062-22.9454-18.323-21.4776-5.92,20.1824,4.4976,6.0336,3.6021-12.2918,2.1158,2.623-3.2025,10.9331,4.307,5.7234,3.2828-11.2173,2.3738,2.943Z"/><polygon class="cls-5" points="232.861 0 237.603 4.713 223.651 4.214 220.952 13.464 245.041 14.84 248.372 3.395 244.929 0 232.861 0"/><path class="cls-5" d="M228.6922,49.6l5.1987,3.5536L241.554,26.823,220.46,15.15,213.6032,38.644l5.2023,3.5405,4.1567-14.2539,2.44,1.4747-3.69,12.6565,4.98,3.3423,3.77-12.9408,2.738,1.6546Z"/><path class="cls-5" d="M219.3552,88.4042l3.4507-11.8514,4.069.7078,3.16-10.8568-23.8035-2.4989-2.7956,9.5793,15.4861,31.1042L222.1342,93.55Zm-3.91-7.04-4.076-7.1862,5.8032,1.2579Z"/><path class="cls-5" d="M209.8886,114.41l.8251-2.8333,4.7466,4.9049,3.1075-10.6774L199.4245,87.2282l-4.0609,13.9151c-2.3495,8.0509-1.1614,16.2555,3.1,21.1555,2.6559,3.054,5.2671,3.2516,7.4782.8421l3.7907,13.0217,3.3179-11.4Zm-9.4606-8.7252,1.0614-3.64,4.4234,4.5708-1.0839,3.72c-.8192,2.8111-2.0373,3.2559-3.3975,1.7827S199.6258,108.4354,200.428,105.6845Z"/><path class="cls-5" d="M197.7467,159.2938l4.4939,6.0467,7.6635-26.3319-18.323-21.4776-6.8562,23.4932,4.4977,6.0336,4.1563-14.2527,2.1158,2.6231-3.6893,12.6552,4.307,5.7235,3.77-12.94,2.3738,2.943Z"/><polygon class="cls-5" points="285.361 0 260.901 0 258.567 8.029 269.293 19.6 255.13 19.852 252.062 30.405 276.52 30.478 280.267 17.561 270.294 6.886 283.704 5.714 285.361 0"/><path class="cls-5" d="M258.7781,70.1654l5.1987,3.5535,8.62-29.7169L251.5028,32.3286,243.71,59.1339l5.2024,3.5406,4.711-16.2149,2.44,1.4747-4.1764,14.3789,4.98,3.3422,4.2568-14.6631,2.738,1.6546Z"/><path class="cls-5" d="M248.05,113.8914l3.8882-13.3993,4.1463.4342,3.5543-12.253-24.3067-.7185L232.155,98.884l14.9827,32.8848,3.614-12.4584Zm-3.8032-7.4185-3.9642-7.5818,5.915.8622Z"/><path class="cls-5" d="M237.5671,143.4922l.93-3.2058,4.7467,4.9048,3.4956-12.05L227.5965,114.565l-4.6152,15.876c-2.67,9.1856-1.6861,18.1117,2.5752,23.0117,2.6559,3.054,5.3461,2.9724,7.6954.074l3.5489,13.8771,3.7322-12.8664ZM228.07,134.895l1.2029-4.14,4.4235,4.5709-1.2255,4.22c-.9261,3.1894-2.1952,3.8147-3.5554,2.3414S227.1612,138.0241,228.07,134.895Z"/><path class="cls-5" d="M223.7543,194.2875l4.494,6.0468,8.6207-29.7185-18.3231-21.4775-7.7919,26.8039,4.4976,6.0336,4.7106-16.2135,2.1158,2.6231-4.1761,14.3774,4.307,5.7235,4.2564-14.6617,2.3738,2.943Z"/><polygon class="cls-5" points="300.089 0 308.307 8.594 293.787 10.722 290.458 22.207 300.984 34.488 286.608 35.49 283.172 47.346 307.999 46.116 312.162 31.727 302.375 20.395 315.98 18.53 320.144 4.138 316.171 0 300.089 0"/><path class="cls-5" d="M288.8641,90.7308l5.1987,3.5535L303.64,61.181,282.5459,49.5076l-8.7282,30.1163,5.2024,3.5406,5.2652-18.1759,2.44,1.4747-4.6633,16.1012,4.98,3.3423,4.7436-16.3855,2.7381,1.6546Z"/><path class="cls-5" d="M276.7447,139.3785l4.3257-14.947,4.2237.1606,3.949-13.6493-24.81,1.0619-3.5588,12.2792,14.48,34.6654,4.0152-13.8782Zm-3.6962-7.7967-3.8524-7.9775,6.0269.4666Z"/><path class="cls-5" d="M265.2456,172.5748l1.0358-3.5784,4.7466,4.9048,3.8837-13.4237-19.1432-18.5758-5.1695,17.8371c-2.991,10.32-2.2108,19.9677,2.05,24.8678,2.6559,3.054,5.425,2.6931,7.9125-.694l3.3071,14.7323,4.1467-14.3325Zm-9.5329-8.4693,1.3444-4.6409,4.4234,4.5709-1.3669,4.72c-1.0331,3.5676-2.3532,4.3733-3.7133,2.9S254.6967,167.6128,255.7127,164.1055Z"/><path class="cls-5" d="M248.762,229.2813l4.4939,6.0467,9.578-33.105-18.3231-21.4775L235.783,210.86l4.4977,6.0336,5.2648-18.1743,2.1158,2.6231-4.6629,16.1,4.307,5.7234,4.7432-16.3838,2.3738,2.943Z"/><polygon class="cls-5" points="332.869 0 330.299 8.89 340.767 20.758 326.035 23.637 322.35 36.385 332.675 49.375 318.087 51.128 314.283 64.288 339.477 61.754 344.057 45.892 334.455 33.903 348.256 31.346 352.836 15.482 339.176 0 332.869 0"/><path class="cls-5" d="M318.95,111.2961l5.1987,3.5536,10.5347-36.49L313.5891,66.6866l-9.6641,33.4273,5.2023,3.54,5.82-20.1369,2.44,1.4748-5.15,17.8236,4.98,3.3422L322.4476,88.05l2.738,1.6546Z"/><path class="cls-5" d="M305.44,164.8657l4.7632-16.4949,4.301-.1129,4.3437-15.0455-25.3132,2.8422-3.94,13.6292L303.57,186.13l4.4166-15.2979Zm-3.5894-8.175-3.74-8.3731,6.1387.0709Z"/><path class="cls-5" d="M292.9241,201.6573l1.1411-3.951,4.7466,4.9049,4.2719-14.797L283.94,169.2385l-5.7238,19.798c-3.3116,11.4547-2.7353,21.8239,1.526,26.7239,2.6559,3.0541,5.5039,2.4139,8.13-1.4619l3.0653,15.5876,4.5612-15.7987Zm-9.5691-8.3414,1.4859-5.1413,4.4234,4.5708-1.5084,5.2211c-1.14,3.9458-2.511,4.932-3.8712,3.4587S282.2321,197.2016,283.355,193.3159Z"/><path class="cls-5" d="M274.77,264.2751l4.494,6.0467L289.7988,233.83l-18.3231-21.4776-9.6636,33.4255,4.4977,6.0336,5.819-20.1351,2.1158,2.623-5.15,17.8219,4.307,5.7234,5.23-18.106,2.3738,2.943Z"/><polygon class="cls-5" points="380.828 43.139 380.828 21.049 367.486 4.656 362.96 20.344 373.228 32.922 358.284 36.552 354.241 50.562 364.366 64.263 349.566 66.766 345.393 81.229 370.956 77.392 375.952 60.058 366.536 47.412 380.533 44.162 380.828 43.139"/><path class="cls-5" d="M349.036,131.8615l5.1987,3.5536,11.4918-39.876L344.6322,83.8657l-10.6,36.7382,5.2024,3.5405,6.3739-22.0979,2.44,1.4747-5.637,19.546,4.98,3.3423,5.7174-19.83,2.738,1.6546Z"/><path class="cls-5" d="M334.1343,190.3528,339.335,172.31l4.3783-.3865,4.7383-16.4418-25.8164,4.6226-4.3219,14.9791L331.7862,213.31l4.8178-16.7175ZM330.6518,181.8l-3.6286-8.7688,6.2505-.3246Z"/><path class="cls-5" d="M320.6026,230.74l1.2464-4.3236,4.7466,4.9049,4.66-16.17-19.1433-18.5758-6.2781,21.7591c-3.6324,12.5893-3.26,23.68,1.0013,28.58,2.6559,3.0541,5.5829,2.1347,8.3466-2.23l2.8236,16.443,4.9756-17.2649Zm-9.6052-8.2135,1.6273-5.6419,4.4234,4.5709-1.65,5.7215c-1.2469,4.3241-2.669,5.4907-4.0292,4.0175S309.7675,226.79,310.9974,222.5264Z"/><path class="cls-5" d="M300.7773,299.2688l4.4939,6.0467,11.4925-39.878L298.4406,243.96l-10.5994,36.7363,4.4976,6.0336,6.3733-22.0959,2.1158,2.623-5.6364,19.5441,4.3069,5.7234,5.7168-19.8283,2.3738,2.9431Z"/><polygon class="cls-5" points="380.828 83.158 376.503 98.171 380.828 97.314 380.828 83.158"/><polygon class="cls-5" points="380.828 103.896 375.675 101.045 364.14 141.094 369.342 144.634 376.27 120.576 378.71 122.05 372.586 143.319 377.567 146.661 380.828 135.332 380.828 103.896"/><polygon class="cls-5" points="380.828 146.501 379.122 152.427 380.828 153.593 380.828 146.501"/><path class="cls-5" d="M362.8291,215.84l5.6382-19.59,4.4556-.66,5.133-17.8381-26.32,6.403-4.7034,16.3291,12.9695,40.0071,5.2191-18.1373Zm-3.3756-8.9315-3.5168-9.1644,6.3624-.72Z"/><path class="cls-5" d="M348.2811,259.8224l1.3517-4.6961,4.7466,4.9048,5.0482-17.5434L340.2844,223.912l-6.8324,23.72c-3.9531,13.7239-3.7847,25.5362.4766,30.4362,2.6559,3.0541,5.6618,1.8554,8.5637-2.998l2.5818,17.2983,5.39-18.7311Zm-9.6414-8.0856,1.7688-6.1423,4.4234,4.5709-1.7913,6.222c-1.3538,4.7024-2.8269,6.0494-4.187,4.5761S337.303,256.379,338.64,251.7368Z"/><path class="cls-5" d="M326.7849,334.2626l4.494,6.0467,12.45-43.2646-18.323-21.4776L313.87,315.6142l4.4977,6.0336,6.9276-24.0567,2.1157,2.623L321.288,321.48l4.3069,5.7235,6.2036-21.55,2.3738,2.9431Z"/><polygon class="cls-5" points="380.828 215.604 377.442 227.377 380.828 238.783 380.828 215.604"/><path class="cls-5" d="M379.051,285.5251l1.7766,1.8358V263.2532l-10.7141-10.3964-7.4193,25.7964c-4.2926,14.9252-4.34,27.5015-.0788,32.4015,2.6558,3.054,5.7453,1.56,8.7935-3.8113l2.3258,18.204,5.8288-20.2836-1.9757-14.5481Zm-6.742,1.791c-1.467,5.1029-2.9941,6.6409-4.3543,5.1677s-1.4966-4.7756-.0466-9.8182l1.9186-6.6723,4.4234,4.5708Z"/><path class="cls-5" d="M354.3224,371.3148l4.494,6.0467,13.4632-46.85-18.323-21.4776L341.43,352.5862l4.4977,6.0337,7.5144-26.133,2.1157,2.6231L348.92,358.2l4.3069,5.7234,6.719-23.3739,2.3739,2.943Z"/><polygon class="cls-5" points="380.828 348.349 368.991 389.558 373.488 395.592 380.828 370.036 380.828 348.349"/><polygon class="cls-5" points="380.828 380.027 376.551 394.919 380.828 400.602 380.828 380.027"/></g></g></g></g></svg>