<svg xmlns="http://www.w3.org/2000/svg" viewBox="0 0 1439.94 383"><defs><style>.cls-1{fill:#d3d3d3;}</style></defs><title>weare</title><g id="Layer_2" data-name="Layer 2"><g id="Layer_1-2" data-name="Layer 1"><polygon class="cls-1" points="409.47 0 203.84 345.79 248.59 0 230.79 0 23.68 345.79 69.91 0 51.01 0 0 383 20.02 383 225.64 40.49 181.64 383 201.66 383 428.75 0 409.47 0"/><polygon class="cls-1" points="321.76 383 500.43 383 509.88 357.83 349.74 357.83 407.04 200.8 544.94 200.8 553.89 176.18 416 176.18 470.82 25.17 625.03 25.17 634.48 0 460.99 0 321.76 383"/><path class="cls-1" d="M858.71,0,600.11,383h21.13l72.4-107.79H844.51l-6,107.79h19.28L877.62,0ZM709.39,251.68,858.27,29.55,845.8,251.68Z"/><path class="cls-1" d="M1178.63,105.6C1194,38.3,1169.72,0,1112.63,0h-90.82L882.58,383h18.9l45.75-125.85h77.85c6.3,0,12.35-.54,18.41-1.09L1063.1,383h20.76l-20.1-131.32C1118.54,235.82,1160.41,185.48,1178.63,105.6ZM1030.69,232.53H956.18l75.46-207.36h74.14c46.33,0,65.67,29,53.44,82.62C1140.38,190.4,1094.08,232.53,1030.69,232.53Z"/><polygon class="cls-1" points="1430.5 25.17 1439.94 0 1266.46 0 1127.23 383 1305.9 383 1315.35 357.83 1155.21 357.83 1212.52 200.8 1350.41 200.8 1359.36 176.18 1221.46 176.18 1276.29 25.17 1430.5 25.17"/></g></g></svg>