<svg xmlns="http://www.w3.org/2000/svg" viewBox="0 0 2455.245 1396.35"><defs><style>.cls-1{opacity:0.21;}.cls-2{opacity:0.48;}.cls-3{opacity:0.89;}.cls-4{fill:#b1aac1;}.cls-5{opacity:0.23;}.cls-6{opacity:0.89;}</style></defs><title>weare</title><g id="Layer_2" data-name="Layer 2"><g id="Layer_1-2" data-name="Layer 1"><g class="cls-1"><g class="cls-2"><g class="cls-3"><path class="cls-4" d="M2390.473,465.242l17.288-152.459,35.7-14.325,11.784-102.04-182.713,84.451-10.254,95.3,145.071,237.545,11.891-104.236ZM2360.527,418.6l-47.281-69.514,57.4-20.837Z"/><path class="cls-4" d="M2339.364,814.862l6.047-54.419,42.449,25.02,11.51-101.576-159.938-88.981-16.6,156.375c-9.849,93.231,6.105,166.615,41.83,190.472,22.978,15.33,42.671,1.459,56.884-36.288l40.54,108.946,12.159-108.25Zm-80.726-48.054,5.866-54.536,46.743,27.623-6.063,55.312c-4.513,41.242-15.347,56.443-29.8,47.31C2260.685,833.227,2254.273,807.463,2258.638,766.808Z"/><path class="cls-4" d="M2287.016,1367.383l32.857,26.482,32.053-288.652L2197.273,996.678l-27.961,268.3,33.75,27.177,18.455-174.767,25.785,19.039-16.6,155.439,31.536,25.116,16.933-156.506,28.2,20.8Z"/></g></g></g><g class="cls-1"><g class="cls-2"><g class="cls-3"><path class="cls-4" d="M2205.012,375.046l16.2-142.712,33.507-13.4,11.04-95.517-171.486,79.019-9.606,89.2,136.217,222.393,11.141-97.572ZM2176.9,331.379,2132.5,266.3l53.875-19.494Z"/><path class="cls-4" d="M2157.108,702.314l5.665-50.941,39.85,23.429,10.784-95.081-150.143-83.327-15.553,146.379c-9.227,87.271,5.764,155.968,39.3,178.307,21.571,14.355,40.054,1.374,53.387-33.958l38.074,101.993,11.392-101.331Zm-75.783-45,5.5-51.049,43.881,25.867-5.68,51.776c-4.228,38.606-14.394,52.833-27.965,44.28C2083.26,719.489,2077.236,695.37,2081.325,657.314Z"/><path class="cls-4" d="M2108.08,1219.515l30.846,24.795,30.03-270.2L2023.77,872.483l-26.192,251.15,31.684,25.448,17.289-163.595,24.206,17.827-15.552,145.5,29.606,23.516,15.863-146.5,26.475,19.473Z"/></g><g class="cls-3"><polygon class="cls-4" points="618.003 0 638.387 16.759 638.627 0 618.003 0"/><polygon class="cls-4" points="664.573 0 664.11 27.471 696.157 53.548 697.226 0 664.573 0"/><polygon class="cls-4" points="725.556 0 723.523 90.058 756.52 117.215 759.528 0 725.556 0"/></g><g class="cls-3"><polygon class="cls-4" points="911.44 0 942.017 49.543 944.045 0 911.44 0"/><polygon class="cls-4" points="787.032 0 783.226 135.67 816.155 162.665 819.09 67.587 844.71 86.931 841.899 171.964 873.713 197.775 876.805 111.154 904.533 132.066 900.605 235.622 933.361 262.502 939.937 100.537 800.201 0 787.032 0"/></g><g class="cls-3"><path class="cls-4" d="M1129.1,31.211,1130.8,0h-77.1l-.952,19.4c-1.229,24.974-10.163,32.069-24.195,22.982-12.47-8.081-19.984-22.559-20.928-42.386H973.7c3.993,44.573,22.824,82.685,52,102.62,22.45,15.328,39.766,11.261,50.284-9.43l45.459,79.343,3.625-67.033-38.663-65.669,1.721-33.456Z"/><path class="cls-4" d="M1076.388,379.7l32.513,26.6,9.529-177.79L966.785,119.823l-6.847,160.541,32.687,26.718L997.367,202l25.443,19.144L1018.4,314.98l31.584,25.545,4.7-95.41,27.537,20.695Z"/></g><g class="cls-3"><polygon class="cls-4" points="1297.286 0 1317.539 24.927 1319.199 0 1297.286 0"/><path class="cls-4" d="M1158.968,0l-4.878,86.753c-3.426,61.186,15.908,114.261,50.593,137.861,22.309,15.167,39.794,9.582,50.731-13.6l44.33,83.213,4.8-72.938-37.719-68.932,2.315-36.467,40.74,24.57,4.511-68.088L1187.455,0Zm31.618,68.425L1235.6,95.63l-2.245,36.576c-1.67,27.268-10.784,35.566-24.732,26.574-14.181-9.143-21.689-27.84-20.125-54.54Z"/><path class="cls-4" d="M1250.869,522.275l32.273,26.324,12.61-193.472L1145.1,247.587l-9.753,175.983,32.447,26.441,6.617-115,25.268,18.944-6.073,102.555,31.351,25.28,6.382-104.119,27.348,20.478Z"/></g><g class="cls-3"><polygon class="cls-4" points="1476.86 0 1402.32 0 1498.717 125.85 1504.61 49.547 1475.809 13.813 1476.86 0"/><path class="cls-4" d="M1446.638,266.2l2.968-39.715,40.126,24.12,5.652-73.446L1341.765,89.9,1334.2,201.346c-4.489,66.44,14.022,122.671,48.452,146.03,22.146,15.012,39.793,7.945,51.157-17.682l43.123,87.012L1483,337.643Zm-78.925-47.847,2.684-38.444,44.259,26.658-2.839,39.192c-2.113,29.216-11.307,38.6-25.018,29.784-13.932-8.965-21.082-28.535-19.085-57.195Z"/><path class="cls-4" d="M1423.335,665.44l32.2,26.216,15.815-209.046L1321.619,376l-12.811,191.393,32.022,26.051,8.51-125.014,25.8,19.3-7.775,110.9,31.236,25.142,8.167-112.543,26.46,19.768Z"/></g><g class="cls-3"><polygon class="cls-4" points="1668.645 0 1633.705 0 1628.298 63.984 1581.415 5.423 1606.413 0 1536.662 0 1534.945 21.69 1679.931 221.864 1687.209 138.97 1659.726 103.013 1668.645 0"/><path class="cls-4" d="M1624.8,373.72l3.573-42.193,39.736,23.716,6.877-79.069-151.793-85.589-9.439,120.222c-5.587,71.529,12.055,130.751,46.2,153.774,21.957,14.8,39.759,6.245,51.558-21.772l41.838,90.547,7.251-84.181Zm-77.145-46.69,3.31-41.273,43.847,26.227-3.473,42.01c-2.585,31.32-11.939,41.834-25.514,33.163-13.8-8.815-20.635-29.358-18.17-60.127Z"/><path class="cls-4" d="M1596.076,803.17l31.265,25.345,19.149-224.321-148.3-105-16.01,206.559,31.351,25.391,10.583-134.356,25.035,18.631-9.56,119.508,31.44,25.19L1581,638.533l27.168,20.191Z"/></g><g class="cls-3"><path class="cls-4" d="M1884.544,57.81,1890.2,0h-74.371L1725.32,32.679l-7.014,78.533,141.761,206.959,8.4-87.085-28.537-39.354,11.848-123.887ZM1811.318,152.4l-46.085-60.723,53.133-14.147Z"/><path class="cls-4" d="M1801.719,482.126l4.212-44.963,40.66,24.136,8.105-84.311-152.563-85.532-11.342,128.669c-6.78,77.2,10.112,139.922,44.245,162.837,21.953,14.726,40.069,4.64,52.424-25.985l40.864,94.874,8.586-90.129Zm-76.713-45.987,4.078-45.389,44.749,26.625-4.253,46.136c-3.164,34.4-12.966,46.375-26.819,37.572-14.075-8.952-20.79-31.109-17.755-64.944Z"/><path class="cls-4" d="M1766.177,940.583l32.736,26.453,22.654-239.959L1673.449,622.645l-19.227,221.562,31.85,25.715,12.75-144.088,24.311,18.021-11.53,128.5,30.429,24.3,11.831-129.571,26.5,19.62Z"/></g><g class="cls-3"><path class="cls-4" d="M2021.482,284.566l13.976-133.288,32.391-11.427,9.759-91.383-170.2,69.891-8.276,83.876,138.46,213.757,9.895-93.616ZM1991.8,242.385l-45.258-62.907,53.48-16.775Z"/><path class="cls-4" d="M1977.179,593.193l4.984-48.58,40.256,23.809,9.422-89.828-150.7-84.147-13.477,138.28c-7.9,81.493,7.93,146.625,41.474,169.078,21.576,14.427,39.707,3.01,52.423-29.664l39.159,97.587,9.911-95.325Zm-76.206-45.936,4.765-48.207,44.316,26.271-4.945,48.944c-3.681,36.492-13.657,49.586-27.371,40.9-13.935-8.829-20.312-31.967-16.768-67.909Z"/><path class="cls-4" d="M1935.842,1080.115l31.792,25.643,26.228-254.942L1847.224,747.711,1824.578,984.17l31.151,25.1,14.916-153.751,24.927,18.433-13.5,136.919,29.4,23.434,13.763-137.955,27.145,20.048Z"/></g></g></g><g class="cls-5"><g class="cls-6"><path class="cls-4" d="M556.994,1277.009,484.889,1396.35H381.17l-77.534-72.627-56.52,72.627H143.4L32.141,1277.009h92.941l71.778,76.208,59.892-76.208h82.919l82.055,76.89,49.159-76.89Z"/><path class="cls-4" d="M931.99,1370.266l13.772,26.084H670.805l-44.1-119.341H876.827l13.677,26.084H727.082l8.546,20.118H881.37l12.931,25.232H746.347l9.27,21.823Z"/><path class="cls-4" d="M1432.636,1373.164H1289.755l-9.842,23.186h-98.828l61.589-119.341h88.841l247.816,119.341H1478.544Zm-47.986-24.891-72.514-38.19-13.11,38.19Z"/><path class="cls-4" d="M1764.268,1364.639H1712.4l31.323,31.711h-96.872l-111.22-119.341H1681.42c87.021,0,160.427,16.878,190.7,44.157,19.489,17.56,10.036,30.517-23.763,37.677l114.054,37.507H1858.691Zm-61.216-61.033H1652.11l34.522,34.95h52.026c38.781,0,51.347-6.479,39.852-17.39C1766.835,1310.083,1741.025,1303.606,1703.052,1303.606Z"/><path class="cls-4" d="M2289.476,1370.266l34.486,26.084H2049.006l-138.874-119.341,256.83-1.352,31,28-166.735-.564,24.522,20.118h145.742l32.969,25.232H2086.505l26.6,21.823Z"/></g></g><g class="cls-5"><g class="cls-6"><path class="cls-4" d="M492.055,1128.71,424.8,1248.052H328.055l-72.319-72.627-52.719,72.627H106.273L2.5,1128.71H89.191l66.95,76.208,55.865-76.208h77.342l76.536,76.891,45.853-76.891Z"/><path class="cls-4" d="M841.831,1221.967l12.846,26.085H598.211L557.075,1128.71h233.3l12.756,26.085H650.7l7.971,20.117h135.94l12.061,25.233h-138l8.646,21.822Z"/><path class="cls-4" d="M1308.806,1224.865H1175.534l-9.18,23.187h-92.181l57.447-119.342h82.867l231.149,119.342h-94.009Zm-44.758-24.891-67.637-38.189-12.229,38.189Z"/><path class="cls-4" d="M1618.135,1216.341h-48.383l29.216,31.711h-90.357l-103.74-119.342h135.988c81.168,0,149.637,16.879,177.875,44.157,18.178,17.561,9.362,30.518-22.165,37.678l106.384,37.507h-96.745Zm-57.1-61.034H1513.52l32.2,34.95h48.527c36.173,0,47.893-6.478,37.172-17.39C1620.529,1161.785,1596.455,1155.307,1561.036,1155.307Z"/><path class="cls-4" d="M2108.02,1221.967l32.167,26.085H1883.723L1754.189,1128.71h233.3l32.078,26.085H1867.14l22.872,20.117h135.94l30.752,25.233h-138l24.811,21.822Z"/></g><g class="cls-6"><path class="cls-4" d="M148.1,1.477l-.156,119.341H114.037L81.547,48.191,70.213,120.818H36.306L0,1.477H26.226l25.04,76.207L63.38,1.477h23.4L121.4,78.367l2.4-76.89Z"/><path class="cls-4" d="M285.8,94.733l12.806,26.085H208.721L167.77,1.477h70.578l12.717,26.084h-47.8l7.94,20.117h43.759l12.023,25.233H221.161l8.613,21.822Z"/><path class="cls-4" d="M446.3,97.631H400.759l7.086,23.187H375.537L341.581,1.477h25.068L505.728,120.818H472.78Zm-27.529-24.89-40.9-38.19,14.388,38.19Z"/><path class="cls-4" d="M546.673,89.107H530.3l29.167,31.711H527.8L424.244,1.477h41.139c24.555,0,57.429,16.878,85.625,44.157,18.151,17.56,24.134,30.517,18.384,37.677l61.569,37.507H597.054Zm-57.6-61.034H474.163l32.146,34.95h15.922c11.869,0,11.447-6.478.743-17.389C512.1,34.551,500.189,28.073,489.074,28.073Z"/><path class="cls-4" d="M717.029,94.733l32.127,26.085H659.27L529.92,1.477H600.5l32.037,26.084h-47.8l22.842,20.117h43.759l30.713,25.233H636.225L661,94.733Z"/></g><g class="cls-6"><path class="cls-4" d="M190.63,141.879l-8.537,119.342H140.359l-37.436-72.628-16.5,72.628H44.686L0,141.879H33.757L64,218.087,81.58,141.879H111.7l39.83,76.891,7.827-76.891Z"/><path class="cls-4" d="M354.729,235.136l12.806,26.085H256.9L215.948,141.879H306.8l12.716,26.085H258.677l7.94,20.117h55.242l12.022,25.233h-57.3l8.613,21.822Z"/><path class="cls-4" d="M553.4,238.034H496.931l5.056,23.187H462.221L439.673,141.879H471.94L622.464,261.221H581.91Zm-29.671-24.891L479.5,174.954l11.066,38.189Z"/><path class="cls-4" d="M679.8,229.51H659.442l29.167,31.711H649.631L546.075,141.879h52.953c31.606,0,68.91,16.879,97.107,44.157,18.151,17.56,22.288,30.518,13.326,37.678L776.6,261.221H734.87Zm-57.525-61.034H603.3l32.146,34.95h19.983c14.9,0,15.988-6.478,5.284-17.39C649.844,174.954,636.418,168.476,622.276,168.476Z"/><path class="cls-4" d="M889.955,235.136l32.126,26.085H811.447L682.1,141.879h90.848l32.037,26.085H744.148l22.841,20.117h55.242l30.712,25.233h-57.3l24.778,21.822Z"/></g><g class="cls-6"><path class="cls-4" d="M233.16,282.282,216.243,401.624H166.682L124.3,329l-21.672,72.628H53.067L0,282.282H41.288L76.739,358.49l23.042-76.208h36.836l45.036,76.891,13.254-76.891Z"/><path class="cls-4" d="M423.656,375.539l12.805,26.085H305.079L264.127,282.282H375.242l12.716,26.085H314.092l7.94,20.117h66.723l12.022,25.233H331.991l8.613,21.822Z"/><path class="cls-4" d="M660.5,378.437H593.1l3.025,23.187H548.906L537.765,282.282h39.467L739.2,401.624H691.041Zm-31.812-24.891-47.547-38.189,7.743,38.189Z"/><path class="cls-4" d="M812.929,369.912H788.582l29.168,31.712H771.461L667.906,282.282h64.767c38.657,0,80.392,16.879,108.588,44.157,18.151,17.56,20.442,30.517,8.269,37.678l72.718,37.507H872.687Zm-57.451-61.033H732.444l32.147,34.95h24.044c17.923,0,20.529-6.479,9.824-17.39C787.587,315.357,772.647,308.879,755.478,308.879Z"/><path class="cls-4" d="M1062.88,375.539l32.127,26.085H963.625L834.275,282.282H945.39l32.038,26.085H903.562L926.4,328.484h66.723l30.713,25.233H955.052l24.778,21.822Z"/></g><g class="cls-6"><path class="cls-4" d="M275.69,422.685l-25.3,119.341H193.005L145.675,469.4l-26.841,72.627H61.447L0,422.685H48.819l40.657,76.208,28.506-76.208h43.555l50.241,76.89,18.681-76.89Z"/><path class="cls-4" d="M492.583,515.942l12.8,26.084H353.257L312.306,422.685H443.689l12.716,26.085h-86.9l7.94,20.117h78.2l12.022,25.232H387.405l8.613,21.823Z"/><path class="cls-4" d="M767.6,518.84H689.276l1,23.186H635.59l.267-119.341h46.666L855.936,542.026H800.171Zm-33.953-24.891-50.87-38.19,4.42,38.19Z"/><path class="cls-4" d="M946.057,510.315H917.723l29.167,31.711h-53.6L789.737,422.685h76.58c45.709,0,91.874,16.878,120.071,44.157,18.15,17.56,18.6,30.517,3.21,37.677l78.293,37.507H1010.5ZM888.68,449.282H861.585l32.147,34.95h28.105c20.95,0,25.069-6.479,14.365-17.39C925.329,455.759,908.876,449.282,888.68,449.282Z"/><path class="cls-4" d="M1235.806,515.942l32.127,26.084H1115.8L986.453,422.685h131.383l32.038,26.085h-86.9l22.841,20.117h78.2l30.712,25.232h-80.268l24.777,21.823Z"/></g><g class="cls-6"><path class="cls-4" d="M319.845,563.088,286.351,682.429H221.137L168.747,609.8l-31.9,72.627H71.637L1.625,563.088H57.976l45.98,76.208,33.852-76.208h50.273l55.566,76.89,23.989-76.89Z"/><path class="cls-4" d="M563.279,656.345l12.846,26.084H403.245L362.109,563.088H513.76l12.757,26.084h-99.93l7.971,20.118h89.686L536.3,634.522H444.556l8.646,21.823Z"/><path class="cls-4" d="M876.471,659.243H787.222l-1,23.186H724.084l11.49-119.341h53.865L974.481,682.429H911.112Zm-36.133-24.891-54.252-38.19,1.157,38.19Z"/><path class="cls-4" d="M1080.945,650.718h-32.321l29.217,31.711h-60.909L913.193,563.088h88.394c52.76,0,103.382,16.878,131.62,44.157,18.178,17.56,16.8,30.517-1.789,37.677l83.926,37.507h-65.215Zm-57.4-61.033H992.392l32.2,34.949h32.167c23.977,0,29.6-6.478,18.879-17.389C1064.748,596.162,1046.771,589.685,1023.548,589.685Z"/><path class="cls-4" d="M1410.5,656.345l32.168,26.084H1269.79L1140.255,563.088h151.652l32.078,26.084h-99.93l22.872,20.118h89.686l30.752,25.232h-91.75l24.811,21.823Z"/></g><g class="cls-6"><path class="cls-4" d="M360.75,703.491,318.691,822.832H245.65l-57.224-72.627-37.177,72.627H78.208L0,703.491H63.882L114.95,779.7l39.433-76.207h56.993l60.653,76.89,29.535-76.89Z"/><path class="cls-4" d="M630.437,796.747l12.8,26.085H449.614L408.663,703.491H580.582L593.3,729.575H480.336l7.94,20.117H589.444l12.022,25.233H498.235l8.613,21.822Z"/><path class="cls-4" d="M981.8,799.645H881.621l-3.067,23.187h-69.6l23.082-119.341h61.064l196.3,119.341h-70.975Zm-38.235-24.89-57.515-38.19-2.225,38.19Z"/><path class="cls-4" d="M1212.313,791.121h-36.308l29.167,31.711h-68.218L1033.4,703.491h100.209c59.812,0,114.837,16.878,143.033,44.156,18.151,17.561,14.9,30.518-6.905,37.678l89.443,37.507h-73.042Zm-57.23-61.034h-35.216l32.146,34.95h36.228c27,0,34.151-6.478,23.446-17.39C1200.815,736.565,1181.334,730.087,1155.083,730.087Z"/><path class="cls-4" d="M1581.658,796.747l32.127,26.085H1420.158l-129.35-119.341h171.92l32.038,26.084H1381.8l22.842,20.117h101.167l30.713,25.233H1433.294l24.777,21.822Z"/></g><g class="cls-6"><path class="cls-4" d="M403.28,843.893,352.84,963.235H271.973L209.8,890.607l-42.346,72.628H86.589L0,843.893H71.413L127.686,920.1l44.9-76.208H236.3l65.858,76.891,34.962-76.891Z"/><path class="cls-4" d="M699.364,937.15l12.8,26.085H497.793L456.842,843.893H649.029l12.716,26.085H535.751l7.94,20.117H656.34l12.022,25.233H553.65l8.612,21.822Z"/><path class="cls-4" d="M1088.9,940.048h-111.1l-5.1,23.187H895.643l34.49-119.342H998.4l207.748,119.342h-78.581Zm-40.376-24.891-60.838-38.189-5.548,38.189Z"/><path class="cls-4" d="M1345.44,931.524h-40.3l29.168,31.711h-75.528L1155.229,843.893h112.022c66.864,0,126.32,16.879,154.516,44.157,18.151,17.56,13.058,30.518-11.963,37.678l95.017,37.507h-80.868Zm-57.155-61.034h-39.278l32.147,34.95h40.289c30.031,0,38.692-6.479,27.987-17.39C1338.557,876.968,1317.563,870.49,1288.285,870.49Z"/><path class="cls-4" d="M1754.584,937.15l32.127,26.085H1572.336l-129.35-119.342h192.188l32.038,26.085H1541.217l22.842,20.117h112.649l30.712,25.233H1592.708l24.777,21.822Z"/></g><g class="cls-6"><path class="cls-4" d="M448.086,984.3l-58.635,119.342H300.757l-67.231-72.628-47.4,72.628H97.43L2.276,984.3H81.221l61.6,76.208L193.061,984.3h70.432l71.182,76.891,40.27-76.891Z"/><path class="cls-4" d="M770.711,1077.553l12.846,26.085H548.433L507.3,984.3H719.752l12.757,26.085H593.482l7.971,20.117H725.584l12.061,25.233H611.451l8.647,21.822Z"/><path class="cls-4" d="M1198.423,1080.451H1076.391l-7.092,23.187H984.788L1030.5,984.3h75.462l219.377,119.342h-86.186Zm-42.557-24.891-64.219-38.19-8.811,38.19Z"/><path class="cls-4" d="M1480.98,1071.926H1436.7l29.217,31.712h-82.839L1279.336,984.3h123.836c73.915,0,137.828,16.879,166.066,44.157,18.178,17.56,11.26,30.517-16.963,37.677l100.65,37.508H1564.23Zm-57.175-61.033h-43.339l32.2,34.95h44.35c33.059,0,43.223-6.479,32.5-17.39C1478.628,1017.37,1456.11,1010.893,1423.805,1010.893Z"/><path class="cls-4" d="M1929.93,1077.553l32.168,26.085H1726.974L1597.44,984.3H1809.9l32.078,26.085H1702.948l22.872,20.117h124.131l30.752,25.233H1754.508l24.811,21.822Z"/></g></g></g></g></svg>