<svg xmlns="http://www.w3.org/2000/svg" viewBox="0 0 377.8582 517.6409"><defs><style>.cls-1{opacity:0.47;}.cls-2{opacity:0.81;}.cls-3{fill:#91819d;stroke:#fff;stroke-miterlimit:10;stroke-width:0.25px;}.cls-4{opacity:0.39;}</style></defs><title>homeSmbg</title><g id="Layer_2" data-name="Layer 2"><g id="Layer_1-2" data-name="Layer 1"><g class="cls-1"><g class="cls-2"><path class="cls-3" d="M19.4515,1.9576l-.2283,24.8987-4.9866-.0213L10.885,13.5391,9.6635,26.8155l-4.9872-.0213L.2613,1.9576H4.1929L6.9,16.0855,8.2547,1.9576h3.5112l3.6671,14.328.3938-14.328Z"/><path class="cls-3" d="M34.2912,20.5779l1.624,6.35-11.4715-.0489L20.1122,1.9576h9.207l1.6123,6.3493L25.1759,8.3l.6033,2.9212,5.1777.0093,1.5048,6.0635L27.03,17.2784l.6769,3.2776Z"/><path class="cls-3" d="M50.9545,22.6346l-5.08-.0184.543,4.3561-4.73-.02L39.2186,1.9576h3.7539L58.324,27.0232l-4.8093-.0206ZM47.4925,16.55,44.014,10.2533l.9983,6.29Z"/><path class="cls-3" d="M61.8626,20.7419l-1.2053-.0041,2.8481,6.3075-4.6518-.02L48.3586,1.9576h5.4531c3.155,0,7.0281,3.6605,9.9934,9.4756,1.8482,3.6243,2.356,6.35,1.5682,7.8877l6.7067,7.761-4.9668-.0212Zm-5.2694-12.26L55.1225,8.48l2.6541,5.878,1.5419.0036c1.1653.0027,1.1909-1.1081.319-2.9363S57.7047,8.4836,56.5932,8.4822Z"/><path class="cls-3" d="M80.9418,20.7335l3.85,6.4026L73.32,27.0872,60.2338,1.9576H69.44L73.2789,8.36l-5.7552-.0072,1.6287,2.9456,5.1772.0093,3.6311,6.1142-5.431-.0153,1.8274,3.3049Z"/><path class="cls-3" d="M25.6137,38.6271l-1.3922,24.871-6.301-.0526-3.9388-13.31-1.84,13.2616L5.84,63.3446.2613,38.48l5.1941.03L8.7965,52.6533l2.025-14.1118,4.6387.0268,4.301,14.3432,1.0639-14.3121Z"/><path class="cls-3" d="M43.69,57.3246l1.624,6.35-14.4954-.1211L26.4866,38.6322l12.1636.0705,1.6123,6.3493-7.5067-.049.6033,2.9213,6.7156.0458L41.58,54.0337l-6.97-.052.6769,3.2776Z"/><path class="cls-3" d="M64.7477,59.486l-6.4616-.0514.2987,4.35-5.9768-.05-.88-24.9567,4.96.0287L73.6292,63.9105l-6.077-.0507Zm-3.8-6.0932-3.8318-6.3046.645,6.2811Z"/><path class="cls-3" d="M78.8663,57.67l-1.538-.0119,2.8481,6.3074-5.878-.0491L63.8034,38.8483l7.2041.0418c4.1682.0241,8.6856,3.7,11.6509,9.515,1.8482,3.6243,2.1067,6.3439.8824,7.8714l7.4705,7.7791-6.276-.0523ZM73.7111,45.4128,71.7935,45.4l2.6542,5.878,1.9887.0142c1.5031.0108,1.69-1.0961.8179-2.9243S75.16,45.4222,73.7111,45.4128Z"/><path class="cls-3" d="M103.224,57.7871l3.85,6.4026-14.4961-.121-13.0862-25.13,12.1629.07,3.8386,6.4024-7.5061-.0489,1.6287,2.9456,6.715.0459,3.6311,6.1142-6.9688-.0519,1.8273,3.3049Z"/><path class="cls-3" d="M31.776,75.2967,29.22,100.14l-7.6155-.0839L17.0785,86.7321,14.62,99.979l-7.6164-.0839L.2613,75.003l6.4566.06,3.9751,14.158,2.6953-14.0959,5.7663.0538,4.9348,14.3582,1.734-14.2961Z"/><path class="cls-3" d="M53.0878,94.0712l1.624,6.35-17.5193-.1931L32.861,75.3068l15.12.1409,1.6124,6.3493-9.2578-.0906.6032,2.9212,8.2537.0825,1.5048,6.0635L42.19,90.685l.6769,3.2776Z"/><path class="cls-3" d="M78.5409,96.3374l-7.8437-.0844.0544,4.3446-7.2236-.08.71-24.9187,6.1649.0574,18.5314,25.1413L81.59,100.717Zm-4.1375-6.1012-4.1851-6.3131.2917,6.2727Z"/><path class="cls-3" d="M95.87,94.5976l-1.8707-.02,2.8481,6.3074-7.1042-.0783L79.2482,75.739l8.9552.0835c5.1813.0483,10.343,3.7394,13.3084,9.5545,1.8481,3.6244,1.8573,6.338.1965,7.8551l8.2342,7.7973-7.5852-.0836ZM90.8291,82.3434,88.4645,82.32l2.6542,5.8779,2.4357.0249c1.8408.0188,2.1886-1.0842,1.3168-2.9125A4.5533,4.5533,0,0,0,90.8291,82.3434Z"/><path class="cls-3" d="M125.5061,94.8407l3.85,6.4027-17.52-.1931L98.75,75.9208l15.1193.1408,3.8386,6.4024-9.257-.0906L110.08,85.319l8.2528.0825,3.6311,6.1142-8.5067-.0885,1.8274,3.3049Z"/><path class="cls-3" d="M37.9383,111.9662l-3.72,24.8155-8.93-.1153-5.113-13.3379-3.0765,13.2322-8.931-.1152-7.9064-24.92,7.7191.09L12.59,125.7891l3.3656-14.08,6.8938.0806,5.5687,14.3733,2.4041-14.28Z"/><path class="cls-3" d="M62.4861,130.8178l1.624,6.35-20.5431-.2651-4.3316-24.9209,18.0767.2113,1.6123,6.3493L47.9155,118.41l.6033,2.9212,9.7917.1192,1.5048,6.0635L49.77,127.3884l.6769,3.2775Z"/><path class="cls-3" d="M92.3341,133.1887l-9.2259-.1173-.19,4.3388-8.47-.1094,2.3-24.8808,7.37.0861L104.24,137.6853l-8.6125-.1111ZM87.8588,127.08,83.32,120.758l-.0616,6.2643Z"/><path class="cls-3" d="M112.8737,131.5254l-2.2034-.0278,2.8481,6.3075-8.33-.1076L94.693,112.63l10.7063.1251a17.2454,17.2454,0,0,1,14.9658,9.594c1.8482,3.6244,1.6079,6.3321-.4893,7.8387l8.998,7.8156-8.8945-.1148Zm-4.9267-12.2515-2.8115-.0338,2.6542,5.878,2.8826.0355c2.1786.0268,2.6875-1.0724,1.8157-2.9006A4.89,4.89,0,0,0,107.947,119.2739Z"/><path class="cls-3" d="M147.7882,131.8944l3.85,6.4026-20.5442-.2651-13.0862-25.13,18.0757.2114,3.8386,6.4023-11.008-.1323,1.6287,2.9456,9.7907.1192,3.6311,6.1142-10.0445-.1252,1.8274,3.3049Z"/><path class="cls-3" d="M44.1005,148.6358l-4.884,24.7877-10.2444-.1466-5.7-13.3519-3.6948,13.2175-10.2456-.1466-9.07-24.9475,8.9816.12L14.486,162.357l4.0359-14.0639,8.0213.1074,6.2025,14.3884L35.82,148.5248Z"/><path class="cls-3" d="M71.8844,167.5645l1.624,6.35-23.567-.3372L45.61,148.656l21.0331.2818,1.6124,6.3493-12.76-.1741.6033,2.9212,11.33.1558,1.5048,6.0636L57.35,164.0917l.6769,3.2775Z"/><path class="cls-3" d="M106.1273,170.04l-10.608-.15-.4341,4.3329-9.7172-.1391,3.89-24.843,8.5758.1149,21.7113,25.2171-9.88-.1414Zm-4.8131-6.1173-4.8916-6.33-.4149,6.2559Z"/><path class="cls-3" d="M129.8774,168.4533l-2.536-.0358,2.848,6.3075-9.5566-.1367-10.495-25.0678,12.4574.1669c7.2075.0965,13.6579,3.8184,16.6232,9.6335,1.8482,3.6243,1.3586,6.3261-1.1751,7.8223l9.7618,7.8338-10.2037-.146Zm-4.8125-12.2488-3.2584-.0445,2.6542,5.878,3.3295.0462c2.5164.0349,3.1864-1.0605,2.3146-2.8887A5.2881,5.2881,0,0,0,125.0649,156.2045Z"/><path class="cls-3" d="M170.07,168.948l3.85,6.4026-23.5682-.3372-13.0862-25.1295,21.0321.2818,3.8385,6.4023-12.7588-.174,1.6287,2.9456,11.3285.1558,3.6311,6.1142-11.5823-.1619,1.8273,3.305Z"/><path class="cls-3" d="M50.2628,185.3053l-6.048,24.76-11.5589-.1779-6.2872-13.3659-4.3132,13.2028-11.56-.1779L.2613,184.5711l10.244.15,5.8772,14.2034,4.7062-14.048,9.1488.1344,6.8364,14.4035,3.7445-14.2482Z"/><path class="cls-3" d="M81.2827,204.3111l1.624,6.35-26.5909-.4092-4.3315-24.9209,23.99.3522,1.6123,6.3493-14.511-.2158.6033,2.9212,12.8676.1925,1.5049,6.0635L64.93,200.795l.6768,3.2775Z"/><path class="cls-3" d="M119.9205,206.8914l-11.99-.1831-.6784,4.3271-10.9641-.1688,5.48-24.8051,9.7813.1436L134.85,211.46l-11.1479-.1716Zm-5.1508-6.1253-5.245-6.3383-.7682,6.2474Z"/><path class="cls-3" d="M146.8811,205.3811l-2.8687-.0436,2.8481,6.3074-10.7829-.1659-10.495-25.0678,14.2084.2086c8.2207.1207,15.3154,3.8579,18.2807,9.673,1.8482,3.6243,1.1092,6.32-1.8609,7.806l10.5255,7.852-11.5129-.1772Zm-4.6983-12.246-3.7053-.0551,2.6542,5.8779,3.7765.0569c2.8541.0429,3.6852-1.0486,2.8134-2.8769S144.9832,193.1768,142.1828,193.1351Z"/><path class="cls-3" d="M192.3525,206.0016l3.85,6.4027-26.5922-.4093-13.0862-25.13,23.9885.3522,3.8385,6.4024-14.51-.2158L171.47,196.35l12.8663.1925,3.6311,6.1142-13.12-.1986,1.8273,3.305Z"/><path class="cls-3" d="M56.4251,221.9748l-7.212,24.7323L36.34,246.4979l-6.8744-13.38-4.9315,13.188-12.8748-.2092L.2613,221.0938l11.5065.1805,6.5112,14.2185,5.3765-14.032,10.2763.1612,7.47,14.4186,4.4146-14.2322Z"/><path class="cls-3" d="M90.681,241.0577l1.624,6.35L62.69,246.9261l-4.3315-24.921,26.9463.4227,1.6123,6.3494L70.6552,228.52l.6033,2.9212,14.4056.2291,1.5048,6.0636L72.51,237.4983l.6768,3.2775Z"/><path class="cls-3" d="M133.7137,243.7428l-13.3722-.2161-.9227,4.3213-12.2109-.1985,7.0694-24.7672,10.9867.1723,24.8912,25.2929-12.4156-.2018Zm-5.4886-6.1334-5.5982-6.3467-1.1215,6.239Z"/><path class="cls-3" d="M163.8848,242.309l-3.2014-.0516,2.8481,6.3074-12.0091-.1951-10.495-25.0678,15.9595.25c9.2338.1449,16.9728,3.8974,19.9381,9.7125,1.8482,3.6244.86,6.3143-2.5467,7.79l11.2893,7.87-12.8221-.2084Zm-4.584-12.2433L155.1486,230l2.6541,5.878,4.2234.0674c3.1918.051,4.1841-1.0367,3.3123-2.8649S162.4389,230.1154,159.3008,230.0657Z"/><path class="cls-3" d="M214.6346,243.0552l3.85,6.4027-29.6163-.4813-13.0861-25.1295,26.9448.4226,3.8385,6.4024-16.2607-.2575,1.6287,2.9456,14.4042.2291,3.6311,6.1142-14.658-.2352,1.8274,3.305Z"/><path class="cls-3" d="M62.5874,258.6444l-8.3759,24.7045-14.1878-.24-7.4615-13.3939-5.55,13.1733-14.1895-.2406L.2613,257.6165l12.769.2106,7.1453,14.2336,6.0467-14.016,11.4038.188L45.73,272.6664,50.815,258.45Z"/><path class="cls-3" d="M100.0793,277.8044l1.624,6.35-32.6386-.5533L64.7332,258.68l29.9027.4932,1.6124,6.3493-18.0132-.2993.6033,2.9212,15.9436.2658,1.5048,6.0635-16.1975-.2718.6769,3.2775Z"/><path class="cls-3" d="M147.5069,280.5941l-14.7543-.249-1.167,4.3155-13.4577-.2282,8.6592-24.7293,12.1922.201L165.46,285.2349l-13.6833-.232Zm-5.8264-6.1414-5.9515-6.3552-1.4747,6.2307Z"/><path class="cls-3" d="M180.8885,279.2369l-3.5341-.06,2.8481,6.3075-13.2353-.2244-10.495-25.0678,17.7106.2921c10.247.1689,18.63,3.9369,21.5956,9.752,1.8482,3.6243.6105,6.3082-3.2326,7.7733l12.0531,7.8884-14.1314-.24Zm-4.47-12.2407L171.82,266.92l2.6541,5.878,4.67.0781c3.53.059,4.683-1.0248,3.8112-2.853S179.8945,267.054,176.4187,266.9962Z"/><path class="cls-3" d="M236.9168,280.1089l3.85,6.4026-32.64-.5533-13.0861-25.13,29.9012.4931,3.8385,6.4024-18.0116-.2993,1.6287,2.9457,15.9421.2657,3.631,6.1142-16.1958-.2718,1.8274,3.305Z"/><path class="cls-3" d="M68.75,295.3139l-9.54,24.6768-15.5023-.2719L35.6589,306.311,29.4908,319.47l-15.5041-.2718L.2613,294.1392l14.0315.2407,7.7793,14.2487,6.717-14,12.5314.2149,8.738,14.4489,5.7548-14.2Z"/><path class="cls-3" d="M109.4776,314.551l1.624,6.35-35.6625-.6253-4.3315-24.921,32.8593.5636,1.6123,6.3493-19.7642-.341.6033,2.9212L103.9,305.15l1.5048,6.0635-17.7355-.3085.6769,3.2776Z"/><path class="cls-3" d="M161.3,317.4455l-16.1364-.2819-1.4113,4.31-14.7045-.2579,10.249-24.6915,13.3976.23,28.0712,25.3686-14.9511-.2621Zm-6.1641-6.1495-6.3048-6.3636-1.8281,6.2223Z"/><path class="cls-3" d="M197.8922,316.1647l-3.8668-.0674,2.8481,6.3074-14.4615-.2536-10.495-25.0678,19.4617.3338c11.26.1931,20.2877,3.9764,23.253,9.7915,1.8482,3.6243.3611,6.3023-3.9184,7.757l12.8168,7.9065-15.4406-.2707Zm-4.3556-12.2379-5.046-.087,2.6542,5.8779,5.1172.0888c3.8673.0671,5.1818-1.0129,4.31-2.8412S197.35,303.9926,193.5366,303.9268Z"/><path class="cls-3" d="M259.1989,317.1625l3.85,6.4026-35.6642-.6254-13.0862-25.13,32.8576.5635,3.8385,6.4024-19.7625-.341,1.6287,2.9457,17.48.3024,3.6311,6.1142-17.7337-.3085,1.8273,3.305Z"/><path class="cls-3" d="M74.9119,331.9834,64.2081,356.6325l-16.8167-.3032-8.6358-13.4218-6.7864,13.1438-16.8187-.3032L.2613,330.6619l15.294.2708,8.4133,14.2638,7.3873-13.9841,13.6589.2418,9.3718,14.4639,6.4251-14.1843Z"/><path class="cls-3" d="M118.8759,351.2977l1.624,6.35L81.8135,356.95l-4.3315-24.921,35.8158.634,1.6124,6.3494L93.3949,338.63l.6032,2.9212,19.02.3391,1.5048,6.0635-19.2735-.3451.6769,3.2776Z"/><path class="cls-3" d="M175.0933,354.2969l-17.5185-.3149-1.6556,4.3038-15.9513-.2876,11.8388-24.6536,14.6031.2585L196.0709,359.01l-16.2188-.2924Zm-6.5019-6.1576-6.6581-6.372-2.1813,6.2138Z"/><path class="cls-3" d="M214.8959,353.0926l-4.1995-.0754,2.8481,6.3074-15.6877-.2828-10.495-25.0678,21.2127.3755c12.2733.2173,21.9452,4.0159,24.9105,9.831,1.8482,3.6244.1118,6.2964-4.6042,7.7407l13.5806,7.9247-16.75-.3019Zm-4.2413-12.2352-5.493-.0977,2.6542,5.8779,5.5641.0995c4.2051.0751,5.6807-1.0011,4.8089-2.8293S214.8059,340.9313,210.6546,340.8574Z"/><path class="cls-3" d="M281.481,354.2161l3.85,6.4027-38.6883-.6975-13.0862-25.1295,35.814.634,3.8385,6.4023-21.5134-.3827,1.6287,2.9457,19.0177.339,3.6311,6.1142-19.2716-.3451,1.8274,3.305Z"/><path class="cls-3" d="M81.4367,370.81,69.5,395.43l-18.2085-.3364-9.2574-13.4366-7.4411,13.1282-18.2107-.3364L.2613,369.333l16.6308.3026,9.0845,14.28,8.0971-13.9672,14.8527.27,10.043,14.48L66.104,370.531Z"/><path class="cls-3" d="M128.827,390.2059l1.624,6.35-41.8881-.7737-4.3315-24.921,38.9463.7086,1.6123,6.3494-23.3694-.4269.6033,2.9212,20.6481.3778,1.5048,6.0636-20.9019-.3839.6768,3.2775Z"/><path class="cls-3" d="M189.6979,393.316l-18.9819-.35-1.9143,4.2976-17.2714-.319,13.5221-24.6135,15.8794.2889,31.3446,25.4467-17.5611-.3244Zm-6.86-6.1661-7.0321-6.3809-2.5554,6.2049Z"/><path class="cls-3" d="M232.9,392.1927l-4.5517-.0838,2.8481,6.3074-16.9861-.3137-10.495-25.0678,23.0668.42c13.346.2428,23.7,4.0577,26.6655,9.8728,1.8481,3.6243-.1523,6.29-5.3305,7.7233l14.3894,7.944L244.37,398.66Zm-4.12-12.2323-5.9661-.109,2.6541,5.8779,6.0373.1107c4.5628.0837,6.209-.9884,5.3372-2.8167S233.2884,380.0427,228.7794,379.96Z"/><path class="cls-3" d="M305.0739,393.4494l3.85,6.4026-41.89-.7737-13.0862-25.13,38.9443.7086,3.8385,6.4024-23.3673-.4269,1.6287,2.9457,20.646.3778,3.6311,6.1142-20.9-.3839,1.8273,3.3049Z"/><path class="cls-3" d="M87.9614,409.6365l-13.1686,24.59-19.6-.37-9.8791-13.4515-8.0958,13.1126-19.6026-.37L.2613,408.0041l17.9675.3345,9.7559,14.2958,8.8068-13.95,16.0465.2987,10.7142,14.4959,7.8441-14.1505Z"/><path class="cls-3" d="M138.7782,429.1141l1.6239,6.35-45.09-.85-4.3315-24.9209,42.0767.7831,1.6124,6.3494-25.2235-.4711.6033,2.9212,22.2765.4167,1.5048,6.0635-22.53-.4227.6769,3.2775Z"/><path class="cls-3" d="M204.3024,432.335l-20.4453-.3846-2.1729,4.2915-18.5916-.3505L178.298,411.318l17.1559.3194,33.028,25.4867-18.9034-.3564Zm-7.2171-6.1745-7.4063-6.39-2.9295,6.196Z"/><path class="cls-3" d="M250.9037,431.2927,246,431.2006l2.8481,6.3074-18.2844-.3447-10.495-25.0678,24.9209.4639c14.4187.2684,25.4551,4.1,28.42,9.9146,1.8482,3.6243-.4163,6.2838-6.0566,7.706l15.1981,7.9634-19.5224-.3681Zm-3.9994-12.2294-6.4394-.12,2.6542,5.8779,6.5105.122c4.92.0922,6.7372-.9759,5.8654-2.8041S251.7709,419.1542,246.9043,419.0633Z"/><path class="cls-3" d="M328.6667,432.6826l3.85,6.4027-45.0921-.85-13.0862-25.13,42.0745.7831,3.8385,6.4024-25.2212-.471,1.6287,2.9456,22.2743.4167,3.6311,6.1141-22.5281-.4226,1.8273,3.3049Z"/><path class="cls-3" d="M94.4862,448.4631l-14.4011,24.561-20.992-.4027L48.5923,459.1552l-8.7505,13.097L18.8472,471.85.2613,446.6752l19.3043.3663,10.4272,14.3118L39.5093,447.42l17.24.3271L68.135,462.259l8.5537-14.1336Z"/><path class="cls-3" d="M148.7293,468.0223l1.624,6.35-48.2916-.9263L97.73,448.5247l45.2072.8578,1.6123,6.3493-27.0776-.5153.6033,2.9212,23.905.4555,1.5048,6.0635-24.1588-.4615.6769,3.2776Z"/><path class="cls-3" d="M218.907,471.3541l-21.9087-.4194-2.4316,4.2853-19.9117-.382,16.8887-24.5333,18.4322.35,34.7115,25.5268-20.2457-.3883Zm-7.5748-6.1831-7.78-6.3987-3.3036,6.1871Z"/><path class="cls-3" d="M268.9077,470.3928l-5.2563-.1005L266.5,476.6l-19.5828-.3756-10.4949-25.0678,26.7749.508c15.4914.294,27.21,4.1414,30.1753,9.9565,1.8482,3.6243-.68,6.2775-6.7827,7.6887l16.0067,7.9826-20.9086-.4011Zm-3.8785-12.2265-6.9126-.1315,2.6542,5.8779,6.9837.1333c5.278.1007,7.2654-.9633,6.3936-2.7916S270.2534,458.2657,265.0292,458.1663Z"/><path class="cls-3" d="M352.26,471.9159l3.85,6.4026-48.294-.9263-13.0862-25.13,45.2048.8577,3.8386,6.4024-27.0752-.5152,1.6287,2.9456,23.9026.4554,3.6311,6.1142-24.1564-.4615,1.8273,3.305Z"/><path class="cls-3" d="M101.0109,487.29,85.3775,511.8213l-22.3839-.4358L51.8712,497.9044l-9.4053,13.0814L20.08,510.55.2613,485.3463l20.6411.3982,11.0984,14.3278,10.2263-13.9165,18.4342.3556,12.0565,14.5279,9.2632-14.1167Z"/><path class="cls-3" d="M158.68,506.9305l1.624,6.35-51.4933-1.0026L104.48,487.3566l48.3376.9324,1.6123,6.3493-28.9316-.5594L126.1012,497l25.5335.4942,1.5048,6.0636-25.7873-.5.6768,3.2776Z"/><path class="cls-3" d="M233.5115,510.3732l-23.372-.4543-2.69,4.2791-21.2319-.4134,18.5721-24.4932,19.7085.38,36.395,25.567-21.5879-.42Zm-7.9324-6.1916-8.1544-6.4077-3.6776,6.1782Z"/><path class="cls-3" d="M286.9116,509.4929l-5.6085-.1089,2.8481,6.3074-20.8811-.4066-10.495-25.0678,28.629.5523c16.5642.32,28.9649,4.1831,31.93,9.9982,1.8482,3.6243-.9444,6.2712-7.5089,7.6714l16.8154,8.0019-22.2948-.4341Zm-3.7576-12.2236-7.3857-.1429,2.6541,5.878,7.4569.1445c5.6357.1092,7.7937-.9507,6.9219-2.7789S288.7359,497.3772,283.154,497.2693Z"/><polygon class="cls-3" points="377.733 514.277 375.852 511.149 345.198 510.554 343.371 507.249 369.156 507.749 365.525 501.635 339.994 501.141 338.365 498.195 367.294 498.754 363.456 492.352 315.121 491.42 328.207 516.549 377.733 517.513 377.733 514.277"/></g><g class="cls-4"><path class="cls-3" d="M79.7216.302C81.1442,1.7337,82.39,2.3109,83.3708,1.98l4.089,10.148,1.4268-5.8512L86.3594.302Z"/><polygon class="cls-3" points="69.031 0.302 68.681 1.721 72.546 8.099 74.213 1.324 76.031 4.096 74.534 10.192 78.236 16.242 79.802 9.846 81.842 12.957 79.946 20.712 83.808 27.104 87.104 13.589 77.887 0.302 69.031 0.302"/><path class="cls-3" d="M119.9357,6.9121l1.5925-6.61H102.6l13.0619,24.3514,1.7265-7.1664L114.8,12.9157l1.8377-7.6193Zm-8.7715-.2388L107.3727.3319l4.6993,2.5843Z"/><path class="cls-3" d="M109.2846,29.0031l.4376-1.8134,4.0795,5.1846,1.67-6.9318L99.019,5.8073l-2.061,8.49c-1.1924,4.9122.3546,11.2966,4.0169,16.4761,2.2826,3.2282,4.3233,4.3227,5.8674,3.3257l3.8813,11.0521,1.7829-7.401Zm-8.0376-9.6285.5475-2.26,3.8016,4.8316-.5668,2.3446c-.4284,1.772-1.3438,1.67-2.5128.1127A5.9916,5.9916,0,0,1,101.247,19.3746Z"/><path class="cls-3" d="M102.2979,57.7021l3.8623,6.3916,4.1182-17.0947L94.5308,24.2964l-3.48,14.3343,3.8655,6.3777L97.06,36.1608l1.8184,2.7727-1.9156,7.9158,3.7015,6.05,1.9847-8.2162,2.04,3.1108Z"/><polygon class="cls-3" points="139.337 0.302 138.944 1.94 143.224 5.473 144.462 0.302 139.337 0.302"/><polygon class="cls-3" points="147.235 0.302 145.095 9.244 149.563 13 152.598 0.302 147.235 0.302"/><path class="cls-3" d="M139.4619,39.8566l2.2137-9.2554,3.3642,1.3266,2.0372-8.5241-19.5928-6.4054L125.7374,24.27l14.1745,29.1142,2.0714-8.6671Zm-3.5443-6.6422-3.6953-6.76,4.7953,2.166Z"/><path class="cls-3" d="M133.0728,59.7444l.5281-2.2072,4.0794,5.1846,2.0036-8.3833L123.2313,34.7033l-2.5374,10.563a23.5241,23.5241,0,0,0,3.566,18.4382c2.2826,3.2282,4.3911,4.0275,6.054,2.5138l3.6734,11.9562,2.1392-8.9508Zm-8.0688-9.4932.6691-2.7895,3.8017,4.8316-.6884,2.8737c-.52,2.1718-1.4795,2.2605-2.6485.7033A6.58,6.58,0,0,1,125.004,50.2512Z"/><path class="cls-3" d="M124.65,94.6919l3.8623,6.3916,4.941-20.6744L117.7056,57.7065,113.4217,75.54l3.8655,6.3778,2.62-10.92,1.8184,2.7727-2.334,9.7362,3.7016,6.05,2.403-10.0366,2.04,3.1108Z"/><polygon class="cls-3" points="162.54 0.302 157.966 19.481 162.437 23.224 165.533 10.23 167.631 11.788 164.878 23.346 169.158 26.879 171.98 15.021 174.333 16.77 170.953 30.982 175.42 34.739 181.184 10.486 166.221 0.302 162.54 0.302"/><path class="cls-3" d="M164.1235,66.7975l2.59-10.8914,3.4306,1.0373,2.3764-10L152.4949,42.42,150.42,51.1187l13.742,30.9962,2.4162-10.1677Zm-3.4524-7.042-3.5992-7.1779,4.8914,1.7479Z"/><path class="cls-3" d="M156.8609,90.4858l.6187-2.6011,4.0794,5.1846,2.3371-9.8348L147.4435,63.5993,144.43,76.2352c-1.7437,7.3108-.5473,15.2206,3.1151,20.4,2.2826,3.2282,4.4589,3.7323,6.24,1.702l3.4657,12.86,2.4953-10.5007Zm-8.1-9.3581.7907-3.3184,3.8017,4.8316-.81,3.4026c-.6121,2.5717-1.6152,2.8512-2.7842,1.2939A7.2733,7.2733,0,0,1,148.7611,81.1277Z"/><path class="cls-3" d="M147.0022,131.6816l3.8623,6.3916,5.7636-24.2541L140.8805,91.1165,135.7923,112.45l3.8655,6.3778,3.0958-12.993,1.8184,2.7727L141.82,120.1641l3.7016,6.05,2.8214-11.8571,2.04,3.1108Z"/><polygon class="cls-3" points="200.401 0.302 204.468 5.273 192.477 4.746 190.157 14.523 210.861 15.979 213.724 3.88 210.773 0.302 200.401 0.302"/><path class="cls-3" d="M196.81,52.7208l4.468,3.7562,6.586-27.8324L189.7343,16.3054,183.8415,41.14l4.4712,3.7425,3.5724-15.0669,2.0974,1.5588-3.1711,13.3784,4.28,3.5329,3.24-13.6788,2.3532,1.7489Z"/><path class="cls-3" d="M188.7851,93.7384l2.9657-12.5275,3.4971.7482,2.7155-11.476-20.4577-2.6415L175.103,77.9673l13.3094,32.8784,2.7611-11.6684Zm-3.3605-7.4419-3.5031-7.596,4.9875,1.33Z"/><path class="cls-3" d="M180.6491,121.2271l.7091-2.9948,4.0795,5.1846,2.6707-11.2864L171.6558,92.4953l-3.49,14.7087c-2.0193,8.51-.9981,17.1827,2.6642,22.3622,2.2826,3.2282,4.5268,3.4371,6.4272.89l3.2578,13.7644,2.8515-12.05Zm-8.1309-9.2228.9122-3.8475,3.8017,4.8316-.9316,3.9317c-.704,2.9715-1.7509,3.4417-2.92,1.8844S171.8288,114.9121,172.5182,112.0043Z"/><path class="cls-3" d="M170.2137,168.6714l3.8624,6.3916,6.5863-27.8338-15.7477-22.7027L159.0223,149.36l3.8655,6.3778,3.5721-15.0657,1.8184,2.7727-3.1707,13.3771,3.7015,6.05,3.24-13.6775,2.04,3.1109Z"/><polygon class="cls-3" points="245.511 0.302 224.489 0.302 222.485 8.779 231.704 21.01 219.531 21.276 216.895 32.431 237.915 32.509 241.136 18.854 232.564 7.571 244.089 6.332 245.511 0.302"/><path class="cls-3" d="M222.667,74.4592l4.4679,3.7562,7.4087-31.4119L216.4142,34.4643l-6.6971,28.3342,4.4711,3.7425,4.0489-17.14,2.0973,1.5589-3.5894,15.199,4.28,3.5329,3.6585-15.4995,2.3532,1.749Z"/><path class="cls-3" d="M213.4467,120.6793l3.3417-14.1636,3.5635.459,3.0548-12.9519-20.89-.76-2.7306,11.5526,12.8769,34.7605,3.1059-13.1691Zm-3.2687-7.8417-3.4069-8.0143,5.0836.9115Z"/><path class="cls-3" d="M204.4372,151.9685l.8-3.3887,4.0794,5.1846,3.0043-12.7379L195.868,121.3913l-3.9665,16.7816c-2.2949,9.7094-1.4491,19.1447,2.2133,24.3242,2.2826,3.2282,4.5947,3.1419,6.6137.0783l3.05,14.6685,3.2077-13.6Zm-8.1619-9.0876,1.0338-4.3765,3.8017,4.8315-1.0532,4.4608c-.7959,3.3713-1.8867,4.0322-3.0557,2.475S195.494,146.1885,196.2753,142.8809Z"/><path class="cls-3" d="M192.5659,205.6611l3.8623,6.3916,7.409-31.4135L188.09,157.9366l-6.6968,28.3328,3.8655,6.3777,4.0485-17.1382,1.8184,2.7726-3.5891,15.1975,3.7016,6.05,3.6581-15.4979,2.04,3.1109Z"/><polygon class="cls-3" points="258.18 0.302 265.234 9.375 252.755 11.625 249.894 23.765 258.941 36.747 246.586 37.806 243.632 50.339 264.969 49.038 268.547 33.828 260.136 21.85 271.829 19.879 275.407 4.666 272.001 0.302 258.18 0.302"/><path class="cls-3" d="M248.5242,96.1976l4.468,3.7563,8.2313-34.9915L243.0941,52.6232l-7.5015,31.834L240.0638,88.2l4.5252-19.2126,2.0973,1.5588-4.0078,17.02,4.28,3.5329,4.0769-17.32,2.3532,1.7489Z"/><path class="cls-3" d="M238.1083,147.62l3.7177-15.8,3.63.17,3.3939-14.4278-21.3228,1.1223-3.0585,12.98,12.4443,36.6426,3.4509-14.67Zm-3.1768-8.2415-3.3109-8.4325,5.18.4932Z"/><path class="cls-3" d="M228.2254,182.71l.89-3.7825,4.0794,5.1846,3.3379-14.1895L220.08,150.2873l-4.4429,18.8544c-2.5706,10.9088-1.9,21.1067,1.7624,26.2862,2.2826,3.2282,4.6625,2.8468,6.8-.7335l2.8423,15.5727,3.5638-15.15Zm-8.193-8.9524,1.1554-4.9056,3.8017,4.8316-1.1748,4.99c-.8879,3.7711-2.0224,4.6228-3.1914,3.0655S219.1591,177.4649,220.0324,173.7575Z"/><path class="cls-3" d="M214.0586,242.6509l3.8623,6.3916,8.2317-34.9932L210.405,191.3466l-7.5011,31.8324,3.8655,6.3778,4.5249-19.2109,1.8183,2.7726-4.0074,17.018,3.7016,6.05,4.0765-17.3184,2.04,3.1109Z"/><polygon class="cls-3" points="286.341 0.302 284.135 9.689 293.132 22.233 280.471 25.277 277.303 38.752 286.177 52.483 273.64 54.336 270.37 68.246 292.024 65.568 295.959 48.802 287.707 36.129 299.569 33.425 303.505 16.657 291.772 0.302 286.341 0.302"/><path class="cls-3" d="M274.3814,117.936l4.468,3.7563,9.054-38.571L269.774,70.782l-8.3058,35.3339,4.4711,3.7425,5.0016-21.2855,2.0974,1.5589-4.4263,18.84,4.28,3.5329,4.4954-19.1407,2.3532,1.749Z"/><path class="cls-3" d="M262.77,174.5611l4.0937-17.4357,3.6964-.1194,3.7332-15.9037-21.7553,3.0043-3.3865,14.4066,12.0117,38.5248,3.7958-16.1705ZM259.685,165.92l-3.2148-8.8507,5.2759.075Z"/><path class="cls-3" d="M252.0136,213.4513l.9806-4.1764,4.0795,5.1846,3.6715-15.6409-16.4526-19.6353-4.9193,20.9273c-2.8462,12.1081-2.3509,23.0687,1.3114,28.2482,2.2826,3.2282,4.73,2.5516,6.9869-1.5454l2.6345,16.4768,3.92-16.7Zm-8.2241-8.8172,1.277-5.4346,3.8016,4.8315-1.2963,5.5189c-.98,4.1709-2.1581,5.2133-3.3271,3.656S242.8243,208.7413,243.79,204.6341Z"/><path class="cls-3" d="M236.4108,279.6406l3.8623,6.3917,9.0544-38.573L233.58,224.7567l-8.3053,35.332,3.8655,6.3778,5.0012-21.2836,1.8183,2.7727-4.4258,18.8383,3.7016,6.05L239.73,253.705l2.04,3.1109Z"/><path class="cls-3" d="M297.1076,86.1542l21.97-4.056,4.2933-18.3226-8.0922-13.368,12.0295-3.4352,4.2938-18.3247L316.0957,5.2135l-3.89,16.5827L321.03,35.0916l-12.8437,3.8366-3.4743,14.81L313.414,68.22l-12.72,2.6461Z"/><path class="cls-3" d="M300.2387,139.6744l4.4679,3.7563,9.8766-42.1506L296.4538,88.9409l-9.11,38.8337,4.4712,3.7425,5.478-23.3583,2.0973,1.5588-4.8447,20.6609,4.28,3.5329,4.9137-20.9613,2.3532,1.7489Z"/><path class="cls-3" d="M287.4314,201.502l4.47-19.0718,3.7629-.4085,4.0723-17.38-22.1878,4.8863-3.7144,15.8335,11.5792,40.4069,4.1406-17.6711Zm-2.9929-9.0411L281.32,183.192l5.372-.3432Z"/><path class="cls-3" d="M275.8017,244.1926l1.0712-4.57,4.0795,5.1846,4.005-17.0925-16.4526-19.6353-5.3956,23c-3.1219,13.3074-2.8019,25.0308.8605,30.21,2.2826,3.2282,4.7982,2.2564,7.1735-2.3572l2.4267,17.3809,4.2762-18.25Zm-8.2552-8.6819,1.3986-5.9637,3.8017,4.8316-1.4179,6.0479c-1.0717,4.5707-2.2939,5.8039-3.4629,4.2466S266.49,240.0178,267.5465,235.5107Z"/><path class="cls-3" d="M258.7629,316.63l3.8623,6.3916,9.8771-42.1526-15.7476-22.7027-9.11,38.8317,3.8655,6.3778,5.4776-23.3563,1.8183,2.7727-4.8442,20.6588,3.7016,6.05,4.9133-20.9592,2.04,3.1108Z"/><path class="cls-3" d="M323.8452,104.062l22.287-5.4339L350.7831,78.75l-7.9325-14.063,12.1977-4.1671L359.7,40.6384,344.51,15.8266l-4.2337,18.0772L348.9283,47.95l-13.0261,4.63-3.781,16.1444,8.5294,15.2322-12.9022,3.4394Z"/><path class="cls-3" d="M326.0959,161.4128l4.468,3.7563,10.6992-45.73L323.1337,107.1l-9.9144,42.3335,4.4711,3.7425,5.9544-25.4312,2.0974,1.5589-5.2632,22.4814,4.28,3.533,5.3322-22.782,2.3531,1.749Z"/><path class="cls-3" d="M312.093,228.4429l4.8458-20.7078,3.8293-.6978,4.4116-18.8556-22.62,6.7683-4.0424,17.2605L309.6636,254.5l4.4856-19.1718Zm-2.901-9.4409-3.0226-9.6872,5.4681-.7614Z"/><path class="cls-3" d="M299.59,274.934l1.1617-4.964,4.0794,5.1846,4.3387-18.544-16.4526-19.6353-5.872,25.073c-3.3975,14.5067-3.2528,26.9928.41,32.1723,2.2826,3.2282,4.866,1.9612,7.36-3.1691l2.219,18.285,4.6324-19.8Zm-8.2863-8.5467,1.52-6.4927,3.8017,4.8315-1.5395,6.577c-1.1636,4.9706-2.43,6.3944-3.5986,4.8371S290.1548,271.2942,291.3036,266.3873Z"/><path class="cls-3" d="M281.1151,353.62l3.8623,6.3916,10.7-45.7324L279.93,291.5768l-9.9139,42.3313,3.8655,6.3778,5.9539-25.429,1.8183,2.7727-5.2625,22.4792,3.7015,6.05,5.3317-22.78,2.04,3.1109Z"/><polygon class="cls-3" points="377.733 32.613 374.595 27.064 369.998 46.724 377.733 60.277 377.733 32.613"/><polygon class="cls-3" points="377.733 90.65 372.044 79.805 377.733 77.533 377.733 61.868 365.248 67.034 361.143 84.592 369.489 100.619 356.394 104.898 352.156 123.023 374.778 116.13 377.733 103.482 377.733 90.65"/><path class="cls-3" d="M353.4741,184.43l4.468,3.7562,11.57-49.52L351.383,126.3268l-10.7661,46.0393,4.4712,3.7425,6.4588-27.626,2.0973,1.5588-5.7061,24.4092,4.28,3.5329,5.7752-24.71,2.3532,1.749Z"/><path class="cls-3" d="M338.2053,256.9686l5.2439-22.44,3.9-1.0039,4.7707-20.4183-23.0783,8.7608-4.39,18.7715L335.34,284.92l4.8507-20.7607Zm-2.8038-9.8643-2.9207-10.13,5.57-1.2043Z"/><path class="cls-3" d="M324.7774,307.4837l1.2575-5.381,4.0795,5.1846,4.6918-20.0809-16.4526-19.6353-6.3764,27.2678c-3.6893,15.7765-3.73,29.07-.0678,34.25,2.2826,3.2282,4.9378,1.6486,7.5576-4.0287l1.9989,19.2423,5.01-21.4405Zm-8.3192-8.4036,1.6489-7.0528,3.8017,4.8316-1.6683,7.137c-1.2608,5.394-2.5732,7.02-3.7422,5.4625S315.212,304.41,316.4582,299.08Z"/><path class="cls-3" d="M304.7821,392.7858l3.8623,6.3916,11.5709-49.5226-15.7477-22.7027-10.7655,46.0368,3.8655,6.3778,6.4582-27.6235,1.8184,2.7727-5.7056,24.4067,3.7016,6.05,5.7746-24.7072,2.04,3.1109Z"/><polygon class="cls-3" points="377.733 153.686 368.015 195.299 372.486 199.041 377.733 176.568 377.733 153.686"/><polygon class="cls-3" points="377.733 187.111 375.397 197.116 377.733 199.045 377.733 187.111"/><path class="cls-3" d="M377.7332,238.6366l-22.21,10.1475-4.7369,20.2823,10.2307,46.2747,5.2159-22.35-1.9154-7.4972,5.642-24.1724,3.97-1.31,3.8035-16.2978Zm-16.1221,36.57-2.819-10.5727,5.6716-1.6471Z"/><path class="cls-3" d="M349.9649,340.0334l1.3533-5.798,4.0795,5.1847,5.0451-21.6179L343.99,298.1669l-6.8809,29.4625c-3.9811,17.0464-4.2076,31.1477-.5453,36.3272,2.2827,3.2282,5.01,1.3361,7.7552-4.8883l1.7789,20.2,5.3867-23.0815Zm-8.3521-8.26,1.7776-7.613,3.8017,4.8316-1.797,7.6972c-1.3581,5.8173-2.717,7.645-3.886,6.0878S340.2693,337.5266,341.6128,331.773Z"/><path class="cls-3" d="M328.4491,431.9515l3.8623,6.3916,12.442-53.313-15.7477-22.7026L317.3886,412.07l3.8655,6.3778,6.9625-29.8181,1.8184,2.7726-6.1485,26.3343,3.7016,6.05,6.2176-26.6347,2.04,3.1109Z"/><polygon class="cls-3" points="377.733 294.014 376.921 297.494 377.733 301.505 377.733 294.014"/><path class="cls-3" d="M377.7332,367.8064V338.4373l-8.1065-9.6746L362.2414,360.42c-4.273,18.3162-4.685,33.225-1.0227,38.4045,2.2826,3.2283,5.0815,1.0236,7.9527-5.7479l1.5589,21.1569,5.7638-24.7224-1.3418-16.928,1.4492-6.215Zm-7.1835,1.5753c-1.4554,6.2406-2.8607,8.27-4.03,6.713s-1.1934-5.4519.2473-11.6289l1.9064-8.1731,3.8017,4.8316Z"/><path class="cls-3" d="M352.1161,471.1171l3.8623,6.3916,13.313-57.1032-15.7476-22.7027L341.075,451.1507l3.8655,6.3777,7.467-32.0127,1.8184,2.7727L347.6343,456.55l3.7016,6.05,6.6606-28.5622,2.04,3.1109Z"/><polygon class="cls-3" points="377.733 464.133 377.733 434.574 364.762 490.232 368.627 496.609 376.598 462.402 377.733 464.133"/><polygon class="cls-3" points="377.733 501.912 375.783 510.283 377.733 513.51 377.733 501.912"/><polygon class="cls-3" points="377.733 468.108 371.382 495.364 375.084 501.414 377.733 490.042 377.733 468.108"/></g></g></g></g></svg>