<?xml version="1.0" standalone="no"?>
<!DOCTYPE svg PUBLIC "-//W3C//DTD SVG 20010904//EN"
 "http://www.w3.org/TR/2001/REC-SVG-20010904/DTD/svg10.dtd">
<svg version="1.0" xmlns="http://www.w3.org/2000/svg"
 width="3132.000000pt" height="3132.000000pt" viewBox="0 0 3132.000000 3132.000000"
 preserveAspectRatio="xMidYMid meet">
<metadata>
Created by potrace 1.11, written by Peter Selinger 2001-2013
</metadata>
<g transform="translate(0.000000,3132.000000) scale(0.100000,-0.100000)"
fill="#000000" stroke="none">
<path d="M13337 24353 c-1 -1 -182 -4 -402 -8 -220 -3 -479 -8 -575 -10 -96
-2 -285 -7 -420 -10 -322 -7 -614 -14 -830 -20 -96 -2 -290 -7 -430 -10 -140
-3 -343 -8 -450 -11 -279 -6 -1695 -12 -4770 -20 -3381 -7 -5375 -12 -5420
-13 l-35 -1 0 -8459 c0 -4653 3 -8462 7 -8466 6 -6 1699 -13 3678 -14 477 -1
716 3 890 13 68 4 121 30 186 93 106 101 118 123 364 658 186 405 189 410 235
515 21 47 49 110 62 140 14 30 61 136 105 235 44 99 88 198 98 220 10 22 48
110 85 195 37 85 73 169 80 185 8 17 39 88 71 160 63 143 91 194 138 243 37
39 114 90 147 98 13 3 42 10 64 15 22 5 227 9 455 8 1893 -2 5444 -10 5820
-13 439 -4 468 -5 519 -25 86 -33 160 -81 231 -151 63 -63 72 -78 257 -450
274 -549 421 -882 532 -1205 111 -320 202 -502 320 -644 l28 -34 304 2 c324 2
1039 8 1774 15 269 3 469 9 498 15 26 6 64 14 85 17 20 3 82 15 137 26 138 27
144 28 195 40 25 5 59 12 75 15 17 3 93 21 170 40 77 19 147 36 155 38 8 2 80
22 160 45 80 22 152 42 160 45 105 27 537 174 650 220 43 18 93 38 100 40 3 1
22 9 44 18 21 9 40 17 43 17 2 0 28 11 56 24 29 13 93 41 142 62 129 54 570
279 705 358 63 38 131 77 150 88 48 28 266 168 320 207 25 17 56 39 70 48 34
23 284 206 290 213 20 21 111 90 118 90 6 0 28 -22 49 -49 116 -145 424 -463
573 -592 41 -35 77 -66 80 -69 70 -70 384 -303 585 -435 344 -225 614 -369
1070 -570 237 -105 797 -292 1015 -340 8 -2 49 -12 90 -23 41 -11 109 -27 150
-36 41 -8 116 -24 165 -35 50 -10 108 -22 130 -25 22 -4 92 -15 155 -26 63
-10 140 -22 170 -25 30 -3 66 -8 80 -10 14 -2 50 -7 80 -10 30 -4 66 -8 80
-10 14 -2 63 -6 110 -10 47 -3 101 -8 120 -10 214 -23 908 -23 1060 0 14 2 65
7 114 10 49 4 96 8 105 10 9 1 48 6 86 9 39 4 77 9 85 11 8 2 35 7 60 10 83
11 185 28 275 45 28 5 61 12 75 14 102 18 397 92 545 137 590 180 1104 435
1563 775 62 46 125 95 140 108 15 13 63 54 107 92 97 82 348 332 431 429 174
202 358 450 491 660 7 11 16 28 19 38 3 9 10 17 15 17 5 0 9 4 9 8 0 5 23 47
50 93 123 204 291 569 380 824 76 219 166 583 185 754 3 30 7 57 9 60 2 3 7
38 10 76 4 39 11 106 15 150 9 82 7 643 -2 681 -3 12 -8 57 -12 100 -4 43 -9
81 -10 84 -2 3 -6 30 -10 60 -4 30 -22 127 -40 215 -88 418 -239 813 -460
1205 -54 95 -257 406 -297 455 -9 11 -53 66 -97 122 -189 240 -471 530 -705
724 -16 13 -34 29 -40 34 -30 28 -258 202 -344 263 -621 438 -1287 755 -2487
1183 -335 119 -372 132 -567 204 -267 98 -605 234 -783 315 -33 15 -82 37
-110 50 -104 46 -364 176 -464 232 -58 32 -106 58 -107 58 -6 0 -241 144 -322
197 -496 327 -800 793 -883 1353 -14 94 -18 438 -6 540 18 163 67 376 122 539
61 181 173 435 244 551 11 19 25 44 30 55 9 21 160 247 170 255 3 3 35 41 71
85 82 101 224 243 321 320 41 33 76 62 79 65 8 9 171 115 235 153 271 160 693
289 1055 322 36 4 83 8 105 10 51 6 329 6 375 1 19 -3 64 -7 100 -11 36 -3 74
-8 85 -11 11 -2 36 -6 55 -8 247 -29 641 -187 894 -359 170 -114 403 -326 537
-487 30 -36 57 -67 60 -70 18 -16 239 -326 239 -335 0 -9 94 -151 129 -195 49
-62 128 -138 176 -168 53 -34 85 -33 320 13 105 20 201 38 215 41 14 2 36 7
50 10 14 3 39 8 55 11 39 6 562 119 825 178 113 26 216 49 229 51 12 3 53 12
90 20 121 29 102 24 264 60 70 15 127 32 127 38 0 37 -132 455 -170 541 -5 11
-37 83 -70 160 -225 513 -550 985 -975 1411 -341 341 -707 620 -1116 849 -90
51 -414 210 -474 233 -27 11 -86 34 -130 52 -44 17 -100 40 -125 50 -40 15
-168 58 -315 103 -111 34 -379 96 -530 122 -22 4 -49 9 -60 11 -25 4 -226 32
-282 38 -224 27 -769 28 -978 1 -16 -2 -54 -6 -84 -10 -117 -12 -236 -31 -361
-56 -52 -11 -107 -22 -121 -24 -14 -2 -38 -9 -52 -14 -15 -6 -27 -9 -27 -6 0
2 -15 -1 -32 -6 -18 -6 -40 -12 -48 -14 -108 -24 -444 -132 -515 -165 -11 -5
-76 -32 -145 -61 -261 -109 -577 -281 -820 -447 -112 -76 -317 -226 -330 -241
-3 -3 -27 -24 -55 -46 -27 -21 -52 -42 -55 -45 -3 -3 -36 -32 -75 -65 -105
-90 -342 -325 -437 -433 -46 -53 -87 -100 -93 -106 -120 -129 -374 -493 -515
-736 -40 -69 -74 -127 -77 -130 -2 -2 -18 13 -36 34 -18 22 -47 55 -64 75 -18
20 -65 73 -105 118 -90 102 -410 420 -538 534 -84 76 -193 169 -345 294 -136
112 -364 278 -580 422 -118 78 -432 273 -441 273 -2 0 -25 13 -51 28 -72 43
-223 123 -353 187 -63 31 -126 63 -140 70 -133 69 -575 251 -837 344 -352 124
-887 272 -1105 305 -21 3 -57 10 -80 15 -24 5 -63 12 -88 15 -25 3 -54 8 -65
10 -11 2 -45 7 -75 11 -30 4 -62 8 -70 10 -8 1 -42 6 -75 9 -33 4 -73 9 -90
12 -16 2 -50 6 -75 8 -25 2 -71 7 -102 10 -32 3 -82 8 -110 11 -29 2 -78 7
-108 10 -76 7 -169 14 -275 20 -49 3 -126 7 -170 10 -167 11 -431 21 -780 31
-197 6 -1654 12 -1658 7z m-4989 -2358 c13 -44 25 -89 27 -100 3 -12 13 -46
23 -77 l19 -57 -42 -98 c-23 -54 -51 -118 -63 -143 -11 -25 -64 -144 -117
-265 -54 -121 -107 -240 -118 -265 -11 -25 -21 -47 -22 -50 -4 -13 -124 -282
-173 -390 -14 -30 -40 -89 -57 -130 -18 -41 -46 -102 -61 -135 -15 -33 -28
-62 -29 -65 -1 -3 -11 -25 -22 -50 -11 -25 -54 -121 -96 -215 -41 -93 -116
-260 -165 -370 -49 -110 -111 -247 -136 -305 -79 -176 -92 -204 -151 -333 -19
-42 -63 -139 -96 -215 -33 -75 -72 -162 -86 -192 -14 -30 -66 -145 -115 -255
-49 -110 -100 -222 -113 -250 -12 -27 -98 -216 -190 -420 -92 -203 -179 -397
-194 -430 -16 -33 -40 -88 -56 -122 -15 -35 -30 -63 -34 -64 -36 -5 -3970 -3
-3981 2 -13 6 -15 296 -14 2541 1 1393 2 2533 3 2534 0 0 1359 0 3018 0 l3017
-1 24 -80z m5627 31 c385 -11 648 -20 850 -31 193 -10 302 -16 355 -20 30 -2
100 -6 155 -10 129 -8 195 -13 264 -19 31 -3 88 -8 126 -11 39 -3 90 -8 115
-11 25 -3 65 -7 90 -9 86 -7 175 -15 205 -20 17 -2 53 -7 80 -10 28 -3 64 -8
80 -10 17 -2 53 -7 80 -10 46 -5 214 -29 295 -41 19 -3 51 -7 70 -10 19 -2 42
-6 50 -9 8 -2 35 -7 60 -10 25 -3 52 -7 60 -10 8 -2 31 -6 50 -9 59 -9 240
-46 325 -66 44 -10 91 -21 105 -24 76 -14 325 -84 454 -127 252 -85 412 -157
629 -286 122 -72 385 -241 404 -259 7 -7 29 -23 50 -35 21 -13 45 -29 53 -36
8 -6 69 -53 135 -104 210 -162 361 -294 550 -484 50 -49 119 -121 155 -160 35
-38 80 -88 100 -110 68 -75 219 -265 301 -380 27 -38 55 -77 62 -85 17 -21
144 -220 199 -310 239 -397 447 -878 583 -1344 44 -152 83 -300 91 -346 3 -14
9 -41 14 -60 14 -53 60 -294 80 -420 17 -104 18 -112 25 -169 4 -30 8 -61 10
-70 1 -9 6 -50 10 -91 4 -41 8 -82 10 -90 2 -8 6 -58 10 -110 4 -52 8 -111 10
-130 15 -158 21 -704 11 -910 -7 -126 -17 -287 -21 -330 -2 -19 -6 -72 -10
-118 -3 -46 -8 -91 -10 -100 -1 -9 -6 -52 -9 -94 -4 -42 -8 -85 -10 -95 -2
-10 -7 -40 -10 -68 -9 -64 -16 -113 -22 -145 -2 -14 -6 -45 -10 -70 -3 -25 -9
-61 -14 -80 -5 -19 -11 -51 -14 -70 -27 -174 -124 -552 -200 -784 -40 -120
-114 -323 -135 -371 -30 -67 -41 -94 -41 -98 0 -7 -67 -152 -128 -277 -239
-490 -578 -973 -967 -1379 -239 -249 -528 -524 -794 -754 -35 -30 -268 -218
-316 -254 -17 -13 -46 -35 -66 -50 -20 -16 -47 -35 -59 -43 -12 -8 -50 -35
-83 -59 -67 -49 -332 -223 -357 -235 -8 -4 -24 -12 -35 -19 -372 -227 -859
-426 -1290 -527 -209 -49 -308 -68 -460 -85 -27 -4 -57 -8 -65 -10 -8 -2 -54
-6 -101 -10 l-86 -6 -78 183 c-107 249 -553 1286 -569 1323 -8 17 -28 64 -46
105 -18 41 -38 89 -46 105 -33 75 -284 658 -284 660 0 2 -13 32 -29 67 -16 35
-66 149 -111 253 -79 183 -93 217 -124 288 -29 65 -88 203 -113 262 -14 33
-35 83 -48 110 -44 97 -85 193 -85 199 0 3 -13 33 -29 68 -17 35 -68 151 -114
258 -200 463 -450 1038 -467 1075 -10 22 -46 105 -80 185 -59 136 -80 186
-117 270 -8 19 -47 107 -85 195 -38 88 -75 174 -82 190 -8 17 -51 116 -96 220
-45 105 -90 208 -100 230 -10 22 -55 126 -100 230 -45 105 -91 210 -102 235
-11 25 -146 335 -300 690 -154 355 -288 663 -298 685 -10 22 -55 126 -100 230
-45 105 -104 240 -130 300 -26 61 -71 164 -100 230 -28 66 -58 135 -66 153 -8
17 -20 47 -28 65 -8 17 -26 58 -40 90 -14 32 -26 60 -26 62 0 2 -11 28 -24 57
-13 29 -84 190 -156 358 -73 168 -140 323 -150 345 -10 22 -38 87 -63 145 -65
152 -336 780 -352 815 -25 56 -87 200 -161 375 -41 96 -81 189 -89 206 -8 16
-37 84 -65 149 -28 65 -57 133 -65 149 -32 71 -307 712 -312 729 -5 15 3 17
63 18 66 0 153 2 584 13 107 3 407 8 665 12 259 3 471 7 472 8 6 5 1387 -2
1598 -8z m-4335 -3296 c0 -5 83 -218 185 -472 102 -255 187 -467 188 -473 3
-10 297 -752 321 -810 19 -44 200 -499 202 -505 0 -3 5 -16 11 -30 6 -14 23
-56 38 -95 15 -38 35 -88 45 -110 10 -22 34 -85 55 -140 20 -55 46 -118 56
-139 10 -22 19 -44 19 -48 0 -5 8 -28 19 -51 10 -23 51 -125 90 -227 40 -102
77 -194 82 -205 5 -11 85 -211 177 -445 93 -234 172 -434 177 -445 5 -11 9
-22 10 -25 1 -3 7 -18 14 -35 7 -16 42 -104 77 -195 36 -91 69 -174 74 -185 5
-11 45 -110 88 -220 44 -110 119 -299 167 -420 48 -121 188 -474 311 -785 124
-311 229 -576 235 -590 6 -14 17 -41 24 -61 l13 -36 -2709 0 c-1490 0 -2709 3
-2709 7 0 8 39 105 204 513 53 130 138 342 190 470 52 127 147 363 211 522 65
160 126 310 135 335 9 25 48 119 85 210 37 91 76 185 85 210 21 56 117 294
135 335 7 17 88 217 180 445 92 228 172 426 178 440 6 14 11 27 11 30 1 3 9
24 18 45 10 22 115 281 233 575 119 294 220 544 225 555 5 11 48 117 95 235
47 118 90 224 95 235 5 11 93 229 195 485 103 256 193 479 200 495 7 17 32 77
55 135 22 58 47 119 54 135 7 17 42 101 77 188 55 137 79 182 79 147z m14369
-3664 c258 -130 546 -253 846 -363 139 -51 521 -180 555 -188 8 -1 44 -12 80
-23 36 -12 103 -32 150 -46 47 -14 191 -57 320 -95 484 -144 889 -289 1180
-423 120 -55 380 -187 408 -206 15 -10 34 -22 42 -26 45 -21 209 -126 320
-204 425 -302 710 -620 900 -1007 112 -227 171 -425 199 -670 9 -76 7 -361 -3
-391 -3 -11 -8 -36 -11 -56 -3 -21 -7 -55 -10 -75 -13 -92 -85 -327 -140 -458
-42 -101 -134 -270 -203 -375 -123 -186 -192 -271 -362 -440 -105 -106 -166
-158 -350 -303 -101 -80 -380 -245 -540 -320 -111 -52 -233 -103 -253 -106 -4
0 -20 -7 -35 -15 -23 -12 -261 -89 -312 -101 -196 -46 -309 -69 -455 -90 -150
-22 -536 -22 -665 -1 -14 3 -50 7 -80 10 -297 33 -771 169 -1104 319 -238 106
-482 237 -701 375 -107 68 -352 236 -365 251 -3 4 -32 26 -65 50 -60 45 -218
174 -265 217 -14 13 -54 50 -90 83 -135 123 -275 267 -385 396 -33 39 -63 72
-66 75 -3 3 -45 56 -92 119 -79 105 -86 117 -73 135 47 73 183 320 265 481 82
161 192 388 197 405 1 8 33 80 58 135 32 70 186 470 225 585 18 52 35 102 39
110 3 8 6 17 7 20 1 3 12 39 25 80 13 41 25 80 26 85 2 6 22 71 44 145 33 110
100 353 115 420 2 8 9 38 15 65 11 48 15 65 24 110 3 11 16 72 30 135 13 63
28 135 31 160 4 25 10 63 15 86 5 22 12 58 15 80 2 21 7 50 10 64 3 14 7 42
10 64 3 21 7 50 9 65 3 14 8 46 11 71 3 25 8 56 10 70 5 33 31 261 39 345 2
17 7 77 11 135 4 58 9 114 10 125 1 11 3 41 4 67 l1 47 116 -65 c64 -36 182
-98 263 -138z m-18779 -400 c-5 -11 -15 -34 -23 -51 -8 -16 -57 -122 -107
-235 -129 -287 -130 -288 -160 -355 -15 -33 -37 -82 -50 -110 -12 -27 -44 -97
-70 -155 -26 -58 -58 -127 -70 -155 -13 -27 -36 -79 -52 -115 -17 -36 -47
-103 -68 -150 -21 -47 -47 -105 -58 -130 -69 -151 -92 -203 -164 -365 -44 -99
-98 -217 -119 -263 -22 -46 -39 -85 -39 -87 0 -3 -14 -35 -31 -72 -17 -38 -59
-131 -94 -208 -60 -133 -79 -175 -130 -290 -13 -27 -87 -194 -165 -370 -78
-176 -152 -342 -165 -370 -12 -27 -75 -169 -140 -315 -64 -146 -125 -283 -135
-305 -33 -74 -172 -389 -222 -505 -28 -63 -59 -135 -71 -160 -11 -25 -35 -81
-54 -125 -19 -44 -43 -98 -53 -120 -11 -22 -44 -98 -75 -170 -31 -71 -62 -143
-70 -160 -7 -16 -37 -84 -65 -150 -29 -66 -60 -138 -70 -160 -10 -22 -53 -121
-95 -220 -43 -99 -88 -202 -100 -230 -13 -27 -58 -131 -100 -230 -43 -99 -85
-196 -93 -215 -9 -19 -16 -37 -17 -40 -1 -3 -11 -25 -22 -50 l-20 -45 0 3352
0 3353 1488 -2 1488 -1 -9 -21z"/>
</g>
</svg>
