<svg id="Layer_1" data-name="Layer 1" xmlns="http://www.w3.org/2000/svg" viewBox="0 0 367.705 367.7752"><title>instagramDark</title><path d="M370.375,109.1643c-.8616-19.5414-4.0216-32.9759-8.5484-44.6171a94.2115,94.2115,0,0,0-53.8139-53.811C296.3042,6.2094,282.94,3.0493,263.3984,2.1877c-19.6873-.9345-25.9372-1.1506-75.87-1.1506s-56.1824.2161-75.7968,1.0777C92.19,2.9763,78.7559,6.1392,67.1175,10.6632A89.7353,89.7353,0,0,0,34.4981,31.9306,90.5482,90.5482,0,0,0,13.3037,64.4771C8.7769,76.1884,5.6168,89.55,4.7552,109.0913c-.9345,19.6874-1.1506,25.9373-1.1506,75.87s.2161,56.1825,1.0777,75.7969c.8615,19.5413,4.0244,32.9759,8.5512,44.617a94.196,94.196,0,0,0,53.8111,53.8111c11.7113,4.5268,25.0729,7.6869,44.6171,8.5485,19.6115.8643,25.8643,1.0776,75.7968,1.0776s56.1825-.2133,75.7968-1.0776c19.5414-.8616,32.9759-4.0217,44.6143-8.5485a94.07,94.07,0,0,0,53.8138-53.8111c4.524-11.7113,7.6869-25.0757,8.5485-44.617.8616-19.6144,1.0777-25.8643,1.0777-75.7969S371.2366,128.7787,370.375,109.1643ZM337.256,259.3211c-.7914,17.9613-3.8084,27.66-6.3229,34.1265a61.0081,61.0081,0,0,1-34.918,34.918c-6.4661,2.5145-16.2354,5.5315-34.1265,6.32-19.3983.8644-25.2161,1.0777-74.287,1.0777s-54.9617-.2133-74.29-1.0777c-17.9614-.7886-27.66-3.8056-34.1266-6.32A56.5939,56.5939,0,0,1,58.0639,314.642,57.1792,57.1792,0,0,1,44.34,293.5206c-2.5146-6.4661-5.5315-16.2382-6.32-34.1266-.8644-19.3982-1.0777-25.2188-1.0777-74.29s.2133-54.9617,1.0777-74.287c.7886-17.9613,3.8055-27.66,6.32-34.1265A55.8993,55.8993,0,0,1,58.1369,55.5666,57.09,57.09,0,0,1,79.2583,41.8458c6.4661-2.5146,16.2382-5.5315,34.1265-6.323,19.3983-.8615,25.2189-1.0776,74.287-1.0776,49.1439,0,54.9617.2161,74.29,1.0776,17.9614.7915,27.6605,3.8084,34.1266,6.323A56.5517,56.5517,0,0,1,317.21,55.5666a57.1662,57.1662,0,0,1,13.7236,21.1242c2.5145,6.4661,5.5315,16.2353,6.3229,34.1265.8616,19.3983,1.0777,25.216,1.0777,74.287S338.1176,239.9228,337.256,259.3211Z" transform="translate(-3.6046 -1.0371)" fill="#2f0e47"/><path d="M187.5286,90.4845a94.4767,94.4767,0,1,0,94.4767,94.4766A94.5,94.5,0,0,0,187.5286,90.4845Zm0,155.7613a61.2847,61.2847,0,1,1,61.2847-61.2847A61.2945,61.2945,0,0,1,187.5286,246.2458Z" transform="translate(-3.6046 -1.0371)" fill="#2f0e47"/><path d="M307.7994,86.7491a22.0574,22.0574,0,1,1-22.0587-22.0559A22.058,22.058,0,0,1,307.7994,86.7491Z" transform="translate(-3.6046 -1.0371)" fill="#2f0e47"/></svg>