<svg id="Layer_1" data-name="Layer 1" xmlns="http://www.w3.org/2000/svg" xmlns:xlink="http://www.w3.org/1999/xlink" viewBox="0 0 380.4505 384"><defs><style>.cls-1{fill:url(#linear-gradient);}.cls-2{fill:#2f0e47;}.cls-3{fill:url(#linear-gradient-2);}.cls-4{opacity:0.66;fill:url(#linear-gradient-3);}.cls-5{fill:url(#linear-gradient-4);}.cls-6{fill:#fff;}</style><linearGradient id="linear-gradient" x1="192.3691" y1="72.0224" x2="192.3691" y2="-8.2334" gradientTransform="matrix(1, 0, 0, -1, 0.0002, 383.7848)" gradientUnits="userSpaceOnUse"><stop offset="0" stop-color="#3e1066" stop-opacity="0"/><stop offset="1" stop-color="#270d3d"/></linearGradient><linearGradient id="linear-gradient-2" x1="203.8843" y1="178.5617" x2="60.3062" y2="322.1397" gradientTransform="matrix(1, 0, 0, -1, 0.0002, 383.7848)" gradientUnits="userSpaceOnUse"><stop offset="0" stop-color="#3e1066" stop-opacity="0"/><stop offset="0.0363" stop-color="#3b1061" stop-opacity="0.1683"/><stop offset="0.121" stop-color="#370f57" stop-opacity="0.4737"/><stop offset="0.221" stop-color="#330f50" stop-opacity="0.7115"/><stop offset="0.3447" stop-color="#310e4b" stop-opacity="0.878"/><stop offset="0.5182" stop-color="#2f0e48" stop-opacity="0.9736"/><stop offset="1" stop-color="#2f0e47"/></linearGradient><linearGradient id="linear-gradient-3" x1="288.1797" y1="45.1692" x2="-0.9498" y2="180.6987" gradientTransform="matrix(1, 0, 0, -1, 0.0002, 383.7848)" gradientUnits="userSpaceOnUse"><stop offset="0" stop-color="#3e1066" stop-opacity="0"/><stop offset="1" stop-color="#2f0e47"/></linearGradient><linearGradient id="linear-gradient-4" x1="358.5153" y1="15.4514" x2="157.0947" y2="216.872" xlink:href="#linear-gradient-3"/></defs><title>linkedinDark</title><path class="cls-1" d="M6.1217,307.2459q.3956,3.9814.82,7.9629a69.9211,69.9211,0,0,0,62.1123,62.1094,1159.8215,1159.8215,0,0,0,246.63,0,69.918,69.918,0,0,0,62.1094-62.1094q.4263-3.9814.8232-7.9629Z" transform="translate(-2.1763 0.1076)"/><path class="cls-2" d="M315.6842,377.3182a1159.8487,1159.8487,0,0,1-246.6328,0A69.9211,69.9211,0,0,1,6.942,315.2059c-5.83-82.19-6.858-163.4186,0-246.63A69.921,69.921,0,0,1,69.0514,6.4666a1159.8215,1159.8215,0,0,1,246.63,0A69.921,69.921,0,0,1,377.7936,68.576c7.1074,82.9256,5.7453,164.2013,0,246.63A69.9182,69.9182,0,0,1,315.6842,377.3182Z" transform="translate(-2.1763 0.1076)"/><path class="cls-2" d="M356.9079,82.4656a62.0439,62.0439,0,0,0-55.1133-55.1162,1029.5908,1029.5908,0,0,0-218.8535,0A62.0522,62.0522,0,0,0,27.8249,82.4656a1029.5636,1029.5636,0,0,0,0,218.8506,62.0466,62.0466,0,0,0,55.1162,55.1162,1029.1688,1029.1688,0,0,0,218.8506,0,62.0413,62.0413,0,0,0,55.1162-55.1162A1029.1819,1029.1819,0,0,0,356.9079,82.4656Z" transform="translate(-2.1763 0.1076)"/><path class="cls-3" d="M373.654,332.57,125.8493,84.7625a30.2652,30.2652,0,1,0-42.4248,42.4248L330.3678,374.1336A69.9836,69.9836,0,0,0,373.654,332.57Z" transform="translate(-2.1763 0.1076)"/><path class="cls-4" d="M127.2321,153.27H76.3815V310.9051l72.1523,72.1523a1159.9274,1159.9274,0,0,0,167.1475-5.7392,69.72,69.72,0,0,0,26.9531-8.6455Z" transform="translate(-2.1763 0.1076)"/><path class="cls-5" d="M299.9254,166.4744a50.7163,50.7163,0,0,0-37.5791-16.5966c-23.5459,0-38.7421,8.27-47.7861,15.9492L204.5963,153.27H157.7418V310.9051l72.3692,72.3691q42.8115-1.393,85.5732-5.956a69.918,69.918,0,0,0,62.1094-62.1094c2.3379-21.8965,2.5189-43.5857,3.6087-65.5056Z" transform="translate(-2.1763 0.1076)"/><path class="cls-6" d="M76.3844,153.27h50.8477V310.9051H76.3844Z" transform="translate(-2.1763 0.1076)"/><path class="cls-6" d="M262.3463,149.8778c-37.2627,0-53.6308,20.71-57.75,27.0146V153.27H157.7418V310.9051h50.8506V231.7244c0-22.8808,10.5323-40.6787,30.51-40.6787,19.9746,0,23.2441,22.1543,23.2441,49.3975v70.4619h50.8506V200.7283A50.8506,50.8506,0,0,0,262.3463,149.8778Z" transform="translate(-2.1763 0.1076)"/><path class="cls-6" d="M132.0749,103.1492A30.2681,30.2681,0,1,1,101.8083,72.88,30.2653,30.2653,0,0,1,132.0749,103.1492Z" transform="translate(-2.1763 0.1076)"/></svg>